<svg width="56" height="85" viewBox="0 0 56 85" fill="none" xmlns="http://www.w3.org/2000/svg">
<g clip-path="url(#clip0_80_290)">
<path d="M53.28 1.85C52.31 0.97 51.2 0.37 49.95 0.14C49.49 0.05 48.98 0 48.42 0H6.8C6.29 0 5.74 0.05 5.28 0.14C4.03 0.37 2.92 0.97 1.99 1.85C0.65 3.1 0 4.63 0 6.38V78.61C0 80.37 0.65 81.89 1.99 83.14C3.29 84.39 4.9 84.99 6.8 84.99H48.42C50.32 84.99 51.93 84.39 53.28 83.14C54.57 81.89 55.27 80.37 55.27 78.61V6.38C55.27 4.62 54.57 3.1 53.28 1.85Z" fill="#F8F3F1"/>
<path d="M48.1398 14.5196L46.7998 10.6396L45.5498 14.6196L45.8298 40.5597C46.0598 40.6497 46.2898 40.7396 46.5698 40.8396C46.7598 40.8896 46.9898 40.9296 47.2198 40.9296C47.4498 40.9796 47.7298 40.9296 47.9598 40.7896C48.0998 40.7396 48.2398 40.6496 48.3798 40.6096L48.1498 14.5296L48.1398 14.5196ZM46.8398 11.6996C46.8898 11.7896 46.9398 11.9796 47.0298 12.2996V40.1396H46.6998V12.2596C46.7498 12.0296 46.7998 11.8396 46.8398 11.6996Z" fill="#82919D"/>
<path d="M31.8199 4.85986C31.7699 4.94986 31.7299 4.99986 31.6799 5.08986C31.5899 5.13986 31.4999 5.26986 31.3999 5.45986C31.1699 5.73986 31.1699 6.00986 31.3599 6.24986C31.5399 6.42986 31.6399 6.65986 31.6799 6.93986V7.16986L31.6299 7.53986C31.6299 7.44986 31.6299 7.39986 31.5799 7.34986C31.5799 7.20986 31.5799 7.11986 31.5299 6.97986C31.5299 6.88986 31.4899 6.79986 31.4399 6.74986C31.3899 6.65986 31.3499 6.60986 31.2999 6.60986C31.2499 6.55986 31.2099 6.51986 31.1199 6.46986H30.8899C30.8899 6.46986 30.7499 6.46986 30.7099 6.51986C30.6199 6.56986 30.5199 6.60986 30.4299 6.70986C30.3399 6.79986 30.2899 6.93986 30.2499 7.07986C30.2499 7.21986 30.2499 7.35986 30.2899 7.44986C30.3399 7.49986 30.3399 7.53986 30.3799 7.58986C30.4299 7.63986 30.4699 7.67986 30.5699 7.72986C30.6599 7.77986 30.7099 7.86986 30.7099 8.00986C30.7099 8.05986 30.7099 8.09986 30.7499 8.14986V8.19986C30.7999 8.10986 30.8399 7.96986 30.8399 7.82986C30.8399 7.68986 30.8399 7.59986 30.7499 7.50986C30.7099 7.41986 30.7099 7.36986 30.7999 7.27986C30.8499 7.18986 30.9399 7.13986 31.0799 7.18986C31.1699 7.18986 31.2599 7.27986 31.3599 7.50986C31.3599 7.50986 31.3599 7.55986 31.3999 7.59986C31.3599 7.59986 31.3099 7.59986 31.2599 7.64986C31.2199 7.69986 31.2199 7.73986 31.2199 7.82986C31.1699 7.87986 31.2199 7.91986 31.2199 7.96986C31.2599 7.96986 31.3099 8.01986 31.3599 8.01986H31.4499C31.4499 8.01986 31.3599 8.10986 31.3599 8.15986C31.2699 8.24986 31.1699 8.33986 31.0399 8.43986C30.9499 8.48986 30.8499 8.52986 30.7599 8.57986H30.7199C30.5799 8.52986 30.4899 8.52986 30.3899 8.52986C30.0699 8.43986 29.7899 8.24986 29.5099 8.01986L29.4699 8.10986C28.9599 8.75986 28.5399 9.07986 28.1799 9.02986C27.8099 9.02986 27.5799 8.83986 27.4899 8.56986C27.4899 8.51986 27.5399 8.51986 27.5799 8.47986C27.6299 8.42986 27.6299 8.38986 27.6299 8.28986C27.5799 8.23986 27.5799 8.19986 27.5399 8.14986C27.4899 8.09986 27.4499 8.09986 27.4499 8.09986C27.4499 7.95986 27.4999 7.86986 27.5399 7.72986C27.5799 7.67986 27.6299 7.63986 27.6299 7.63986C27.6699 7.58986 27.7199 7.54986 27.7699 7.54986C27.9099 7.45986 27.9999 7.49986 28.1399 7.59986C28.1899 7.64986 28.1899 7.68986 28.1399 7.78986C28.0499 7.92986 28.0499 8.06986 28.0499 8.20986C28.0999 8.34986 28.1399 8.48986 28.1899 8.57986L28.2399 8.52986C28.2399 8.52986 28.2799 8.43986 28.2799 8.38986C28.2399 8.20986 28.3299 8.10986 28.4199 8.01986C28.5099 7.92986 28.5599 7.87986 28.6099 7.78986C28.6599 7.69986 28.6999 7.64986 28.6999 7.59986C28.7899 7.45986 28.7899 7.31986 28.7499 7.17986C28.7499 7.03986 28.6599 6.89986 28.5599 6.85986C28.4699 6.76986 28.3799 6.76986 28.2799 6.71986C28.1399 6.71986 28.0499 6.71986 27.9599 6.76986C27.8699 6.81986 27.7799 6.85986 27.6799 6.90986C27.6399 6.95986 27.5399 6.99986 27.4999 7.04986C27.4099 7.13986 27.3599 7.18986 27.3099 7.27986C27.2699 7.36986 27.2199 7.45986 27.2199 7.59986C27.1799 7.68986 27.1799 7.82986 27.1299 7.96986V8.15986H27.0799L27.0299 7.69986C27.0299 7.69986 27.0299 7.60986 27.0799 7.55986C27.1299 7.23986 27.2199 6.95986 27.3999 6.72986C27.6299 6.40986 27.6299 6.12986 27.3499 5.84986C27.2099 5.70986 27.1199 5.61986 27.0299 5.56986C26.9399 5.51986 26.8399 5.42986 26.7499 5.28986C26.6099 5.19986 26.5199 5.05986 26.4299 4.86986C26.3899 5.09986 26.3399 5.28986 26.2899 5.37986C26.1999 5.55986 26.1099 5.65986 26.0599 5.74986C26.0199 5.83986 25.9199 5.97986 25.8299 6.16986C25.6899 6.48986 25.7399 6.76986 26.0599 6.99986C26.1599 7.08986 26.2899 7.22986 26.3899 7.36986C26.4799 7.45986 26.5299 7.55986 26.5699 7.64986C26.6199 7.64986 26.6199 7.69986 26.6199 7.73986L26.7099 8.24986C26.7099 8.24986 26.6699 8.15986 26.6199 8.10986V8.05986C26.5699 7.96986 26.5299 7.82986 26.4299 7.73986C26.3899 7.64986 26.3399 7.55986 26.2499 7.50986C26.1999 7.41986 26.1099 7.36986 26.0599 7.32986C25.9699 7.32986 25.9199 7.27986 25.8299 7.27986C25.7399 7.22986 25.6499 7.22986 25.5099 7.27986C25.4199 7.27986 25.3199 7.27986 25.2799 7.36986C25.1399 7.41986 25.0899 7.45986 24.9999 7.55986C24.9099 7.64986 24.8599 7.78986 24.9099 7.97986C24.9099 8.11986 24.9499 8.20986 25.0499 8.34986C25.0899 8.39986 25.1399 8.43986 25.1899 8.48986C25.2799 8.53986 25.3799 8.57986 25.4699 8.62986C25.5599 8.62986 25.6599 8.71986 25.6999 8.90986C25.7499 8.95986 25.7499 8.99986 25.7899 8.99986C25.7899 8.99986 25.8065 9.01653 25.8399 9.04986C25.8899 8.90986 25.8899 8.81986 25.8399 8.67986C25.8399 8.49986 25.7499 8.39986 25.6599 8.30986C25.6099 8.25986 25.5699 8.16986 25.6099 8.07986C25.6999 7.93986 25.7899 7.89986 25.9299 7.89986C26.0699 7.94986 26.2099 8.03986 26.3899 8.26986C26.3899 8.26986 26.3899 8.31986 26.4299 8.31986C26.3899 8.36986 26.3399 8.36986 26.2899 8.40986C26.2499 8.45986 26.2499 8.54986 26.2499 8.59986C26.2499 8.68986 26.2899 8.73986 26.3399 8.77986C26.3899 8.82986 26.4299 8.82986 26.4799 8.82986V8.87986C26.1099 9.66986 25.4199 9.70986 24.4399 9.10986C24.3499 9.19986 24.2999 9.28986 24.2599 9.42986C24.2099 9.51986 24.1199 9.65986 24.0299 9.74986C23.8899 9.83986 23.7499 9.92986 23.6599 9.97986C23.5199 10.0299 23.4299 10.0299 23.3399 10.0699C23.1999 10.0699 23.1099 10.0699 23.0199 10.0199C22.8799 9.96986 22.7899 9.92986 22.6499 9.87986L22.7899 9.82986H22.8399C22.8399 9.82986 22.8899 9.73986 22.9299 9.68986V9.50986C22.9299 9.50986 22.8399 9.41986 22.7899 9.41986C22.7399 9.36986 22.6999 9.36986 22.6499 9.36986V9.27986C22.6899 9.04986 22.7399 8.85986 22.8299 8.81986C22.9199 8.72986 23.0199 8.72986 23.1099 8.81986C23.1599 8.86986 23.1999 8.90986 23.1599 8.99986C23.1599 9.08986 23.1599 9.22986 23.2099 9.36986C23.2599 9.50986 23.2999 9.59986 23.3999 9.64986C23.3999 9.64986 23.4399 9.55986 23.3999 9.50986C23.3999 9.36986 23.3999 9.22986 23.4899 9.18986C23.4899 9.09986 23.5399 9.04986 23.5799 8.95986V8.76986C23.6299 8.67986 23.5799 8.53986 23.5299 8.39986C23.4399 8.25986 23.3899 8.16986 23.2499 8.11986C23.1999 8.06986 23.1099 8.06986 23.0199 8.02986C22.9299 8.02986 22.8799 8.07986 22.7899 8.11986C22.6999 8.16986 22.6499 8.20986 22.5599 8.25986C22.5599 8.30986 22.5199 8.34986 22.4699 8.39986C22.4299 8.48986 22.4299 8.53986 22.3799 8.62986V8.90986C22.3799 9.04986 22.3799 9.18986 22.4299 9.32986V9.46986L22.2399 9.04986C22.2399 8.85986 22.1999 8.72986 22.2399 8.62986C22.2399 8.43986 22.2399 8.30986 22.3299 8.16986C22.4199 7.79986 22.3299 7.56986 22.0499 7.37986C21.9099 7.28986 21.8199 7.19986 21.7299 7.19986C21.6399 7.14986 21.5499 7.05986 21.4099 6.96986C21.3199 6.91986 21.1799 6.78986 21.0399 6.64986C21.0899 6.82986 21.0899 7.01986 21.0899 7.10986C21.0399 7.28986 20.9999 7.38986 20.9999 7.47986C20.9599 7.52986 20.9099 7.66986 20.9099 7.79986C20.8199 8.11986 20.9599 8.39986 21.2799 8.53986C21.5099 8.67986 21.6899 8.85986 21.8799 9.04986C21.9299 9.09986 21.9299 9.13986 21.9699 9.18986L22.1099 9.55986C22.1099 9.55986 22.0699 9.46986 22.0199 9.46986C21.9699 9.32986 21.8799 9.23986 21.7899 9.14986C21.7399 9.09986 21.6499 9.00986 21.5599 8.96986C21.5099 8.91986 21.4199 8.87986 21.3699 8.87986C21.2799 8.82986 21.1899 8.82986 21.1399 8.82986H20.9099C20.8199 8.87986 20.7699 8.87986 20.6799 8.96986C20.6299 9.01986 20.5899 9.10986 20.5399 9.19986V9.47986C20.5399 9.47986 20.5399 9.52986 20.5799 9.56986C20.5799 9.65986 20.6299 9.70986 20.6699 9.74986C20.6699 9.79986 20.7099 9.83986 20.7599 9.83986C20.8099 9.88986 20.8499 9.92986 20.8999 9.97986C20.9899 10.0299 21.0899 10.0299 21.1799 10.0699C21.2699 10.0699 21.3599 10.1599 21.4599 10.2499C21.4599 10.2999 21.5099 10.3399 21.5499 10.3899C21.5899 10.2999 21.5499 10.1599 21.4999 10.0699C21.4499 9.92986 21.3599 9.83986 21.2199 9.74986C21.1799 9.69986 21.1299 9.65986 21.1799 9.56986C21.1799 9.42986 21.2699 9.37986 21.4099 9.37986C21.4499 9.37986 21.4999 9.37986 21.5499 9.42986C21.5499 9.42986 21.5899 9.47986 21.6399 9.47986C21.7299 9.52986 21.8199 9.61986 21.9199 9.70986C21.8699 9.70986 21.8699 9.75986 21.8699 9.79986C21.8199 9.84986 21.8199 9.88986 21.8699 9.93986C21.8699 10.0299 21.9199 10.0299 21.9599 10.0799H22.1899C22.1499 10.3099 22.0499 10.5399 21.8699 10.6799C21.8699 10.6799 21.8199 10.6799 21.7799 10.7299L21.4599 10.8199C21.4199 10.7299 21.3699 10.6799 21.3699 10.5899C21.3299 10.3999 21.2299 10.3099 21.0899 10.2699C20.9499 10.2199 20.8999 10.2199 20.8599 10.3199C20.8199 10.1799 20.7199 10.0399 20.5799 9.80986C20.4899 9.57986 20.2999 9.43986 20.1699 9.38986C20.0299 9.10986 19.8399 8.83986 19.6599 8.59986C19.5699 8.36986 19.3799 8.22986 19.1499 8.17986C19.1099 8.17986 19.1099 8.31986 19.1099 8.49986C19.1499 8.67986 19.1499 8.81986 19.1999 8.91986C19.2499 8.96986 19.3399 9.10986 19.4299 9.19986C19.5199 9.33986 19.6199 9.42986 19.7099 9.51986C19.7999 9.60986 19.8999 9.74986 19.9899 9.93986C20.0799 10.0799 20.2199 10.2599 20.3099 10.4499C20.3999 10.5899 20.4999 10.7299 20.5399 10.9099C20.5799 10.9599 20.6299 10.9599 20.7199 10.9599C20.7199 10.9099 20.7699 10.9099 20.7699 10.9599C20.7699 10.9599 20.7865 10.9765 20.8199 11.0099V11.0599C20.8199 11.0599 20.7699 11.1499 20.7699 11.1999C20.7199 11.2499 20.7199 11.2899 20.7699 11.3899C20.7699 11.4799 20.8199 11.5299 20.9099 11.6199C20.9099 11.6199 20.9999 11.6699 21.0499 11.6699C20.9999 11.7599 20.9099 11.8099 20.9099 11.8999C20.8599 12.0799 20.8599 12.2199 20.9099 12.3599C20.9099 12.4999 20.9999 12.6399 21.1399 12.7299C21.1399 12.7299 21.1099 12.7599 21.0499 12.8199C20.9599 12.8699 20.8599 12.9999 20.9099 13.1399C20.9099 13.3199 20.9999 13.3699 21.1899 13.3699C21.1899 13.4599 21.1899 13.5499 21.2299 13.6499C21.5599 13.5999 22.7599 13.1899 24.8399 12.5399C26.9199 11.8499 28.9599 11.4299 30.8999 11.2399C32.8399 11.0599 33.8599 10.9599 33.8599 10.9199C33.8599 10.8799 33.8599 10.8299 33.8099 10.7299C33.9499 10.6799 33.9999 10.5899 33.9499 10.4099C33.9499 10.2699 33.8599 10.1799 33.7199 10.1299H33.6299C33.7199 9.94986 33.7199 9.75986 33.7199 9.66986C33.7199 9.48986 33.6699 9.34986 33.6299 9.24986L33.5799 9.19986C33.5799 9.19986 33.4899 9.10986 33.4399 9.05986C33.4899 9.00986 33.5299 8.96986 33.5799 8.91986V8.86986C33.6299 8.77986 33.6299 8.72986 33.6299 8.68986C33.5799 8.59986 33.5799 8.50986 33.5399 8.40986C33.5399 8.22986 33.5799 8.03986 33.5799 7.89986C33.6299 7.75986 33.6699 7.66986 33.7199 7.57986C33.8099 7.38986 33.9099 7.25986 33.9999 7.06986C34.0899 6.83986 34.2299 6.55986 34.4199 6.27986C34.5599 5.99986 34.5999 5.67986 34.5599 5.34986V5.29986C34.5199 5.15986 34.4699 5.01986 34.3799 4.87986H34.3299C34.2899 5.01986 34.2399 5.19986 34.1899 5.47986C34.0499 5.89986 33.9599 6.21986 33.8699 6.39986L33.7799 6.67986C33.7799 6.67986 33.7299 6.67986 33.7299 6.72986C33.5499 6.90986 33.4499 7.18986 33.4499 7.46986H33.4099C33.3199 7.41986 33.2699 7.46986 33.2199 7.51986C33.2199 7.51986 33.2032 7.53653 33.1699 7.56986C33.0299 7.70986 33.0299 7.93986 33.0799 8.16986V8.21986H33.1699C33.1699 8.21986 33.1299 8.30986 33.1299 8.39986L32.6199 8.48986C32.5299 8.48986 32.4799 8.39986 32.3899 8.34986C32.3399 8.25986 32.2499 8.20986 32.2099 8.11986C32.1599 8.06986 32.1099 8.02986 32.1099 7.92986H32.1599C32.1599 7.92986 32.2099 7.92986 32.2499 7.87986L32.2999 7.82986C32.2999 7.82986 32.3499 7.73986 32.3899 7.64986C32.3899 7.59986 32.3399 7.55986 32.2999 7.50986H32.2499C32.2999 7.36986 32.3399 7.27986 32.4399 7.18986C32.4399 7.13986 32.4799 7.09986 32.5299 7.04986C32.5799 6.99986 32.6199 6.99986 32.6699 6.95986C32.7599 6.90986 32.8599 6.90986 32.9499 7.04986C32.9499 7.09986 32.9499 7.18986 32.8999 7.23986C32.8099 7.37986 32.7599 7.46986 32.7199 7.65986C32.7199 7.74986 32.7199 7.88986 32.7599 7.97986V7.92986C32.7599 7.92986 32.8499 7.83986 32.8499 7.78986C32.8899 7.64986 32.9399 7.55986 33.0299 7.46986C33.0799 7.46986 33.0799 7.41986 33.1299 7.41986C33.1699 7.36986 33.2199 7.32986 33.2699 7.27986C33.2699 7.22986 33.3099 7.18986 33.3599 7.13986C33.3599 7.13986 33.3765 7.12653 33.4099 7.09986C33.4099 7.00986 33.4499 6.90986 33.4499 6.86986C33.4999 6.81986 33.4999 6.77986 33.4999 6.72986C33.4999 6.53986 33.4999 6.44986 33.4099 6.35986C33.3599 6.30986 33.2699 6.21986 33.2199 6.21986C33.1299 6.16986 33.0299 6.21986 32.9899 6.21986C32.8999 6.26986 32.7999 6.30986 32.7099 6.30986C32.6599 6.35986 32.5699 6.39986 32.5199 6.44986C32.4699 6.53986 32.3799 6.58986 32.3299 6.67986C32.2799 6.76986 32.2399 6.86986 32.2399 6.95986C32.1499 7.09986 32.0999 7.23986 32.0599 7.37986C32.0599 7.37986 32.0599 7.42986 32.0099 7.51986L32.0599 7.19986V7.05986C32.0599 7.05986 32.0999 6.96986 32.0999 6.91986C32.1499 6.77986 32.1999 6.68986 32.2399 6.59986C32.2899 6.45986 32.3799 6.31986 32.5199 6.17986C32.7499 5.85986 32.7999 5.52986 32.7099 5.29986C32.6199 5.15986 32.5699 5.06986 32.4799 4.97986C32.4799 4.97986 32.4399 4.92986 32.4399 4.88986H31.8899L31.8199 4.85986Z" fill="#EDAC27"/>
<path d="M32.47 12.0698C32.56 12.7598 32.61 13.1798 32.66 13.4098C32.66 13.6398 32.66 13.9198 32.7 14.2898C32.66 14.6098 32.75 14.9798 32.89 15.3498C32.94 15.4898 32.94 15.6798 32.84 15.8098C32.66 16.1798 32.61 16.5498 32.75 16.8698C32.84 17.0598 32.89 17.2898 32.8 17.4698C32.71 17.6998 32.66 17.9798 32.66 18.2598C32.61 18.3498 32.61 18.3998 32.61 18.4498V18.5398V18.4898C32.61 18.4898 32.56 18.3998 32.52 18.3498C32.47 18.2098 32.38 18.1198 32.29 18.0298C32.11 17.7098 31.87 17.5198 31.5 17.4298C31.36 17.3798 31.27 17.3398 31.22 17.2498C30.85 16.8798 30.52 16.9298 30.2 17.2998C30.2 17.2498 30.15 17.2098 30.11 17.2098C29.74 16.9798 29.41 16.9298 29.14 17.0298H28.96C28.59 16.9798 28.36 17.1198 28.17 17.3098C28.17 17.3998 28.12 17.4498 28.08 17.4998C27.94 17.7298 27.66 17.8698 27.34 17.9598C26.92 18.0098 26.65 18.1398 26.46 18.3798C26.46 18.2898 26.51 18.2398 26.51 18.1998C26.56 18.1098 26.56 18.0598 26.56 18.0198C26.38 18.0698 26.19 18.1098 26.05 18.1598C25.77 18.2098 25.73 18.0698 25.87 17.7898C25.64 17.8398 25.41 17.9298 25.13 18.0698C24.85 18.0698 24.62 17.7498 24.48 17.1498C24.71 16.9198 24.8 16.7298 24.8 16.4098C24.8 16.2698 24.76 16.1298 24.62 15.9898C24.39 15.8498 24.34 15.5798 24.57 15.2998C24.62 15.1598 24.62 15.0698 24.57 14.9298C24.52 14.8798 24.48 14.7898 24.48 14.6998C24.43 14.3798 24.52 13.7298 24.76 12.7598L21.71 13.7798C21.62 13.8298 21.62 13.9198 21.66 14.0598L21.8 14.3798C21.43 14.7998 21.39 15.2598 21.66 15.6698C21.11 15.9498 20.83 16.4098 20.78 16.9698C20.73 17.5698 20.55 18.1198 20.27 18.6298C20.04 18.9998 19.72 19.3698 19.39 19.6498C19.07 19.8798 18.7 19.9698 18.33 19.9698C18.05 19.9198 17.82 19.9698 17.59 20.0198C17.18 20.1598 16.99 20.4398 16.99 20.8498C16.94 20.9398 16.9 20.9898 16.85 21.0298C16.57 21.2198 16.3 21.4498 16.06 21.7698C15.88 22.0898 15.78 22.4198 15.83 22.6998C15.83 22.9798 16.11 23.1598 16.62 23.2498C16.94 23.2998 17.08 23.5298 17.08 23.8098V23.8598C17.13 23.6798 17.22 23.4898 17.31 23.3098C17.31 23.3098 17.4 23.3598 17.5 23.3998C17.87 23.4898 18.24 23.5898 18.61 23.6298C18.93 23.6298 19.12 23.8098 19.16 24.0898C19.16 24.0398 19.16 23.9998 19.21 23.9498C19.25 23.8098 19.25 23.6298 19.25 23.4398C19.62 23.6698 19.9 23.6198 20.17 23.3498C20.5 23.0298 20.87 22.9798 21.24 23.1698C21.24 22.9398 21.24 22.7498 21.19 22.5698C21.15 22.3398 21.28 22.1998 21.61 22.0598C21.61 21.9198 21.65 21.8298 21.65 21.6898C21.79 21.8698 21.93 22.0098 22.07 22.1998C22.12 21.8698 22.3 21.5998 22.58 21.3198C22.67 21.2298 22.72 21.1798 22.77 21.0898C22.86 20.8598 22.95 20.6698 22.95 20.4898C23.09 20.9498 23.27 21.4098 23.46 21.7398C23.65 22.0598 23.69 22.3898 23.6 22.7998C23.55 23.0798 23.55 23.3598 23.74 23.6298C23.97 23.4498 24.11 23.4898 24.11 23.7198C24.16 23.9498 24.29 24.1398 24.52 24.3198C24.94 24.5998 25.07 25.0598 24.94 25.6598C25.03 25.6098 25.13 25.5698 25.26 25.5198C25.35 25.6098 25.49 25.7098 25.63 25.7998C25.72 25.7998 25.86 25.9798 26 26.3998C26.18 26.3098 26.37 26.1698 26.55 25.9798C26.69 26.1698 26.87 26.2098 27.06 26.1198C27.52 26.2098 27.85 26.1698 28.12 25.9798C28.77 26.3098 29.32 26.5398 29.92 26.6698C29.97 26.5298 29.97 26.3898 29.92 26.2098C30.29 26.4398 30.66 26.4898 31.12 26.4398C31.12 26.2598 31.12 26.0698 31.03 25.9298C31.31 25.9798 31.58 26.0698 31.82 26.2498C31.73 26.1598 31.77 26.0198 31.96 25.8798C32.01 25.8298 32.1 25.8798 32.28 25.9298C32.42 25.8398 32.42 25.6998 32.33 25.5598C32.52 25.6498 32.7 25.7498 32.79 25.7498C32.93 25.7498 32.97 25.6598 33.07 25.5598C33.02 24.9598 33.21 24.6398 33.72 24.5898H33.81C34.04 24.5398 34.13 24.5398 34.18 24.5898C34.18 24.4098 34.23 24.2198 34.18 24.0398C34.32 23.9498 34.32 23.7598 34.09 23.5798C34.27 23.6298 34.41 23.7198 34.51 23.8998C34.65 23.5298 34.7 23.1098 34.65 22.6498C34.97 23.1598 35.44 23.3398 36.08 23.1098C36.13 23.1998 36.17 23.2898 36.22 23.3398C36.4 23.5198 36.59 23.5698 36.91 23.4798C36.96 23.4798 37 23.4798 37.05 23.4298C37.42 23.3798 37.7 23.4798 37.84 23.7998V23.3398C37.84 23.2498 37.79 23.1098 37.79 23.0198C37.98 23.0698 38.16 23.1598 38.35 23.2498C38.63 23.4798 38.77 23.7098 38.72 24.0398C38.72 23.9498 38.77 23.8498 38.86 23.7098C39.05 23.3398 39.05 23.0198 38.72 22.7398C38.86 22.4598 38.86 22.2298 38.72 21.9998C38.58 21.7198 38.4 21.6298 38.21 21.7198C37.89 21.7698 37.84 21.5798 37.93 21.2098C37.98 21.1198 37.93 21.0698 37.93 21.0198C37.79 20.9698 37.74 20.8798 37.7 20.8398C37.56 20.6098 37.38 20.4698 37.14 20.3298C36.91 20.2398 36.68 20.1898 36.45 20.1898C36.31 19.9098 36.22 19.7298 36.22 19.6298C36.17 19.5398 36.13 19.4498 36.03 19.3998C35.75 19.1198 35.66 18.7498 35.75 18.3798C35.79 18.2398 35.79 18.0998 35.71 18.0598C35.57 17.9698 35.48 17.8298 35.48 17.7398C35.43 17.3698 35.25 17.1398 34.97 16.9498C34.74 16.8098 34.51 16.6698 34.27 16.5298C34.36 16.3498 34.32 16.2498 34.27 16.1598C33.99 15.9698 33.76 15.7398 33.58 15.5098C33.39 15.3698 33.35 15.1398 33.3 14.9098V14.2198C33.35 14.0398 33.35 13.8498 33.25 13.7098C33.02 13.2498 32.93 12.4198 32.97 11.2598C32.79 11.2598 32.65 11.3098 32.46 11.4398C32.41 11.7198 32.41 11.9498 32.46 12.0898L32.47 12.0698ZM28.12 18.7298C28.17 19.0498 28.31 19.0498 28.63 18.7798C28.72 18.7298 28.77 18.6898 28.86 18.6898C29.37 18.5998 29.78 18.3198 29.97 17.7698C30.06 18.1398 30.25 18.3698 30.62 18.5598C30.9 18.6998 30.99 18.6098 30.9 18.3298C30.99 18.4198 31.13 18.5098 31.27 18.6098C31.18 19.1198 31.32 19.4898 31.55 19.7698C31.6 19.8598 31.64 19.9098 31.6 19.9998C31.6 20.0898 31.6 20.1798 31.65 20.2298C31.37 20.0898 31.23 19.9098 31.23 19.6798C31.09 19.7698 31 19.9098 30.91 20.0498C30.82 19.9598 30.73 19.8198 30.68 19.6798C30.54 19.7698 30.45 19.8198 30.4 19.9598C30.36 19.8198 30.26 19.7798 30.17 19.7298C29.99 19.7798 29.8 19.8198 29.66 20.0098C29.57 19.9198 29.52 19.8298 29.48 19.7298C29.39 19.7798 29.29 19.7798 29.29 19.8698C29.11 20.0498 28.92 20.0098 28.83 19.7298C28.46 19.8698 28.18 19.9598 27.91 20.0498C28.05 19.6798 28 19.3098 27.91 18.9898C27.96 18.8998 28.05 18.8498 28.14 18.7598L28.12 18.7298Z" fill="#EF8F30"/>
<path d="M38.71 24.14C38.71 24.14 38.66 24.14 38.62 24.09C38.53 24.04 38.39 23.95 38.3 23.86C38.39 24.28 38.35 24.51 38.16 24.55C37.93 24.09 37.61 23.95 37.14 24.13C36.77 24.31 36.26 24.22 35.71 23.99C36.03 29.95 34.78 35.83 31.91 41.56C31.68 41.93 32.1 41.93 33.16 41.61C34.04 41.33 34.87 40.96 35.57 40.5C36.26 39.99 36.86 39.44 37.46 38.74C38.01 38 38.48 37.21 38.85 36.43C39.22 35.64 39.54 34.81 39.87 33.89C40.1 33.06 40.33 32.22 40.47 31.35C40.61 30.52 40.75 29.68 40.84 28.85C40.93 27.88 40.79 26.95 40.47 26.08C40.19 25.25 39.73 24.46 39.17 23.77C39.12 23.86 39.03 24.05 38.98 24.19C38.89 24.19 38.8 24.19 38.7 24.14H38.71Z" fill="#1884B5"/>
<path d="M45.18 29.9699C44.67 29.4199 44.16 28.8599 43.65 28.3499C43.33 28.0699 43.05 27.7899 42.77 27.5599C42.26 27.0999 41.75 26.6299 41.29 26.1699C41.43 26.9599 41.57 27.6999 41.57 28.4799C41.61 29.4499 41.57 30.4199 41.38 31.4399C41.24 32.2699 41.06 33.1499 40.78 34.0299C40.55 34.5799 40.36 35.0899 40.13 35.6499C39.9 36.1099 39.71 36.5799 39.48 36.9899C39.25 37.4499 38.97 37.8699 38.69 38.2799C38.41 38.6999 38.14 39.0699 37.81 39.4399C37.49 39.8599 37.11 40.1799 36.75 40.4999C36.33 40.8199 35.92 41.0999 35.5 41.3299C35.27 41.4699 35.04 41.6099 34.81 41.7499C34.35 41.9299 33.88 42.1699 33.42 42.3999H30.23C32.22 43.2299 33.98 44.3899 35.5 45.8199C36.65 46.8799 37.67 47.9899 38.6 49.1499C39.71 50.4899 40.68 51.9199 41.51 53.4099C42.48 55.0699 43.04 56.8799 43.27 58.7699L44.33 57.7099C45.16 56.6899 45.9 55.5799 46.5 54.3799C47.7 52.1599 48.58 49.7999 49.14 47.3499C49.46 45.7299 49.83 44.0699 50.11 42.3999H44.28C44.14 42.2599 44 42.1199 43.86 41.9799C43.58 41.6999 43.4 41.4699 43.21 41.1899C42.98 40.8199 42.7 40.3999 42.52 40.0299L43.63 39.0599C43.63 39.1499 43.68 39.2499 43.77 39.3399C43.77 39.4299 43.82 39.4799 43.91 39.5699C44 39.6599 44.14 39.7499 44.28 39.8899C44.37 39.9799 44.51 40.0699 44.65 40.1199C44.79 40.1699 44.97 40.1699 45.16 40.2099V29.9399L45.18 29.9699Z" fill="#E1593E"/>
<path d="M43.6599 39.8198H43.1099C43.1099 39.9098 43.1499 40.0498 43.2499 40.2398C43.3399 40.4698 43.5699 40.7498 43.8999 41.0298C44.1799 41.3098 44.4999 41.6298 44.8699 41.9098L45.5699 42.4198H48.7599L49.1799 42.1398C50.0999 41.3498 50.6599 40.7998 50.8899 40.4298C51.0299 40.1098 51.1199 39.9198 51.1199 39.8298H50.6599C50.5199 40.1598 50.1999 40.4798 49.6899 40.7498C49.0899 40.9798 48.6699 40.9798 48.3999 40.7998C48.2599 40.8898 48.1199 40.9398 47.9799 40.9898C47.7499 41.0798 47.4699 41.1698 47.2399 41.1298C47.0099 41.1298 46.7799 41.0798 46.5899 41.0398C46.3099 40.9898 46.0799 40.8998 45.8499 40.7598C45.4299 40.9898 45.0199 40.9898 44.5999 40.6698C44.0899 40.3898 43.7699 40.1098 43.6699 39.8398L43.6599 39.8198Z" fill="#EDAC27"/>
<path d="M29.1799 29.8796L29.1299 29.2796C28.4799 29.1396 27.9299 28.9096 27.4699 28.6296C26.7299 28.1196 26.0799 27.5696 25.4799 26.9196C24.7799 26.2696 24.2799 25.5296 23.8099 24.7496C23.4899 24.0596 23.1599 23.3596 22.8899 22.6196C22.6999 22.8496 22.4699 22.9396 22.1499 22.8996C22.4699 23.7296 22.7999 24.5196 23.1199 25.2096C23.5799 25.9996 24.0899 26.7396 24.7799 27.3796C25.3799 28.0296 26.0799 28.5796 26.8199 29.0896C27.4199 29.5096 28.2099 29.7396 29.1799 29.8796Z" fill="#EDAC27"/>
<path d="M29.4599 29.2296V30.3396C28.9999 30.4796 28.5299 30.7596 28.1699 31.2196C27.6599 31.8196 27.4299 32.4696 27.4299 33.2996C27.4299 34.1296 27.6599 34.8696 28.1699 35.4296C28.6299 36.0296 29.2299 36.3596 29.8799 36.3596C30.5799 36.3596 31.1299 36.0396 31.6399 35.4296C32.1499 34.8696 32.3799 34.1396 32.3799 33.2996C32.3799 32.4596 32.1499 31.8196 31.6399 31.2196C31.2199 30.7596 30.8099 30.4796 30.2999 30.3396V29.2296C30.0199 28.9996 29.7499 28.9996 29.4699 29.2296H29.4599ZM29.9699 31.1696L31.4499 33.3896L29.9699 35.6096L28.4899 33.4396L29.9699 31.2196V31.1696Z" fill="#EDAC27"/>
<path d="M30.5698 29.2697V29.8197C31.5898 29.6797 32.3298 29.0797 32.8798 28.1097C33.4298 27.0897 33.7098 26.3097 33.7098 25.7497C33.7498 25.1997 33.6598 25.0997 33.5198 25.4697C33.3398 25.8397 33.1998 26.0697 33.0998 26.1197C32.9598 26.2097 32.8198 26.4397 32.7298 26.8097C32.6398 27.1797 32.4098 27.5997 32.0798 28.0597C31.7098 28.5697 31.1998 28.9397 30.5498 29.2597L30.5698 29.2697Z" fill="#EDAC27"/>
<path d="M49.3499 35.42C49.2099 35.19 49.0699 34.96 48.8899 34.73V40.37C49.2599 40.46 49.9099 39.86 50.8799 38.66C50.8799 38.47 50.7399 38.1 50.5099 37.69C50.2799 37.18 50.0499 36.67 49.7699 36.21C49.6299 35.93 49.4899 35.7 49.3499 35.42Z" fill="#E1593E"/>
<path d="M27.8898 53.6498C28.3998 53.0998 28.6298 52.3998 28.6298 51.5698C28.6298 50.7398 28.3998 50.0398 27.8898 49.4398C27.3798 48.8398 26.8298 48.5098 26.1298 48.5098C25.4798 48.5098 24.8798 48.8298 24.4198 49.4398C23.9098 50.0398 23.6298 50.7298 23.6798 51.5698C23.6298 52.3998 23.9098 53.0998 24.4198 53.6498C24.7898 54.1098 25.2498 54.3898 25.7598 54.5298V55.6398C26.0398 55.8698 26.2698 55.8698 26.5498 55.6398V54.5298C27.0598 54.3898 27.5198 54.1098 27.8898 53.6498ZM26.0898 49.2098L27.5698 51.4298L26.0898 53.6498L24.5598 51.4298L26.0898 49.2098Z" fill="#EDAC27"/>
<path d="M36.5398 47.9996C35.1998 46.4296 33.6698 45.0396 31.9198 43.9796C29.8398 42.6396 27.7198 42.4496 25.5398 43.4296L35.6698 60.5896C36.3198 60.6396 36.7798 60.4996 37.1098 60.2196C37.6198 60.7296 38.1298 60.9096 38.5898 60.7296C38.9098 60.6796 39.0998 60.5496 39.1398 60.4096C39.2398 60.5496 39.3298 60.7296 39.4698 60.9196C39.8398 61.3396 40.3498 61.7996 40.9998 62.2196C42.0198 61.4796 42.4798 60.4596 42.4298 59.2596C42.2898 56.9996 41.5998 54.9096 40.3498 53.0196C39.1498 51.2596 37.8998 49.6396 36.5598 48.0296L36.5398 47.9996Z" fill="#1884B5"/>
<path d="M31.2598 57.4798C30.6598 56.8298 29.9698 56.2798 29.2298 55.7698C28.6298 55.3498 27.8398 55.1198 26.8198 55.0298L26.8698 55.6298C27.5598 55.7198 28.1198 55.9498 28.5798 56.2298C29.2698 56.7398 29.9698 57.2898 30.5698 57.9398C31.2198 58.5898 31.7698 59.3298 32.1898 60.1598C32.5598 60.8098 32.8398 61.4998 33.1598 62.2398C33.2998 62.0098 33.5298 61.9198 33.8998 61.9598C33.5798 61.1298 33.2498 60.3398 32.8798 59.6898C32.4198 58.8598 31.9098 58.1198 31.2598 57.4698V57.4798Z" fill="#EDAC27"/>
<path d="M30.3798 59.1497C30.2898 59.0997 30.1998 58.9197 30.0598 58.4997C29.8298 58.5897 29.6398 58.7297 29.4598 58.9197C29.3198 58.7397 29.1398 58.6897 28.9998 58.7797C28.5398 58.6897 28.1698 58.7297 27.9398 58.9597C27.2898 58.5897 26.6898 58.3597 26.0898 58.2197V58.6797C25.7598 58.4497 25.3498 58.3997 24.9298 58.4897C24.9298 58.6297 24.9298 58.8097 24.9798 58.9497C24.6998 58.9497 24.4698 58.8097 24.1898 58.6297C24.3298 58.7197 24.2798 58.8597 24.0498 58.9997C24.0498 59.0497 23.9098 58.9997 23.7298 58.9497C23.5898 59.0397 23.5898 59.1797 23.6798 59.3197C23.4898 59.2297 23.3598 59.1397 23.2198 59.1397C23.1298 59.1397 23.0298 59.2297 22.9898 59.3197C23.0398 59.9197 22.7998 60.2397 22.3398 60.3397C22.2898 60.2897 22.2498 60.2897 22.2498 60.3397H21.8798C21.8298 60.4797 21.8298 60.6597 21.8298 60.8497C21.6898 60.9397 21.7398 61.1297 21.9698 61.3597C21.7398 61.2697 21.5998 61.1797 21.5098 61.0397C21.3698 61.3597 21.3198 61.8297 21.4198 62.2897C21.0998 61.7397 20.5898 61.5497 19.9398 61.7797C19.9398 61.6897 19.8898 61.5997 19.7998 61.5497C19.6598 61.3597 19.4298 61.3197 19.1498 61.4097C19.0998 61.4097 19.0598 61.4097 19.0098 61.4597C18.5898 61.5097 18.3098 61.4097 18.1798 61.0897V61.5497C18.2298 61.6397 18.2298 61.7797 18.2698 61.8697C18.0798 61.8197 17.8998 61.7297 17.7098 61.6397C17.3898 61.4097 17.2498 61.1797 17.3398 60.8497C17.2998 60.9397 17.2498 61.0297 17.1598 61.1697C16.9698 61.5397 17.0198 61.8597 17.2998 62.1897C17.1598 62.4197 17.1598 62.6497 17.2998 62.8797C17.4398 63.1597 17.6198 63.2497 17.8498 63.1997C18.1298 63.1097 18.2198 63.2897 18.0798 63.6597C18.0798 63.7497 18.0798 63.7997 18.1298 63.8397C18.2198 63.9297 18.3098 63.9797 18.3098 64.0197C18.4998 64.2497 18.6798 64.3897 18.9098 64.5297C19.1398 64.6197 19.3698 64.6697 19.5598 64.6697C19.6998 64.9497 19.7898 65.1297 19.8398 65.2197C19.8398 65.3097 19.8798 65.3997 20.0198 65.4997C20.2498 65.7297 20.3498 66.0997 20.2498 66.5197C20.1998 66.6097 20.1998 66.7497 20.3398 66.7997C20.4298 66.8897 20.5198 67.0297 20.5698 67.1197C20.5698 67.4897 20.7598 67.7197 21.0298 67.9097C21.3098 68.0497 21.5398 68.1897 21.7698 68.3297C21.6798 68.5197 21.6798 68.6497 21.7698 68.6997C21.9998 68.9297 22.2298 69.1197 22.4698 69.3497C22.6098 69.4897 22.6998 69.7197 22.6998 69.9997C22.7498 70.1797 22.7498 70.4197 22.6998 70.6497C22.6998 70.8397 22.6998 71.0197 22.7898 71.2097C23.0198 71.6297 23.0698 72.4597 23.0698 73.6197C23.2098 73.6197 23.3498 73.5697 23.5798 73.4797V72.7897C23.4398 72.1397 23.3898 71.6797 23.3898 71.4497C23.3498 71.2597 23.3498 70.9397 23.3498 70.6197C23.3498 70.2497 23.2598 69.8797 23.1198 69.5597C23.0698 69.3797 23.0698 69.1897 23.1698 69.0497C23.3598 68.6797 23.3998 68.3097 23.2598 67.9897C23.1698 67.8097 23.1698 67.5697 23.2198 67.3897C23.3098 67.1597 23.3598 66.8797 23.3998 66.5997V66.3197C23.3998 66.3197 23.3998 66.3697 23.4398 66.3697C23.4398 66.4197 23.4898 66.4597 23.4898 66.5097C23.5798 66.6497 23.6298 66.7397 23.7198 66.8297C23.8998 67.1497 24.1798 67.3397 24.5098 67.4297C24.6498 67.4797 24.7898 67.5197 24.8298 67.6097C25.1998 67.9797 25.5198 67.9297 25.7998 67.5597C25.8498 67.6097 25.8498 67.6497 25.9398 67.6997C26.2598 67.8897 26.5898 67.9297 26.9098 67.8397H27.0998C27.4698 67.8897 27.6998 67.7897 27.8398 67.5597C27.8798 67.5097 27.9298 67.4197 27.9298 67.3697C28.1198 67.1397 28.3498 66.9997 28.7198 66.9097C29.0898 66.8597 29.3698 66.7297 29.5498 66.5397C29.5498 66.5897 29.5498 66.6297 29.4998 66.6797C29.4598 66.7697 29.4598 66.8197 29.4598 66.9097C29.6398 66.8197 29.8298 66.7697 30.0098 66.7697C30.2398 66.6797 30.3298 66.8197 30.1998 67.0997C30.3798 67.0497 30.6198 66.9597 30.9398 66.8197C31.2198 66.8197 31.4498 67.1397 31.5898 67.7897C31.3598 67.9697 31.2698 68.2097 31.2698 68.4797C31.2698 68.6597 31.3198 68.7597 31.4598 68.8997C31.6898 69.0397 31.6898 69.3197 31.5098 69.6397C31.4598 69.7297 31.4598 69.8697 31.5098 69.9597C31.5498 70.0497 31.5498 70.0997 31.5998 70.1897C31.6498 70.5097 31.5498 71.1597 31.2798 72.1797L34.3798 71.1597C34.4198 71.0697 34.4698 70.9697 34.4198 70.8397L34.2398 70.5097C34.6098 70.0997 34.6998 69.6297 34.4198 69.2197C34.9798 68.9397 35.2098 68.4797 35.2498 67.9297C35.2898 67.3297 35.4798 66.7697 35.7598 66.3097C36.0398 65.8897 36.3098 65.5197 36.6798 65.2497C36.9598 65.0197 37.3298 64.9297 37.7398 64.9697C38.0198 64.9697 38.2498 64.9197 38.4398 64.8797C38.8498 64.7397 39.0398 64.4597 39.0898 64.0497C39.1298 63.9597 39.1298 63.9097 39.2298 63.8697C39.5098 63.6897 39.7798 63.4497 39.9698 63.1297C40.1998 62.8097 40.2898 62.4797 40.2498 62.2097C40.1998 61.9297 39.9698 61.7497 39.4598 61.6597C39.1298 61.6097 38.9498 61.3797 38.9998 61.1097C38.9098 61.2497 38.8198 61.4297 38.7698 61.6197C38.6798 61.5697 38.6298 61.5697 38.5398 61.5297C38.2198 61.4397 37.8498 61.3497 37.4298 61.2997C37.1498 61.2997 36.9698 61.1197 36.8798 60.8397V60.9797C36.8298 61.1197 36.7898 61.2997 36.8298 61.4897C36.4598 61.2997 36.1398 61.2997 35.8598 61.6297C35.5398 61.9097 35.2098 61.9497 34.8398 61.7697C34.7898 61.9997 34.7898 62.2297 34.8898 62.4197C34.9398 62.5997 34.7998 62.7897 34.4798 62.8797C34.4298 63.0197 34.4298 63.1097 34.4298 63.2497C34.2898 63.0697 34.1498 62.9297 33.9698 62.7897C33.9198 63.0697 33.7798 63.3897 33.5098 63.6197C33.4198 63.7097 33.3698 63.7597 33.3198 63.8497C33.1798 64.0797 33.1298 64.2697 33.1298 64.4497C32.9498 63.9897 32.7598 63.5697 32.5798 63.1997C32.3998 62.9197 32.3498 62.5497 32.4398 62.1797C32.5298 61.8997 32.4898 61.5797 32.3498 61.2997C32.1198 61.4897 31.9798 61.4397 31.9298 61.2097C31.8898 60.9797 31.7498 60.7897 31.5598 60.6097C31.0998 60.3297 30.9598 59.8697 31.1398 59.2697C30.9998 59.3197 30.9098 59.3597 30.8198 59.4497C30.7298 59.3097 30.5898 59.2197 30.3998 59.1697L30.3798 59.1497ZM28.1598 65.8997C28.0698 65.9897 27.9798 66.0397 27.9298 66.1297C27.8798 65.8097 27.6998 65.8097 27.3798 66.0797C27.3298 66.1297 27.2398 66.1697 27.1498 66.2197C26.6398 66.2697 26.2298 66.5397 26.0398 67.0997C25.9998 66.7697 25.7598 66.4997 25.4398 66.3097C25.1198 66.1697 25.0698 66.2597 25.1598 66.5397C25.0698 66.4497 24.9298 66.3597 24.7898 66.3097C24.8398 65.7597 24.7498 65.3897 24.5098 65.1097C24.4198 65.0197 24.4198 64.9697 24.4198 64.8797V64.6497C24.6998 64.7897 24.8398 64.9697 24.8398 65.1997C24.9798 65.1097 25.0698 65.0197 25.1198 64.8297C25.2598 64.9197 25.3498 65.0597 25.3998 65.1997C25.5398 65.1497 25.5898 65.0597 25.6798 64.9697C25.7298 65.0597 25.8198 65.1097 25.9098 65.1997C26.0998 65.1497 26.2398 65.0597 26.3698 64.8797C26.4598 64.9697 26.5098 65.0597 26.5498 65.1997C26.6398 65.1497 26.7398 65.1097 26.7798 65.0597C26.9598 64.8297 27.0998 64.8797 27.2398 65.1997C27.5598 65.0197 27.8898 64.9197 28.1598 64.8297C28.0198 65.1997 28.0198 65.5697 28.1598 65.8897V65.8997Z" fill="#EF8F30"/>
<path d="M27.8398 76.3998C27.8398 76.3998 27.7898 76.4498 27.7898 76.4898C27.7898 76.6798 27.7498 76.7698 27.6498 76.8598C27.5598 76.9498 27.5098 76.9998 27.4698 77.0898C27.4198 77.1798 27.3798 77.2298 27.3298 77.3198C27.2798 77.4098 27.2798 77.5498 27.2798 77.6898C27.3298 77.8298 27.3698 77.9698 27.5098 78.0598C27.5998 78.1098 27.6998 78.1498 27.7898 78.1498C27.8798 78.1498 27.9798 78.1498 28.1098 78.0998C28.1998 78.0498 28.2998 78.0098 28.3898 77.9598C28.4398 77.9098 28.4798 77.8698 28.5798 77.8198C28.6298 77.7298 28.6698 77.6798 28.7198 77.5898C28.7698 77.4998 28.8098 77.4098 28.8598 77.3098C28.8598 77.1698 28.9098 77.0298 28.9498 76.8898V76.7098L29.0398 77.1698C28.9898 77.2598 28.9898 77.3098 28.9898 77.3498C28.9498 77.6298 28.7998 77.8998 28.6698 78.1398C28.4398 78.4598 28.4398 78.7898 28.7198 79.0198C28.8098 79.1598 28.9498 79.2498 29.0398 79.2998C29.0898 79.3498 29.1798 79.4398 29.3198 79.5798C29.4098 79.6698 29.4998 79.8098 29.5998 79.9998C29.6398 79.7698 29.6898 79.6298 29.7398 79.4898C29.8298 79.3498 29.9198 79.2098 30.0198 79.1198C30.0598 79.0298 30.1598 78.8898 30.2498 78.6998C30.3898 78.3798 30.2898 78.0998 30.0198 77.8698C29.8798 77.7798 29.7398 77.6398 29.6498 77.4998C29.5598 77.4098 29.5098 77.3598 29.4698 77.2698C29.4698 77.2198 29.4198 77.1798 29.4198 77.1298L29.3298 76.6198C29.3298 76.6198 29.3798 76.7098 29.4198 76.7998C29.4698 76.8898 29.5098 77.0298 29.6098 77.1698C29.6498 77.2598 29.7498 77.3498 29.7898 77.3998C29.8798 77.4498 29.9298 77.4898 30.0198 77.5398C30.1098 77.5398 30.1598 77.5898 30.2498 77.6298H30.5298C30.6198 77.5798 30.7198 77.5798 30.8098 77.5398C30.8998 77.4498 30.9998 77.3998 31.0898 77.3098C31.1298 77.2198 31.1798 77.0798 31.1798 76.9398C31.1798 76.7598 31.1298 76.6598 31.0398 76.5198C30.9898 76.4698 30.9498 76.4298 30.8998 76.3798C30.8098 76.3298 30.7198 76.2898 30.6198 76.2398C30.4798 76.2398 30.3898 76.1498 30.3398 75.9598C30.3398 75.9098 30.2898 75.8698 30.2898 75.8698C30.2898 75.8698 30.2765 75.8698 30.2498 75.8698C30.1998 75.9598 30.1998 76.0498 30.2498 76.2398C30.2498 76.3798 30.2898 76.4698 30.3898 76.5598C30.4798 76.6098 30.4798 76.6998 30.4798 76.7898C30.3898 76.9298 30.2898 76.9698 30.1598 76.9698C30.0198 76.9198 29.8398 76.8298 29.6998 76.5998C29.6498 76.5998 29.6498 76.5498 29.6098 76.5498C29.6498 76.4998 29.6998 76.4998 29.7498 76.4598C29.7898 76.4198 29.7898 76.3198 29.7898 76.2798C29.7898 76.1898 29.7498 76.1398 29.6998 76.0998C29.6498 76.0998 29.6098 76.0498 29.5598 76.0998C29.5598 76.0998 29.5598 76.0498 29.6098 76.0098C29.9798 75.2198 30.6698 75.1798 31.6498 75.7798C31.6998 75.6898 31.7398 75.5998 31.7898 75.4998C31.8398 75.3598 31.9298 75.2198 32.0698 75.1298C32.2098 75.0398 32.2998 74.9498 32.4398 74.8998C32.5298 74.8498 32.6298 74.8498 32.7198 74.8098C32.8598 74.8098 32.9498 74.8598 33.0898 74.8598C33.1798 74.9098 33.3198 74.9498 33.4598 74.9998L33.3198 75.0498H33.2698C33.2698 75.0498 33.1798 75.1398 33.1798 75.1898V75.3698C33.1798 75.3698 33.2298 75.4598 33.3198 75.5098H33.4098V75.5998C33.4098 75.8298 33.3198 76.0198 33.2698 76.0598C33.1798 76.1498 33.0898 76.1498 32.9498 76.0598C32.8998 76.0098 32.8598 75.9698 32.8998 75.9198V75.4998C32.8098 75.3598 32.7598 75.2698 32.6698 75.2198V75.2698C32.6698 75.2698 32.6198 75.3198 32.6698 75.3598C32.6698 75.4998 32.6698 75.6398 32.6198 75.7298C32.5698 75.7798 32.5298 75.8198 32.4798 75.9198V76.0998C32.4298 76.1898 32.4798 76.3298 32.5298 76.4698C32.6198 76.6098 32.6698 76.6998 32.8098 76.7498C32.8498 76.7998 32.9498 76.8398 33.0398 76.8398C33.1298 76.8398 33.2298 76.7898 33.3198 76.7898C33.3698 76.6998 33.4598 76.6498 33.5098 76.6098C33.5498 76.5598 33.5998 76.5198 33.5998 76.4698C33.6398 76.4298 33.6898 76.3298 33.6898 76.2398C33.7398 76.1498 33.7398 76.0498 33.7398 75.9598C33.6898 75.8198 33.6898 75.6798 33.6898 75.5898C33.6898 75.4998 33.6898 75.4498 33.6398 75.4098H33.6898L33.8298 75.8298C33.8798 76.0098 33.8798 76.1498 33.8798 76.2898C33.8798 76.4298 33.8298 76.5698 33.7798 76.7498C33.6898 77.0698 33.7798 77.3098 34.0598 77.4898C34.1498 77.5798 34.2898 77.6698 34.3798 77.6698C34.4198 77.7198 34.5598 77.8098 34.6998 77.8998C34.7898 77.9898 34.8798 78.0898 35.0198 78.2698V77.7598C35.0698 77.5698 35.0698 77.4798 35.1098 77.3898C35.1498 77.3398 35.1998 77.2098 35.1998 77.0698C35.2498 76.7498 35.1098 76.5098 34.8298 76.3298C34.5998 76.1898 34.3698 76.0098 34.2298 75.8198C34.1798 75.7698 34.1798 75.7298 34.1398 75.7298L33.9598 75.3098L34.0498 75.3998C34.1398 75.5398 34.2398 75.6298 34.2798 75.7198C34.3698 75.7698 34.4698 75.8598 34.5098 75.9098C34.5998 75.9598 34.6498 75.9998 34.7398 76.0498C34.7898 76.0498 34.8798 76.0498 34.9698 76.0998C35.0098 76.0498 35.1098 76.0498 35.1998 76.0498C35.2498 75.9998 35.2898 75.9998 35.3898 75.9098C35.4398 75.8598 35.4798 75.7698 35.5298 75.7198C35.5298 75.6298 35.5798 75.5298 35.5298 75.3998C35.5298 75.3998 35.5298 75.3498 35.4798 75.3098C35.4798 75.2598 35.4298 75.1698 35.3898 75.1298C35.3898 75.0798 35.3398 75.0798 35.3398 75.0398H35.2898C35.2898 75.0398 35.1998 74.9498 35.1998 74.8998C35.1098 74.8498 35.0098 74.8498 34.9198 74.8098C34.8298 74.8098 34.6898 74.7198 34.6398 74.6198C34.5898 74.5698 34.5898 74.5298 34.5498 74.5298C34.5498 74.5298 34.5331 74.5131 34.4998 74.4798C34.4998 74.5698 34.4998 74.7098 34.5898 74.7998C34.6398 74.9398 34.7298 75.0798 34.8198 75.1198C34.9098 75.1698 34.9598 75.2098 34.9098 75.2998C34.8598 75.4398 34.7698 75.4798 34.6798 75.4798H34.5398L34.4498 75.3898C34.3098 75.3398 34.2198 75.2498 34.1698 75.1598L34.2198 75.1098C34.2598 75.0198 34.2598 74.9698 34.2198 74.9298C34.2198 74.8398 34.1698 74.8398 34.1298 74.7898H33.8998C33.9498 74.5598 34.0398 74.3698 34.2198 74.2298C34.2198 74.1798 34.2598 74.1798 34.2598 74.1398L34.6298 74.0898C34.6298 74.0898 34.6798 74.2298 34.7198 74.2698C34.7698 74.4598 34.8598 74.5498 34.9998 74.6398C35.0898 74.6398 35.1898 74.6398 35.1898 74.5498C35.2798 74.6898 35.3798 74.8298 35.4698 75.0598C35.6098 75.2898 35.7498 75.4298 35.9298 75.4798C36.0698 75.7598 36.2498 76.0298 36.3898 76.3098C36.5298 76.4898 36.7098 76.6298 36.9498 76.7298C36.9898 76.6798 36.9898 76.5498 36.9498 76.3598C36.9498 76.1698 36.8998 76.0298 36.8598 75.9898C36.8098 75.8998 36.7698 75.8098 36.6698 75.6698C36.5798 75.5798 36.4898 75.4398 36.3898 75.3498C36.2998 75.2598 36.2098 75.1198 36.0698 74.9798C35.9798 74.7898 35.8798 74.6098 35.7498 74.4198C35.6598 74.2798 35.5698 74.1398 35.5198 74.0098C35.4698 73.9198 35.4298 73.9198 35.3298 73.9198C35.3298 73.9698 35.2798 73.9698 35.2798 73.9198H35.2398V73.8698C35.2798 73.7798 35.2798 73.7298 35.3298 73.6798V73.4998C35.2798 73.4098 35.2398 73.3598 35.1898 73.3198C35.1398 73.2698 35.0998 73.2298 35.0498 73.2298C35.0998 73.1398 35.1398 73.0898 35.1898 72.9998V72.5798C35.1398 72.3998 35.0998 72.2598 34.9598 72.1598L34.9998 72.1098C35.1398 72.0198 35.1898 71.8798 35.1898 71.7398C35.1398 71.5998 35.0498 71.5098 34.9098 71.5098C34.9098 71.4198 34.8598 71.3298 34.8598 71.2798C34.5398 71.3298 33.3298 71.6998 31.2498 72.3398C29.1198 73.0298 27.0898 73.4498 25.1498 73.6798C23.2098 73.8198 22.2398 73.9598 22.2398 73.9598C22.2398 74.0098 22.2398 74.0498 22.2798 74.1898C22.1398 74.2398 22.0998 74.2798 22.0998 74.4698C22.1398 74.6098 22.1898 74.6998 22.3298 74.7498C22.3798 74.7498 22.4198 74.7498 22.4698 74.7998C22.3798 74.9398 22.3298 75.1198 22.3298 75.2598C22.3798 75.3998 22.4198 75.5398 22.4698 75.6298C22.4698 75.6298 22.4831 75.6465 22.5098 75.6798C22.5098 75.6798 22.5498 75.7698 22.6498 75.8198C22.6098 75.8698 22.5598 75.9098 22.5098 75.9598V76.0498C22.5098 76.0498 22.4698 76.1398 22.4698 76.1898C22.4698 76.2798 22.5098 76.3798 22.5598 76.4698C22.5598 76.6598 22.5198 76.8398 22.5198 76.9798C22.4798 77.1198 22.4298 77.2098 22.3398 77.3498C22.2498 77.4898 22.1498 77.6298 22.1098 77.8098C21.9698 78.0398 21.8298 78.3198 21.6898 78.5998C21.5498 78.8798 21.4598 79.1998 21.5498 79.5198V79.5698C21.5998 79.7098 21.6398 79.8498 21.6898 79.9898H21.7798C21.8298 79.8498 21.8698 79.6698 21.9198 79.4398C22.0598 78.9798 22.1498 78.6498 22.1998 78.4698L22.3398 78.1898V78.1398C22.5198 77.9598 22.6198 77.7198 22.6598 77.3998H22.7098C22.7098 77.3998 22.7998 77.3998 22.8998 77.3998C22.8998 77.3998 22.9131 77.3831 22.9398 77.3498C23.0298 77.1698 23.0798 76.9298 23.0298 76.6998L22.9798 76.6498H22.9298C22.9298 76.6498 22.9298 76.5598 22.9798 76.4598L23.4398 76.3698C23.5298 76.3698 23.5798 76.4598 23.6698 76.5098C23.7198 76.5998 23.8098 76.6498 23.8598 76.7398C23.9498 76.7898 23.9998 76.8798 23.9998 76.9198H23.9498C23.9498 76.9198 23.8598 76.9198 23.8598 76.9698C23.8098 76.9698 23.8098 77.0198 23.7698 77.0198C23.7198 77.0698 23.7198 77.1098 23.7198 77.1998C23.6698 77.2498 23.7198 77.2898 23.7698 77.3398C23.7698 77.3398 23.8098 77.3398 23.8098 77.3898C23.7698 77.4798 23.7198 77.5698 23.6198 77.6698C23.6198 77.7198 23.5798 77.7598 23.5298 77.8098C23.4798 77.8598 23.4398 77.8998 23.4398 77.8998C23.2998 77.9498 23.2098 77.9498 23.1598 77.8498C23.1098 77.7598 23.1098 77.6698 23.1598 77.6198C23.2498 77.4798 23.3498 77.3898 23.3498 77.2498C23.3898 77.1098 23.3498 76.9698 23.2998 76.9298V76.9798C23.2998 76.9798 23.2498 77.0298 23.2098 77.0698C23.2098 77.2498 23.1198 77.3498 23.0198 77.3898L22.9698 77.4398C22.9698 77.4398 22.8798 77.5298 22.8298 77.6298C22.7798 77.6298 22.7398 77.6798 22.7398 77.7198L22.6898 77.7698C22.6398 77.8598 22.6398 77.9498 22.5998 78.0498V78.1898C22.5498 78.3298 22.5998 78.4198 22.6898 78.5098C22.7398 78.5598 22.7798 78.6498 22.8798 78.6498C22.9698 78.6998 23.0198 78.6498 23.1098 78.6498C23.1598 78.5998 23.2498 78.5998 23.3398 78.5598C23.4298 78.5098 23.4798 78.4698 23.5198 78.4198C23.6098 78.3698 23.6598 78.2798 23.7098 78.1898C23.7598 78.0998 23.7998 77.9998 23.8498 77.9098C23.8898 77.7698 23.9398 77.6298 23.9898 77.5398C24.0298 77.4898 24.0298 77.4498 24.0798 77.3998L24.0298 77.7198L23.9898 77.8098C23.9898 77.8098 23.9898 77.8998 23.9398 77.9898C23.9398 78.0798 23.8898 78.1798 23.8498 78.2698C23.7598 78.4098 23.6598 78.5498 23.5298 78.7298C23.2998 79.0098 23.2498 79.3298 23.3898 79.5598C23.4298 79.6998 23.5298 79.7898 23.5798 79.8798C23.6198 79.8798 23.6198 79.9298 23.6698 79.9698H24.1798C24.2698 79.8798 24.3198 79.8298 24.3698 79.7898C24.4598 79.6998 24.5598 79.5598 24.6498 79.4198C24.8798 79.0998 24.8798 78.8198 24.6498 78.5898C24.5098 78.4098 24.4198 78.1698 24.3698 77.8998V77.6698L24.4198 77.3498V77.4898C24.4698 77.6298 24.4698 77.7198 24.5098 77.8598C24.5098 77.9498 24.5598 78.0398 24.5998 78.0898C24.6498 78.1798 24.6898 78.2298 24.7398 78.2698C24.7798 78.2698 24.8298 78.3198 24.8798 78.3598H25.1098C25.1998 78.4098 25.2898 78.3598 25.3398 78.3098C25.4298 78.2598 25.5198 78.2198 25.6198 78.1298C25.6598 78.0398 25.7598 77.8998 25.7598 77.7598C25.8098 77.6198 25.7598 77.4798 25.7598 77.3898C25.7198 77.3398 25.6698 77.2998 25.6698 77.2998C25.5798 77.2098 25.5298 77.1598 25.4898 77.1098C25.3998 77.0598 25.3498 76.9698 25.3498 76.8298C25.3498 76.7798 25.3498 76.7398 25.2998 76.6898V76.6398C25.2098 76.7298 25.2098 76.8698 25.1598 77.0598C25.1598 77.1498 25.2098 77.2898 25.2498 77.3798C25.2998 77.4298 25.2998 77.4698 25.2498 77.5598C25.1598 77.6498 25.0598 77.6998 24.9698 77.6998C24.8798 77.6498 24.7798 77.5598 24.6898 77.3798C24.6898 77.3798 24.6731 77.3498 24.6398 77.2898L24.7298 77.2398C24.7698 77.1498 24.8198 77.0998 24.8198 77.0598C24.8198 76.9698 24.8198 76.9198 24.7698 76.8798C24.7698 76.8798 24.7298 76.8298 24.6798 76.8298H24.5898C24.5898 76.8298 24.6398 76.7398 24.6798 76.6898C24.7698 76.5998 24.8698 76.4998 24.9598 76.4098C25.0498 76.3598 25.1898 76.3198 25.2798 76.3198H25.3298C25.4198 76.3198 25.5098 76.3198 25.6098 76.3698C25.9298 76.4198 26.2098 76.5998 26.4898 76.8298L26.5398 76.7798C27.0498 76.0898 27.5098 75.7598 27.8798 75.8098C28.1998 75.8098 28.4298 75.9898 28.5698 76.2698C28.5198 76.3198 28.4798 76.3198 28.4798 76.3598C28.4298 76.4098 28.4298 76.4498 28.4298 76.5398C28.4298 76.5898 28.4798 76.6298 28.5198 76.6798C28.5198 76.6798 28.5498 76.6965 28.6098 76.7298C28.6098 76.8698 28.5598 76.9598 28.4698 77.0998C28.4698 77.1498 28.4198 77.1898 28.4198 77.2398C28.3698 77.2398 28.3298 77.2898 28.2298 77.3298C28.1398 77.3798 27.9998 77.3298 27.9098 77.2798C27.8598 77.1898 27.8598 77.1398 27.9098 77.0498C27.9598 76.9098 27.9998 76.7698 27.9998 76.6298C27.9598 76.4898 27.9098 76.3498 27.8598 76.3098C27.8598 76.3098 27.8465 76.3265 27.8198 76.3598L27.8398 76.3998Z" fill="#EDAC27"/>
<path d="M5.87987 42.4501H7.30987L7.39987 42.4001H10.4099L10.4999 42.4501H11.7499C11.8899 42.5901 12.0299 42.7301 12.1599 42.8701C12.3899 43.1501 12.6199 43.3801 12.7599 43.6601C13.0399 44.0301 13.2699 44.4501 13.4999 44.8201L12.3899 45.7901C12.3399 45.7001 12.2999 45.6101 12.2499 45.5101C12.1999 45.4201 12.1499 45.3701 12.1099 45.2801C11.9699 45.1901 11.8799 45.0901 11.7399 45.0001C11.5999 44.8601 11.5099 44.7701 11.3199 44.7201C11.1799 44.6701 10.9999 44.6701 10.8599 44.6301L10.8099 54.9001C11.3199 55.4601 11.8699 56.0101 12.3799 56.5201C12.6599 56.8001 12.9299 57.0701 13.2099 57.3501C13.7199 57.7701 14.2299 58.2301 14.6899 58.6901C14.5499 57.9001 14.4599 57.1601 14.4099 56.4201C14.3599 55.4501 14.4099 54.4301 14.5999 53.4101C14.7399 52.5801 14.9699 51.7001 15.2499 50.8201C15.4399 50.2601 15.6699 49.7601 15.8999 49.2001C16.0899 48.7401 16.3199 48.3201 16.5499 47.8601C16.7799 47.4401 17.0099 47.0301 17.3399 46.6101C17.5699 46.1501 17.8899 45.7801 18.2199 45.4101C18.5399 44.9901 18.9099 44.6701 19.2799 44.3501C19.6999 44.0201 20.0699 43.7901 20.4799 43.5201C20.7099 43.3801 20.9399 43.2401 21.1699 43.1001C21.6799 42.9201 22.1399 42.6801 22.6099 42.4501H25.7999C23.7699 41.6201 22.0099 40.4601 20.4799 39.0301C19.3699 37.9701 18.2999 36.8601 17.3799 35.7001C16.3199 34.3601 15.3499 32.9301 14.4699 31.4901C13.5499 29.7801 12.9399 27.9801 12.7599 26.0801L11.6499 27.1401C10.8599 28.1601 10.1199 29.2701 9.47987 30.4701C8.27987 32.6901 7.39987 35.0501 6.88987 37.5001C6.51987 39.1201 6.18987 40.7801 5.86987 42.4501H5.87987Z" fill="#E1593E"/>
<path d="M7.39991 42.4097L7.30991 42.4597L6.89991 42.7397C5.96991 43.5297 5.36991 44.0797 5.18991 44.4997C4.99991 44.7797 4.90991 44.9597 4.90991 45.0497H5.41991C5.50991 44.7297 5.83991 44.3997 6.38991 44.1297C6.98991 43.9497 7.40991 43.8997 7.68991 44.0797C7.77991 44.0297 7.91991 43.9897 8.05991 43.8997C8.33991 43.8097 8.56991 43.7097 8.84991 43.7597C9.07991 43.7597 9.30991 43.8097 9.49991 43.8497C9.77991 43.9397 10.0099 44.0297 10.1899 44.1297C10.6099 43.8997 11.0199 43.9497 11.4799 44.2197C11.9899 44.5397 12.3099 44.7697 12.3599 45.0497H12.9199C12.9199 44.9597 12.8699 44.8197 12.8199 44.6797C12.6799 44.3997 12.4999 44.1197 12.1699 43.8497C11.8499 43.5697 11.5199 43.2997 11.1499 42.9697L10.4999 42.4597L10.4099 42.4097H7.39991Z" fill="#EDAC27"/>
<path d="M20.3999 24.2797C19.7499 24.2297 19.2399 24.3697 18.9599 24.6497C18.4099 24.1397 17.9399 23.9597 17.4299 24.1397C17.1099 24.1897 16.9699 24.3197 16.9199 24.4597C16.8299 24.3197 16.6899 24.1397 16.5999 23.9997C16.2299 23.5397 15.7199 23.0797 15.0699 22.6597C14.0099 23.3997 13.5399 24.4197 13.6399 25.6197C13.7799 27.8897 14.4299 29.9697 15.7199 31.8597C16.8799 33.6197 18.1199 35.2797 19.5099 36.8497C20.7999 38.4197 22.3799 39.8097 24.0899 40.9197C26.1699 42.2097 28.3399 42.3997 30.5199 41.4697L20.3899 24.2697L20.3999 24.2797Z" fill="#1884B5"/>
<path d="M20.44 44.3499C19.79 44.8599 19.19 45.4099 18.59 46.1499C17.99 46.8399 17.53 47.6299 17.16 48.4599C16.84 49.1999 16.51 50.0799 16.19 50.9599C15.91 51.7899 15.73 52.6699 15.54 53.5499C15.4 54.3399 15.31 55.2099 15.22 56.0499C15.13 56.9699 15.22 57.8999 15.54 58.7799C15.86 59.6099 16.28 60.3999 16.88 61.1399C16.92 60.9999 16.97 60.8599 17.02 60.6799C17.11 60.6799 17.2 60.6799 17.3 60.7299C17.3 60.7299 17.33 60.7466 17.39 60.7799C17.48 60.8299 17.62 60.9199 17.71 61.0099C17.62 60.5899 17.66 60.3599 17.85 60.3599C18.13 60.7799 18.45 60.9099 18.87 60.7299C19.29 60.5499 19.75 60.6399 20.35 60.9099C20.02 54.8999 21.27 49.0299 24.14 43.2899C24.32 42.9699 23.91 42.9199 22.89 43.2399C21.97 43.5199 21.18 43.8899 20.44 44.3499Z" fill="#1884B5"/>
<path d="M10.1799 44.3C9.99993 44.21 9.75993 44.11 9.48993 44.02C9.30993 43.97 9.06993 43.97 8.83993 43.97C8.55993 43.92 8.32993 43.97 8.04993 44.06C7.90993 44.11 7.76993 44.2 7.67993 44.29L7.90993 70.33L9.24993 74.22L10.4499 70.24L10.1699 44.3H10.1799ZM9.29993 72.65C9.24993 72.83 9.20993 73.02 9.20993 73.16C9.15993 73.07 9.11993 72.88 9.02993 72.56V44.72H9.30993V72.65H9.29993Z" fill="#82919D"/>
<path d="M25.4398 55.6298V55.0298C24.4698 55.1698 23.6798 55.7698 23.1298 56.7398C22.6198 57.7598 22.3398 58.5398 22.2998 59.0998C22.2998 59.6498 22.3498 59.7498 22.5298 59.3798C22.6698 59.0098 22.8098 58.7798 22.9498 58.7298C23.0898 58.6398 23.1798 58.4098 23.2698 58.0398C23.3598 57.6698 23.5898 57.2498 23.9598 56.7898C24.3298 56.2798 24.8398 55.9098 25.4398 55.6298Z" fill="#EDAC27"/>
<path d="M5.13989 46.1998C5.13989 46.3798 5.27989 46.7598 5.50989 47.2198C5.73989 47.6798 6.01989 48.1898 6.29989 48.6998C6.43989 48.9298 6.57989 49.1598 6.71989 49.4398C6.85989 49.6698 6.99989 49.8998 7.13989 50.1298V44.4898C6.80989 44.3998 6.11989 44.9998 5.14989 46.1998H5.13989Z" fill="#E1593E"/>
<path d="M11.98 6.24023L7.44995 12.9902L11.98 19.6502L16.51 12.9402L11.98 6.24023Z" fill="#DB1A28"/>
<path d="M2.58992 4.7202C2.67992 4.8102 2.67992 4.9502 2.67992 5.1802V8.1402C2.67992 8.3202 2.67992 8.5102 2.58992 8.5602C2.54992 8.6502 2.44992 8.6502 2.21992 8.7002C2.16992 8.7902 2.16992 8.9302 2.16992 9.1202H4.01992C4.01992 8.9402 4.01992 8.8002 3.96992 8.7002C3.73992 8.6502 3.64992 8.6502 3.59992 8.5602C3.50992 8.5102 3.50992 8.3302 3.50992 8.1402V6.8002C3.54992 6.9402 3.64992 7.0802 3.82992 7.2602C4.01992 7.4402 4.19992 7.6802 4.38992 7.9102C4.56992 8.1402 4.75992 8.3702 4.89992 8.6002C5.03992 8.7902 5.17992 8.9702 5.26992 9.1502C5.44992 9.1002 5.63992 9.1002 5.86992 9.1002H6.46992C6.51992 9.0102 6.51992 8.9602 6.51992 8.8702V8.6902C6.37992 8.6402 6.23992 8.6402 6.09992 8.6002C6.00992 8.5102 5.86992 8.4602 5.77992 8.3202C5.63992 8.2302 5.54992 8.0902 5.40992 7.9502C5.31992 7.8102 5.17992 7.6702 5.07992 7.5802C4.89992 7.3002 4.70992 7.0702 4.52992 6.8402C4.38992 6.6502 4.24992 6.5102 4.06992 6.3802L5.12992 5.2202C5.26992 5.0802 5.40992 4.9902 5.49992 4.9002C5.58992 4.8502 5.63992 4.7602 5.72992 4.7602C5.77992 4.7102 5.86992 4.6702 5.91992 4.6702C6.00992 4.6202 6.10992 4.6202 6.19992 4.6202C6.24992 4.5702 6.24992 4.4802 6.24992 4.4402V4.2102H4.67992V4.4402C4.67992 4.4402 4.71992 4.5802 4.71992 4.6202H4.90992C4.90992 4.6202 4.94992 4.6702 4.94992 4.7102C4.94992 4.7102 4.94992 4.8002 4.90992 4.8502C4.85992 4.9402 4.76992 5.0302 4.67992 5.1702L3.51992 6.4602V5.1702C3.51992 4.9402 3.51992 4.8002 3.60992 4.7102C3.65992 4.6602 3.74992 4.6202 3.97992 4.6202C4.02992 4.5302 4.02992 4.3902 4.02992 4.2002H2.17992C2.17992 4.3902 2.17992 4.5202 2.22992 4.6202C2.45992 4.6202 2.54992 4.6702 2.59992 4.7102L2.58992 4.7202Z" fill="#DB1A28"/>
<path d="M2.81982 12.07L3.87982 13.64L4.89982 12.07L3.87982 10.5L2.81982 12.07Z" fill="#DB1A28"/>
<path d="M43.24 78.71V78.66L47.73 71.95L43.24 65.29L38.71 71.95L43.24 78.7V78.71Z" fill="#DB1A28"/>
<path d="M48.98 75.5704C49.17 75.6204 49.3 75.6204 49.4 75.6604C49.54 75.7504 49.63 75.8004 49.77 75.9404C49.86 76.0304 50 76.1703 50.09 76.3103C50.23 76.4503 50.32 76.5904 50.41 76.7304C50.64 76.9604 50.83 77.1903 50.96 77.4203C51.15 77.6003 51.28 77.7403 51.42 77.8803L50.36 79.0404C50.22 79.1804 50.13 79.2704 50.04 79.3604C49.95 79.4104 49.85 79.5004 49.81 79.5004C49.72 79.5504 49.67 79.5903 49.58 79.5903C49.53 79.6403 49.44 79.6404 49.3 79.6404C49.3 79.7304 49.25 79.7804 49.25 79.8704V80.1003C49.48 80.0503 49.76 80.0504 50.04 80.0504H50.45C50.59 80.0504 50.68 80.0503 50.82 80.1003V79.8704C50.82 79.7804 50.82 79.7304 50.78 79.6404H50.59C50.59 79.6404 50.55 79.5904 50.55 79.5504C50.55 79.5504 50.55 79.4604 50.59 79.4104C50.68 79.3204 50.73 79.2303 50.87 79.0903L52.03 77.8004V79.0903C52.03 79.3203 51.98 79.4604 51.94 79.5504C51.89 79.6004 51.75 79.6404 51.57 79.6404C51.52 79.7804 51.48 79.9203 51.48 80.1003C51.71 80.0503 51.85 80.0504 51.94 80.0504H52.45C52.73 80.0504 53.05 80.0503 53.37 80.1003C53.37 79.8703 53.33 79.7304 53.28 79.6404C53.1 79.6404 52.96 79.5904 52.91 79.5504C52.86 79.4604 52.82 79.3203 52.82 79.0903V76.1303C52.82 75.9503 52.86 75.7604 52.91 75.7104C52.96 75.6204 53.1 75.6204 53.28 75.5704C53.33 75.4804 53.37 75.3404 53.37 75.1504H51.47C51.47 75.3304 51.52 75.4704 51.56 75.5704C51.74 75.6204 51.88 75.6204 51.93 75.7104C51.98 75.7604 52.02 75.9403 52.02 76.1303V77.4704C51.93 77.3804 51.83 77.1904 51.7 77.0504C51.47 76.8204 51.28 76.5904 51.1 76.3604C50.92 76.1304 50.78 75.9003 50.59 75.6703C50.45 75.4903 50.36 75.3004 50.27 75.1104C50.04 75.1604 49.85 75.1604 49.67 75.1604H49.02C49.02 75.2504 49.02 75.3004 48.97 75.3904V75.5704H48.98Z" fill="#DB1A28"/>
<path d="M52.4 72.8801L51.34 71.3101L50.28 72.8801L51.34 74.4101L52.4 72.8801Z" fill="#DB1A28"/>
<path d="M53.28 1.85C52.31 0.97 51.2 0.37 49.95 0.14C49.49 0.05 48.98 0 48.42 0H6.8C6.29 0 5.74 0.05 5.28 0.14C4.03 0.37 2.92 0.97 1.99 1.85C0.65 3.1 0 4.63 0 6.38V78.61C0 80.37 0.65 81.89 1.99 83.14C3.29 84.39 4.9 84.99 6.8 84.99H48.42C50.32 84.99 51.93 84.39 53.28 83.14C54.57 81.89 55.27 80.37 55.27 78.61V6.38C55.27 4.62 54.57 3.1 53.28 1.85ZM47.96 0.51C49.81 0.51 51.34 1.16 52.68 2.36C53.97 3.61 54.62 5.09 54.62 6.85V78.16C54.62 79.92 53.97 81.4 52.68 82.65C51.34 83.85 49.81 84.45 47.96 84.5H7.31C5.42 84.45 3.89 83.85 2.55 82.65C1.25 81.4 0.61 79.92 0.61 78.16V6.85C0.61 5.09 1.26 3.61 2.55 2.36C3.89 1.16 5.42 0.51 7.31 0.51H47.96Z" fill="#C1B8B3"/>
<path d="M51.2 4.94992V42.3599H4.03V14.1999H3.75V80.2799H47.55V79.9999H4.03V42.6299H51.2V70.7899H51.48V4.66992H7.08V4.94992H51.2Z" fill="black"/>
</g>
<defs>
<clipPath id="clip0_80_290">
<rect width="55.27" height="85" fill="white"/>
</clipPath>
</defs>
</svg>
