<svg width="49" height="75" viewBox="0 0 49 75" fill="none" xmlns="http://www.w3.org/2000/svg">
<g clip-path="url(#clip0_80_180)">
<path d="M49 5.66474C49 4.07651 48.4233 2.77062 47.2345 1.62356C46.3739 0.847093 45.3891 0.361799 44.3245 0.11474C43.872 0.0353286 43.4195 -0.00878906 42.967 -0.00878906H6.06844C5.58048 -0.00878906 5.12801 0.0353286 4.67554 0.11474C3.6109 0.361799 2.62611 0.847093 1.76553 1.62356C0.612167 2.77062 0 4.07651 0 5.66474V69.3706C0 70.9236 0.612167 72.2295 1.76553 73.3677C2.95437 74.4265 4.34728 75 6.06844 75H42.9759C44.6616 75 46.0545 74.4265 47.2433 73.3677C48.4322 72.2295 49.0089 70.9236 49.0089 69.3706V5.66474H49Z" fill="#F8F3F1"/>
<path d="M44.2445 61.5439V61.5881L42.7717 63.7498L44.2445 65.8675L45.6817 63.7057L44.2445 61.5439Z" fill="#DB1A28"/>
<path d="M43.0556 66.4321H42.1951V66.591C42.1951 66.591 42.2394 66.7145 42.2394 66.7586C42.3193 66.8027 42.3636 66.8027 42.3636 66.8027C42.3991 66.8468 42.4435 66.8468 42.4435 66.8821C42.479 66.9262 42.5233 66.9615 42.5677 67.0498C42.5677 67.0939 42.6032 67.1733 42.6475 67.2968L44.0404 70.3586H44.3243L45.4688 67.341C45.5132 67.2615 45.5487 67.138 45.593 67.0939C45.6374 67.0145 45.6729 66.9704 45.6729 66.9262C45.7084 66.8821 45.7527 66.8468 45.7971 66.8027C45.7971 66.8027 45.8326 66.8027 45.9213 66.7586C45.9213 66.7145 45.9657 66.6792 45.9657 66.591V66.4321H44.8567C44.8567 66.5557 44.8567 66.6792 44.8922 66.7586C45.0607 66.8027 45.1761 66.838 45.1761 66.8821C45.2204 66.9615 45.1761 67.0851 45.0962 67.288L44.972 67.6586H44.3155C44.0316 67.7027 43.7832 67.7027 43.5791 67.7027L43.3307 67.1292C43.2863 67.0498 43.2863 67.0057 43.2508 66.9704V66.8468C43.2508 66.8468 43.2863 66.8468 43.3307 66.8027C43.375 66.8027 43.4105 66.8027 43.5347 66.7586C43.5347 66.7145 43.5791 66.6792 43.5791 66.6351V66.4321H43.0468H43.0556ZM44.4929 68.9204C44.4486 69.0439 44.4131 69.1233 44.3687 69.2468C44.3687 69.291 44.3243 69.3704 44.3243 69.4498V69.4057C44.3243 69.4057 44.28 69.3262 44.2445 69.2821C44.2445 69.238 44.209 69.2027 44.209 69.1145C44.1647 69.0351 44.1647 68.991 44.1292 68.9557L43.721 68.0204H44.8655L44.4929 68.9204Z" fill="#DB1A28"/>
<path d="M24.4777 26.7529V26.797L17.2205 37.5265L24.4777 48.2118L31.7794 37.5265L24.4777 26.7618V26.7529Z" fill="#DB1A28"/>
<path d="M4.50685 4.52647C4.38264 4.52647 4.3028 4.52647 4.22295 4.57059L3.0341 7.54412C2.98974 7.66765 2.95425 7.74706 2.90989 7.82647C2.90989 7.87059 2.86553 7.95 2.83005 7.98529C2.83005 8.02941 2.78569 8.06471 2.7502 8.06471C2.71471 8.10882 2.67035 8.10882 2.62599 8.10882C2.58163 8.18824 2.58163 8.23235 2.54614 8.26765V8.47059C2.67035 8.47059 2.7502 8.47059 2.83005 8.42647H3.36237C3.44221 8.42647 3.56642 8.42647 3.69063 8.47059C3.69063 8.31177 3.65514 8.18824 3.61078 8.1C3.44221 8.1 3.36237 8.05588 3.32688 7.97647C3.32688 7.93235 3.32688 7.77353 3.40673 7.60588L3.56642 7.2H4.95932L5.20774 7.72941C5.20774 7.80882 5.2521 7.89706 5.2521 7.93235C5.28759 7.97647 5.28759 8.01176 5.2521 8.01176C5.2521 8.05588 5.20774 8.05588 5.20774 8.05588C5.16338 8.1 5.08353 8.1 5.00368 8.1C4.95932 8.17941 4.95932 8.22353 4.95932 8.25882V8.46176H5.12789C5.12789 8.46176 5.2521 8.46176 5.28759 8.41765H5.98847C5.98847 8.41765 6.11268 8.46176 6.15704 8.46176H6.3611C6.3611 8.38235 6.3611 8.30294 6.31674 8.25882C6.31674 8.21471 6.31674 8.17941 6.28125 8.1C6.23689 8.1 6.2014 8.1 6.15704 8.05588C6.15704 8.05588 6.11268 8.01176 6.07719 8.01176C6.07719 7.96765 6.04171 7.88824 5.99735 7.84412C5.95299 7.76471 5.9175 7.68529 5.87314 7.59706L4.51572 4.5L4.50685 4.52647ZM4.38264 5.95588L4.83512 6.85588H3.69063L4.06325 6C4.10761 5.87647 4.1431 5.75294 4.18746 5.67353C4.18746 5.59412 4.23182 5.50588 4.23182 5.42647V5.50588C4.23182 5.50588 4.27618 5.55 4.31167 5.58529C4.31167 5.62941 4.34716 5.70882 4.34716 5.74412C4.34716 5.82353 4.39152 5.90294 4.39152 5.94706L4.38264 5.95588Z" fill="#DB1A28"/>
<path d="M4.34726 9.25586V9.29998L2.87451 11.4617L4.34726 13.5794L5.78452 11.4176L4.34726 9.25586Z" fill="#DB1A28"/>
<path d="M44.3245 0.123529C43.872 0.0441176 43.4195 0 42.967 0H6.06844C5.58048 0 5.12801 0.0441176 4.67554 0.123529C3.6109 0.370588 2.62611 0.855882 1.76553 1.63235C0.612167 2.77059 0 4.07647 0 5.66471V69.3706C0 70.9235 0.612167 72.2294 1.76553 73.3676C2.95437 74.4265 4.34728 75 6.06844 75H42.9759C44.6616 75 46.0545 74.4265 47.2433 73.3676C48.4322 72.2294 49.0089 70.9235 49.0089 69.3706V5.66471C49.0089 4.07647 48.4322 2.77059 47.2433 1.62353C46.3828 0.847059 45.398 0.361765 44.3333 0.114706L44.3245 0.123529ZM42.5146 0.494118C44.1559 0.494118 45.5488 1.02353 46.6933 2.12647C47.8378 3.18529 48.4144 4.49118 48.4144 6.04412V68.9735C48.4144 70.5265 47.8378 71.8324 46.6933 72.8912C45.5488 73.95 44.1559 74.5235 42.5146 74.5235H6.47655C4.83523 74.5235 3.44233 73.95 2.28897 72.8912C1.14449 71.8324 0.567807 70.5265 0.567807 68.9735V6.03529C0.567807 4.48235 1.14449 3.18529 2.28897 2.11765C3.43346 1.01471 4.83523 0.485294 6.47655 0.485294H42.5146V0.494118Z" fill="#C1B8B3"/>
</g>
<defs>
<clipPath id="clip0_80_180">
<rect width="49" height="75" fill="white"/>
</clipPath>
</defs>
</svg>
