<svg width="49" height="76" viewBox="0 0 49 76" fill="none" xmlns="http://www.w3.org/2000/svg">
<g clip-path="url(#clip0_80_63)">
<path d="M48.97 5.7C48.97 4.1 48.36 2.79 47.17 1.64C46.35 0.86 45.33 0.37 44.26 0.12C43.85 0.04 43.4 0 42.91 0H6.02C5.57 0 5.08 0.04 4.67 0.12C3.56 0.37 2.58 0.86 1.76 1.64C0.57 2.79 0 4.1 0 5.7V69.71C0 71.27 0.57 72.58 1.76 73.73C2.91 74.79 4.34 75.37 6.02 75.37H42.9C44.58 75.37 46.01 74.8 47.16 73.73C48.35 72.58 48.96 71.27 48.96 69.71V5.7H48.97Z" fill="#F8F3F1"/>
<path d="M42.5801 67.01C42.6201 67.13 42.6201 67.3 42.6201 67.42C42.6601 67.58 42.6601 67.75 42.6601 67.99C42.7801 68.03 42.9501 68.07 43.1101 68.07C43.1501 67.91 43.1501 67.82 43.1501 67.74C43.1901 67.7 43.1901 67.66 43.2301 67.66C43.2301 67.62 43.2701 67.62 43.3101 67.62H44.5001C44.3401 67.7 44.2101 67.83 44.0501 67.99C43.8901 68.07 43.8001 68.19 43.6801 68.32C43.5201 68.48 43.3901 68.61 43.2701 68.69C43.1901 68.81 43.1101 68.89 43.0701 69.02C42.9901 69.14 42.9501 69.22 42.9101 69.35C42.8701 69.43 42.8701 69.55 42.8701 69.68C42.8701 69.84 42.9101 70.01 42.9901 70.17C43.0301 70.29 43.1501 70.42 43.2801 70.5C43.3601 70.58 43.4901 70.62 43.6501 70.66C43.7701 70.7 43.9001 70.7 44.0201 70.7H44.4301C44.5501 70.66 44.6801 70.66 44.7601 70.62C44.8801 70.62 44.9701 70.58 45.0501 70.54C45.1301 70.46 45.2601 70.42 45.3401 70.33V69.27C45.3401 69.27 45.2201 69.19 45.1301 69.19H44.8401C44.8001 69.6 44.7201 69.85 44.6301 69.97C44.5101 70.09 44.4201 70.13 44.2201 70.17C44.1801 70.13 44.1001 70.13 44.0201 70.09C43.9801 70.09 43.9001 70.05 43.8501 69.97C43.8101 69.93 43.7701 69.85 43.7301 69.81C43.6901 69.73 43.6901 69.65 43.6901 69.6C43.6901 69.48 43.6901 69.35 43.7301 69.27C43.7701 69.19 43.7701 69.06 43.8501 68.98C43.8901 68.9 43.9701 68.78 44.0601 68.69C44.1001 68.57 44.2201 68.49 44.3001 68.4C44.5101 68.2 44.7101 67.99 44.9201 67.78C45.0801 67.62 45.3301 67.41 45.5801 67.17C45.5801 67.09 45.5801 67.01 45.5401 66.97C45.5401 66.89 45.5001 66.81 45.4601 66.77H42.8801C42.8001 66.77 42.7601 66.77 42.6801 66.81C42.6801 66.85 42.6401 66.93 42.6001 67.01H42.5801Z" fill="#DB1A28"/>
<path d="M20.98 12.21L24.3 17.17L27.66 12.21L24.3 7.25L20.98 12.21Z" fill="#DB1A28"/>
<path d="M24.63 67.6197L27.99 62.6997L24.63 57.7397L21.27 62.6997L24.63 67.6597V67.6197Z" fill="#DB1A28"/>
<path d="M44.18 65.8196L45.57 63.7296L44.18 61.6396L42.75 63.7296L44.18 65.8196Z" fill="#DB1A28"/>
<path d="M3.65008 4.66982C3.57008 4.70982 3.45008 4.74982 3.36008 4.78982C3.28008 4.82982 3.16008 4.90982 3.07008 4.99982V6.06982C3.15008 6.10982 3.23008 6.10982 3.32008 6.14982H3.61008C3.65008 5.73982 3.69008 5.48982 3.82008 5.36982C3.90008 5.24982 4.02008 5.15982 4.23008 5.15982C4.27008 5.15982 4.35008 5.19982 4.39008 5.19982C4.47008 5.23982 4.51008 5.27982 4.56008 5.31982C4.64008 5.39982 4.68008 5.43982 4.68008 5.51982C4.72008 5.55982 4.72008 5.63982 4.72008 5.71982C4.72008 5.83982 4.72008 5.91982 4.68008 6.00982C4.68008 6.12982 4.64008 6.21982 4.60008 6.29982C4.52008 6.41982 4.48008 6.49982 4.39008 6.62982C4.31008 6.70982 4.23008 6.78982 4.15008 6.91982C3.90008 7.07982 3.70008 7.28982 3.53008 7.48982C3.32008 7.64982 3.12008 7.89982 2.83008 8.14982C2.83008 8.22982 2.83008 8.26982 2.87008 8.34982C2.87008 8.42982 2.91008 8.46982 2.99008 8.54982H3.24008C3.36008 8.50982 3.49008 8.50982 3.57008 8.50982H4.88008C5.08008 8.50982 5.33008 8.50982 5.53008 8.54982C5.61008 8.54982 5.70008 8.50982 5.74008 8.46982C5.78008 8.42982 5.82008 8.38982 5.86008 8.30982C5.82008 8.14982 5.78008 8.01982 5.78008 7.85982V7.32982C5.66008 7.24982 5.49008 7.24982 5.29008 7.24982C5.29008 7.36982 5.29008 7.44982 5.25008 7.53982C5.25008 7.57982 5.21008 7.61982 5.21008 7.65982C5.21008 7.65982 5.17008 7.67316 5.09008 7.69982H3.94008C4.10008 7.57982 4.23008 7.44982 4.35008 7.32982C4.51008 7.20982 4.64008 7.07982 4.76008 6.95982C4.88008 6.83982 5.05008 6.70982 5.13008 6.58982C5.25008 6.50982 5.29008 6.38982 5.38008 6.29982C5.42008 6.17982 5.50008 6.04982 5.50008 5.96982C5.54008 5.84982 5.54008 5.75982 5.54008 5.63982C5.54008 5.42982 5.50008 5.26982 5.46008 5.14982C5.38008 5.02982 5.30008 4.89982 5.17008 4.81982C5.05008 4.73982 4.92008 4.65982 4.80008 4.60982C4.64008 4.60982 4.51008 4.56982 4.39008 4.56982C4.27008 4.56982 4.15008 4.56982 4.02008 4.60982C3.90008 4.60982 3.77008 4.64982 3.65008 4.64982V4.66982Z" fill="#DB1A28"/>
<path d="M5.66009 11.2697L4.27009 9.17969L2.84009 11.2697L4.27009 13.3597L5.66009 11.2697Z" fill="#DB1A28"/>
<path d="M44.26 0.12C43.85 0.04 43.4 0 42.91 0H6.02C5.57 0 5.08 0.04 4.67 0.12C3.56 0.37 2.58 0.86 1.76 1.64C0.57 2.79 0 4.1 0 5.7V69.71C0 71.27 0.57 72.58 1.76 73.73C2.91 74.79 4.34 75.37 6.02 75.37H42.9C44.58 75.37 46.01 74.8 47.16 73.73C48.35 72.58 48.96 71.27 48.96 69.71V5.7C48.96 4.1 48.35 2.79 47.16 1.64C46.34 0.86 45.32 0.37 44.25 0.12H44.26ZM42.46 0.49C44.1 0.49 45.49 1.02 46.68 2.13C47.79 3.19 48.4 4.51 48.4 6.06V69.3C48.4 70.86 47.79 72.17 46.68 73.23C45.49 74.29 44.1 74.87 42.46 74.87H6.48C4.8 74.87 3.45 74.3 2.26 73.23C1.11 72.16 0.54 70.85 0.54 69.3V6.07C0.54 4.51 1.11 3.2 2.26 2.14C3.44 1.02 4.79 0.49 6.48 0.49H42.46Z" fill="#C1B8B3"/>
</g>
<defs>
<clipPath id="clip0_80_63">
<rect width="48.97" height="75.37" fill="white"/>
</clipPath>
</defs>
</svg>
