<svg width="49" height="76" viewBox="0 0 49 76" fill="none" xmlns="http://www.w3.org/2000/svg">
<g clip-path="url(#clip0_80_73)">
<path d="M48.98 5.66C48.98 4.1 48.36 2.75 47.18 1.64C46.36 0.82 45.34 0.33 44.27 0.12C43.86 0 43.41 0 42.92 0H6.03C5.58 0 5.09 0 4.68 0.12C3.57 0.32 2.59 0.82 1.77 1.64C0.57 2.75 0 4.1 0 5.66V69.68C0 71.24 0.57 72.59 1.76 73.7C2.91 74.81 4.34 75.34 6.02 75.34H42.9C44.58 75.34 46.02 74.81 47.16 73.7C48.35 72.59 48.96 71.24 48.96 69.68V5.66H48.98Z" fill="#F8F3F1"/>
<path d="M24.63 67.6197L27.99 62.6997L24.63 57.7397L21.27 62.6997L24.63 67.6197Z" fill="#DB1A28"/>
<path d="M44.18 65.8201L45.57 63.6901L44.18 61.6001L42.75 63.7301L44.18 65.8201Z" fill="#DB1A28"/>
<path d="M43.7701 67.4599C43.8501 67.3799 43.8901 67.3399 43.9801 67.2599C44.0601 67.2199 44.1401 67.1799 44.2701 67.1399H44.8401C44.9201 67.1799 45.0101 67.2199 45.1301 67.2599C45.1701 67.2199 45.2101 67.1399 45.2501 67.0999C45.2901 67.0199 45.2901 66.9399 45.3301 66.8499C45.2501 66.8099 45.1201 66.7299 44.9201 66.6899C44.8001 66.6499 44.6301 66.6499 44.4301 66.6499C44.1001 66.6499 43.8601 66.6899 43.6501 66.7299C43.4001 66.8099 43.2401 66.8899 43.0801 67.0199C42.9201 67.0999 42.7901 67.2699 42.7101 67.4299C42.6301 67.5499 42.5901 67.7599 42.5901 67.9199C42.5901 68.5399 42.9601 68.8199 43.6201 68.8199C43.5001 69.0199 43.2901 69.2699 43.1701 69.4799C42.9701 69.7299 42.8401 69.9299 42.6801 70.0899V70.3399C42.7201 70.4199 42.7601 70.4999 42.8001 70.5899H43.0101C43.0901 70.5899 43.2101 70.5899 43.3001 70.5499H44.6101C44.6901 70.5899 44.7701 70.5899 44.9001 70.5899H45.1501V69.6099C45.1501 69.4899 45.1501 69.4099 45.1901 69.2799C45.1501 69.2399 45.0701 69.1999 44.9401 69.1999C44.8601 69.1599 44.7801 69.1599 44.6901 69.1599C44.6501 69.2799 44.6501 69.3599 44.6101 69.4099C44.6101 69.4899 44.5301 69.5299 44.5301 69.5299C44.4901 69.5699 44.4101 69.6099 44.3301 69.6099H43.7101C43.8301 69.4899 43.9101 69.3199 44.0801 69.1599C44.2001 68.9999 44.3301 68.8299 44.4901 68.6299C44.5301 68.5899 44.4901 68.5099 44.4901 68.4199C44.4501 68.3399 44.4101 68.2999 44.3301 68.2199C44.3301 68.2599 44.2901 68.2599 44.2901 68.2599H44.1201C44.0001 68.2599 43.9201 68.2199 43.8301 68.1399C43.7501 68.0599 43.7101 67.9299 43.7101 67.8099C43.7101 67.6899 43.7101 67.5999 43.7901 67.4799L43.7701 67.4599Z" fill="#DB1A28"/>
<path d="M20.98 12.21L24.3 17.17V17.13L27.66 12.21L24.3 7.25L20.98 12.21Z" fill="#DB1A28"/>
<path d="M24.4701 42.6197V42.5797L27.8301 37.6597L24.4701 32.6997L21.1101 37.6597L24.4701 42.6197Z" fill="#DB1A28"/>
<path d="M3.57009 4.66992H3.32009V5.32992C3.32009 5.44992 3.32009 5.52992 3.28009 5.65992V5.94992C3.28009 5.94992 3.40009 6.02992 3.48009 6.06992H3.77009C3.81009 5.94992 3.85009 5.90992 3.85009 5.81992C3.89009 5.73992 3.93009 5.73992 3.97009 5.69992C4.01009 5.65992 4.05009 5.65992 4.13009 5.61992H4.74009C4.62009 5.73992 4.49009 5.94992 4.37009 6.06992C4.25009 6.22992 4.12009 6.43992 3.96009 6.59992C3.96009 6.67992 3.96009 6.75992 4.00009 6.79992C4.00009 6.87992 4.04009 6.95992 4.12009 7.00992C4.12009 6.96992 4.16009 6.96992 4.20009 6.96992H4.32009C4.44009 6.96992 4.53009 7.04992 4.61009 7.12992C4.69009 7.16992 4.73009 7.28992 4.73009 7.45992C4.73009 7.53992 4.69009 7.66992 4.65009 7.74992C4.57009 7.82992 4.53009 7.90992 4.45009 7.94992C4.37009 7.98992 4.29009 8.06992 4.20009 8.06992C4.08009 8.10992 4.00009 8.10992 3.91009 8.10992C3.79009 8.10992 3.71009 8.10992 3.58009 8.06992C3.50009 8.06992 3.42009 7.98992 3.29009 7.94992C3.25009 7.98992 3.21009 8.06992 3.17009 8.15992C3.13009 8.19992 3.13009 8.27992 3.09009 8.35992C3.17009 8.39992 3.29009 8.47992 3.46009 8.51992C3.62009 8.55992 3.79009 8.59992 3.99009 8.59992C4.32009 8.59992 4.56009 8.55992 4.77009 8.47992C5.02009 8.39992 5.18009 8.35992 5.34009 8.18992C5.50009 8.10992 5.63009 7.98992 5.71009 7.77992C5.79009 7.65992 5.83009 7.48992 5.83009 7.28992C5.83009 6.71992 5.46009 6.42992 4.80009 6.38992C4.92009 6.18992 5.09009 5.93992 5.25009 5.72992C5.46009 5.51992 5.58009 5.31992 5.74009 5.11992C5.74009 5.03992 5.74009 4.95992 5.70009 4.86992C5.70009 4.78992 5.66009 4.70992 5.62009 4.66992H3.53009H3.57009Z" fill="#DB1A28"/>
<path d="M5.65008 11.2301L4.26008 9.14014L2.83008 11.2701L4.26008 13.3201L5.65008 11.2301Z" fill="#DB1A28"/>
<path d="M44.26 0.12C43.85 0 43.4 0 42.91 0H6.03C5.58 0 5.09 0 4.68 0.12C3.57 0.32 2.59 0.82 1.77 1.64C0.57 2.75 0 4.1 0 5.66V69.68C0 71.24 0.57 72.59 1.76 73.7C2.91 74.81 4.34 75.34 6.02 75.34H42.9C44.58 75.34 46.02 74.81 47.16 73.7C48.35 72.59 48.96 71.24 48.96 69.68V5.66C48.96 4.1 48.34 2.75 47.16 1.64C46.34 0.82 45.32 0.33 44.25 0.12H44.26ZM42.5 0.45C44.1 0.45 45.49 1.02 46.68 2.09C47.79 3.2 48.4 4.51 48.4 6.06V69.26C48.4 70.82 47.78 72.13 46.68 73.23C45.49 74.3 44.1 74.83 42.5 74.87H6.48C4.8 74.83 3.45 74.3 2.26 73.23C1.11 72.12 0.54 70.81 0.54 69.26V6.07C0.54 4.51 1.11 3.2 2.26 2.1C3.44 1.02 4.79 0.45 6.48 0.45H42.5Z" fill="#C1B8B3"/>
</g>
<defs>
<clipPath id="clip0_80_73">
<rect width="48.98" height="75.33" fill="white"/>
</clipPath>
</defs>
</svg>
