<svg width="49" height="76" viewBox="0 0 49 76" fill="none" xmlns="http://www.w3.org/2000/svg">
<g clip-path="url(#clip0_80_84)">
<path d="M48.97 5.7C48.97 4.1 48.36 2.79 47.17 1.64C46.35 0.86 45.33 0.37 44.26 0.12C43.85 0.04 43.4 0 42.91 0H6.02C5.57 0 5.08 0.04 4.67 0.12C3.56 0.37 2.58 0.86 1.76 1.64C0.57 2.79 0 4.1 0 5.7V69.72C0 71.28 0.57 72.59 1.76 73.74C2.91 74.81 4.34 75.38 6.02 75.38H42.9C44.58 75.38 46.02 74.81 47.16 73.74C48.35 72.59 48.96 71.28 48.96 69.72V5.7H48.97Z" fill="#F8F3F1"/>
<path d="M2.41991 6.75995C2.41991 6.87995 2.45991 7.04995 2.45991 7.16995C2.49991 7.32995 2.57991 7.45995 2.61991 7.57995C2.90991 7.57995 3.10991 7.57995 3.35991 7.53995H4.17991V8.19995C4.17991 8.31995 4.17991 8.39995 4.21991 8.44995C4.21991 8.48995 4.25991 8.52995 4.25991 8.52995C4.25991 8.52995 4.28658 8.55661 4.33991 8.60995C4.33991 8.60995 4.45991 8.56995 4.49991 8.52995C4.61991 8.52995 4.69991 8.48995 4.78991 8.48995C4.94991 8.44995 5.11991 8.44995 5.31991 8.44995V7.54995H5.84991V7.34995C5.84991 7.26995 5.84991 7.22995 5.88991 7.14995C5.88991 7.10995 5.88991 7.02995 5.92991 6.98995C5.92991 6.90995 5.96991 6.86995 6.00991 6.77995C5.92991 6.69995 5.88991 6.65995 5.84991 6.65995C5.76991 6.61995 5.72991 6.57995 5.64991 6.57995H5.31991V4.48995C5.02991 4.48995 4.73991 4.44995 4.45991 4.48995C4.41991 4.52995 4.37991 4.56995 4.33991 4.60995C4.21991 4.76995 4.04991 4.89995 3.88991 5.09995C3.67991 5.34995 3.47991 5.58995 3.22991 5.87995C3.18991 5.95995 3.14991 6.03995 3.05991 6.07995C3.05991 6.11995 3.01991 6.11995 3.01991 6.15995C2.93991 6.23995 2.85991 6.31995 2.81991 6.36995C2.73991 6.44995 2.69991 6.52995 2.60991 6.56995C2.56991 6.64995 2.48991 6.72995 2.40991 6.76995L2.41991 6.75995ZM4.17991 5.44995V6.59995H3.27991L4.17991 5.44995Z" fill="#DB1A28"/>
<path d="M5.65984 11.2702L4.26984 9.18018L2.83984 11.2702L4.26984 13.3602L5.65984 11.2702Z" fill="#DB1A28"/>
<path d="M42.58 67.4999V67.9099C42.58 67.9099 42.54 68.0299 42.54 68.0699C42.5 68.1499 42.46 68.1899 42.46 68.2799C42.5 68.3599 42.54 68.3999 42.62 68.4399C42.66 68.4799 42.74 68.4799 42.82 68.4799H43.11V70.5699C43.4 70.5699 43.68 70.6099 44.01 70.5699C44.05 70.5299 44.09 70.4899 44.13 70.4499C44.25 70.2899 44.42 70.1599 44.58 69.9599C44.79 69.7099 44.99 69.4699 45.2 69.1799C45.28 69.0999 45.32 69.0599 45.4 68.9699C45.4 68.9699 45.4 68.9299 45.44 68.8899C45.48 68.8099 45.56 68.7299 45.64 68.6799C45.68 68.5999 45.72 68.5599 45.8 68.4799C45.88 68.4399 45.92 68.3599 46.01 68.2699C46.01 68.1499 46.01 67.9799 45.97 67.8599C45.93 67.6999 45.89 67.5699 45.81 67.4499C45.52 67.4499 45.32 67.4499 45.11 67.4899H44.29V66.8299C44.29 66.7099 44.29 66.6299 44.25 66.5799C44.25 66.5399 44.25 66.4999 44.21 66.4999C44.21 66.4599 44.17 66.4599 44.13 66.4199C44.09 66.4599 44.01 66.4599 43.93 66.4999C43.85 66.4999 43.77 66.5399 43.68 66.5399C43.48 66.5799 43.31 66.5799 43.11 66.5799V67.4799H42.58V67.4999ZM44.3 69.5899V68.4799H45.16L44.3 69.5899Z" fill="#DB1A28"/>
<path d="M44.18 65.8201L45.57 63.7301L44.18 61.6401L42.74 63.7301L44.18 65.8201Z" fill="#DB1A28"/>
<path d="M34.9599 7.45996L31.6399 12.42L34.9599 17.38L38.3199 12.42L34.9599 7.45996Z" fill="#DB1A28"/>
<path d="M13.6498 7.45996L10.3298 12.42L13.6498 17.38L17.0098 12.42L13.6498 7.45996Z" fill="#DB1A28"/>
<path d="M17.3399 62.9097L13.9799 57.9497L10.6199 62.9097L13.9799 67.8697V67.8297L17.3399 62.9097Z" fill="#DB1A28"/>
<path d="M38.6499 62.9097L35.2899 57.9497L31.9299 62.9097L35.2899 67.8697V67.8297L38.6499 62.9097Z" fill="#DB1A28"/>
<path d="M44.26 0.12C43.85 0.04 43.4 0 42.91 0H6.02C5.57 0 5.08 0.04 4.67 0.12C3.56 0.37 2.58 0.86 1.76 1.64C0.57 2.79 0 4.1 0 5.7V69.72C0 71.28 0.57 72.59 1.76 73.74C2.91 74.81 4.34 75.38 6.02 75.38H42.9C44.58 75.38 46.02 74.81 47.16 73.74C48.35 72.59 48.96 71.28 48.96 69.72V5.7C48.96 4.1 48.35 2.79 47.16 1.64C46.34 0.86 45.32 0.37 44.25 0.12H44.26ZM42.46 0.49C44.1 0.49 45.49 1.02 46.68 2.13C47.79 3.2 48.4 4.51 48.4 6.06V69.3C48.4 70.86 47.79 72.17 46.68 73.23C45.49 74.3 44.1 74.87 42.46 74.87H6.48C4.8 74.87 3.45 74.3 2.26 73.23C1.11 72.16 0.54 70.85 0.54 69.3V6.07C0.54 4.51 1.11 3.2 2.26 2.14C3.44 1.02 4.8 0.49 6.48 0.49H42.46Z" fill="#C1B8B3"/>
</g>
<defs>
<clipPath id="clip0_80_84">
<rect width="48.97" height="75.37" fill="white"/>
</clipPath>
</defs>
</svg>
