<svg width="49" height="76" viewBox="0 0 49 76" fill="none" xmlns="http://www.w3.org/2000/svg">
<g clip-path="url(#clip0_80_96)">
<path d="M48.97 5.7C48.97 4.1 48.4 2.79 47.21 1.64C46.35 0.86 45.37 0.37 44.3 0.12C43.85 0.04 43.4 0 42.95 0H6.07C5.58 0 5.13 0.04 4.68 0.12C3.61 0.37 2.63 0.86 1.77 1.64C0.61 2.79 0 4.1 0 5.7V69.71C0 71.27 0.61 72.62 1.76 73.73C2.95 74.84 4.34 75.37 6.06 75.37H42.95C44.63 75.37 46.02 74.84 47.21 73.73C48.4 72.62 48.97 71.27 48.97 69.71V5.7Z" fill="#F8F3F1"/>
<path d="M35.0001 7.45996L31.6401 12.42L35.0001 17.38L38.3601 12.42L35.0001 7.45996Z" fill="#DB1A28"/>
<path d="M44.22 65.8196L45.61 63.7296L44.22 61.6396L42.79 63.7296L44.22 65.8196Z" fill="#DB1A28"/>
<path d="M13.6901 7.45996L10.3301 12.42L13.6901 17.38L17.0501 12.42L13.6901 7.45996Z" fill="#DB1A28"/>
<path d="M5.70012 11.2697L4.31012 9.17969L2.87012 11.2697L4.31012 13.3597L5.70012 11.2697Z" fill="#DB1A28"/>
<path d="M17.3402 62.9097L13.9802 57.9497L10.6602 62.9097L13.9802 67.8697L17.3402 62.9097Z" fill="#DB1A28"/>
<path d="M42.9901 67.1297C42.8701 67.3397 42.8301 67.5797 42.8301 67.7897C42.8301 67.9997 42.8701 68.1597 42.9501 68.3197C42.9901 68.4797 43.0701 68.6097 43.2401 68.7297C43.4001 68.8497 43.6101 68.9797 43.8501 69.0597C44.1001 69.1397 44.4701 69.1797 44.8301 69.2697L44.7501 69.5997H44.1301C43.8801 69.6397 43.6001 69.6397 43.2701 69.6397C43.0601 69.6397 42.9801 69.6797 42.9401 69.8497V71.0397C43.0201 71.0397 43.0601 70.9997 43.1901 70.9597H43.4801C43.4401 70.8797 43.4801 70.7597 43.5201 70.7097C43.6001 70.6297 43.6401 70.5897 43.7201 70.6297H45.0301L45.4001 68.7897C45.4001 68.7097 45.3601 68.6297 45.3201 68.5797C45.3201 68.5397 45.2801 68.4197 45.2001 68.3797C44.9501 68.3397 44.7501 68.2597 44.6301 68.2597C44.4701 68.1797 44.3401 68.1397 44.2601 68.0597C44.1801 68.0197 44.0901 67.9397 44.0901 67.8497C44.0501 67.7697 44.0101 67.6897 44.0101 67.5997C44.0101 67.3997 44.0901 67.2297 44.2601 67.1097C44.4201 66.9897 44.6301 66.9497 44.8301 66.9497C44.9901 66.9497 45.1201 66.9497 45.2001 66.9897C45.2401 66.9897 45.2801 66.9897 45.3201 67.0297C45.3601 66.9497 45.4001 66.9097 45.4401 66.8197C45.4401 66.7397 45.4801 66.6997 45.4801 66.5697C45.3601 66.5297 45.2801 66.4897 45.1101 66.4897C45.0301 66.4497 44.8201 66.4497 44.6201 66.4497C44.4201 66.4497 44.1701 66.4497 44.0001 66.4897C43.7501 66.5697 43.5501 66.6497 43.3901 66.7397C43.2301 66.8597 43.0601 66.9897 42.9801 67.1497L42.9901 67.1297Z" fill="#DB1A28"/>
<path d="M3.69019 4.42977C3.61019 4.42977 3.49019 4.38977 3.40019 4.38977L3.03019 6.27977C3.03019 6.35977 3.03019 6.43977 3.07019 6.47977C3.11019 6.55977 3.15019 6.59977 3.19019 6.68977C3.44019 6.76977 3.64019 6.76977 3.80019 6.80977C3.96019 6.88977 4.09019 6.96977 4.17019 7.01977C4.25019 7.05977 4.33019 7.13977 4.33019 7.21977C4.37019 7.25977 4.37019 7.38977 4.37019 7.42977C4.37019 7.62977 4.33019 7.79977 4.21019 7.91977C4.01019 8.03977 3.84019 8.07977 3.59019 8.07977C3.43019 8.07977 3.30019 8.07977 3.22019 8.03977H3.06019C3.06019 8.03977 2.98019 8.11977 2.98019 8.19977C2.94019 8.27977 2.94019 8.35977 2.94019 8.44977C3.02019 8.48977 3.15019 8.52977 3.27019 8.56977C3.39019 8.60977 3.56019 8.60977 3.80019 8.60977C4.01019 8.60977 4.25019 8.56977 4.42019 8.52977C4.67019 8.44977 4.83019 8.40977 5.04019 8.27977C5.20019 8.19977 5.33019 8.02977 5.45019 7.86977C5.53019 7.66977 5.57019 7.45977 5.57019 7.25977C5.57019 7.00977 5.57019 6.84977 5.49019 6.76977C5.45019 6.56977 5.32019 6.43977 5.16019 6.31977C4.99019 6.15977 4.79019 6.06977 4.54019 5.98977C4.29019 5.90977 3.97019 5.82977 3.60019 5.77977L3.68019 5.40977H4.30019C4.51019 5.40977 4.79019 5.36977 5.16019 5.40977C5.32019 5.40977 5.41019 5.32977 5.45019 5.19977V4.62977C5.45019 4.37977 5.49019 4.21977 5.49019 4.05977C5.41019 4.01977 5.32019 4.05977 5.24019 4.05977C5.12019 4.05977 5.04019 4.09977 4.95019 4.09977C4.95019 4.17977 4.95019 4.25977 4.91019 4.34977C4.83019 4.38977 4.75019 4.42977 4.66019 4.42977H3.68019H3.69019Z" fill="#DB1A28"/>
<path d="M38.6502 62.9097L35.2902 57.9497L31.9702 62.9097L35.2902 67.8697L38.6502 62.9097Z" fill="#DB1A28"/>
<path d="M24.5101 42.6197L27.8701 37.6997L24.5101 32.7397L21.1501 37.6997L24.5101 42.6197Z" fill="#DB1A28"/>
<path d="M44.3 0.12C43.85 0.04 43.4 0 42.95 0H6.07C5.58 0 5.13 0.04 4.68 0.12C3.61 0.37 2.63 0.86 1.77 1.64C0.61 2.79 0 4.1 0 5.7V69.71C0 71.27 0.61 72.62 1.76 73.73C2.95 74.84 4.34 75.37 6.06 75.37H42.95C44.63 75.37 46.02 74.84 47.21 73.73C48.4 72.62 48.97 71.27 48.97 69.71V5.7C48.97 4.1 48.4 2.79 47.21 1.64C46.35 0.86 45.37 0.37 44.3 0.12ZM42.5 0.49C44.14 0.49 45.53 1.02 46.68 2.13C47.83 3.2 48.4 4.51 48.4 6.06V69.3C48.4 70.86 47.83 72.17 46.68 73.28C45.53 74.35 44.14 74.88 42.5 74.88H6.48C4.84 74.88 3.45 74.35 2.3 73.28C1.15 72.17 0.58 70.86 0.58 69.3V6.07C0.58 4.51 1.15 3.2 2.3 2.14C3.44 1.03 4.84 0.49 6.48 0.49H42.5Z" fill="#C1B8B3"/>
</g>
<defs>
<clipPath id="clip0_80_96">
<rect width="48.97" height="75.37" fill="white"/>
</clipPath>
</defs>
</svg>
