<svg width="49" height="76" viewBox="0 0 49 76" fill="none" xmlns="http://www.w3.org/2000/svg">
<g clip-path="url(#clip0_80_109)">
<path d="M48.97 5.66C48.97 4.1 48.36 2.75 47.17 1.64C46.35 0.86 45.33 0.33 44.26 0.12C43.85 0.04 43.4 0 42.91 0H6.02C5.57 0 5.08 0.04 4.67 0.12C3.57 0.33 2.58 0.86 1.76 1.64C0.57 2.75 0 4.1 0 5.66V69.68C0 71.24 0.57 72.59 1.76 73.7C2.91 74.81 4.34 75.34 6.02 75.34H42.9C44.58 75.34 46.02 74.81 47.16 73.7C48.35 72.59 48.96 71.24 48.96 69.68V5.66H48.97Z" fill="#F8F3F1"/>
<path d="M34.9601 7.45996L31.6401 12.42L34.9601 17.38V17.34L38.3201 12.42L34.9601 7.45996Z" fill="#DB1A28"/>
<path d="M44.18 65.8201L45.57 63.6901L44.18 61.6001L42.75 63.7301L44.18 65.8201Z" fill="#DB1A28"/>
<path d="M13.6501 7.45996L10.3301 12.42L13.6501 17.38V17.34L17.0101 12.42L13.6501 7.45996Z" fill="#DB1A28"/>
<path d="M5.66009 11.2301L4.27009 9.14014L2.84009 11.2701L4.27009 13.3201L5.66009 11.2301Z" fill="#DB1A28"/>
<path d="M43.85 66.7599C43.64 66.7999 43.44 66.8799 43.28 66.9599C43.08 67.0799 42.99 67.2499 42.87 67.4099C42.79 67.6199 42.71 67.8199 42.71 68.1099C42.67 68.4799 42.83 68.7199 43.08 68.9699C43.28 69.1699 43.61 69.2599 44.06 69.2599C44.27 69.2599 44.47 69.2199 44.64 69.1799C44.64 69.1799 44.6666 69.1666 44.72 69.1399C44.68 69.2999 44.64 69.4699 44.52 69.6299C44.4 69.7899 44.23 69.9599 44.07 70.0799C43.86 70.1999 43.62 70.2899 43.29 70.3699V70.6199C43.33 70.6999 43.37 70.7799 43.41 70.8699C43.57 70.8299 43.78 70.7899 43.98 70.7499C44.14 70.7099 44.35 70.6699 44.51 70.5899C44.71 70.5099 44.92 70.4299 45.08 70.2999C45.29 70.1399 45.45 69.9699 45.57 69.8099C45.73 69.5999 45.82 69.3999 45.94 69.1099C46.02 68.8999 46.06 68.6199 46.06 68.3299C46.06 67.9999 46.02 67.7599 45.94 67.5899C45.86 67.3399 45.73 67.1799 45.61 67.0599C45.44 66.9399 45.28 66.8599 45.08 66.8099C44.88 66.7299 44.63 66.6899 44.42 66.6899C44.21 66.6899 44.01 66.7299 43.85 66.7699V66.7599ZM44.06 67.4199C44.1 67.2999 44.23 67.2599 44.39 67.2599C44.51 67.2599 44.64 67.3399 44.72 67.5499C44.8 67.7099 44.84 67.9599 44.84 68.3299C44.84 68.4499 44.84 68.5799 44.8 68.6999C44.76 68.7399 44.72 68.7399 44.68 68.7399C44.64 68.7799 44.6 68.7799 44.52 68.7799C44.36 68.7799 44.23 68.6999 44.11 68.5799C44.03 68.4199 43.99 68.2099 43.99 67.9699C43.95 67.7199 43.99 67.5599 44.07 67.4399L44.06 67.4199Z" fill="#DB1A28"/>
<path d="M3.52004 4.96012C3.32004 5.08012 3.15004 5.25012 3.03004 5.45012C2.91004 5.61012 2.79004 5.86012 2.70004 6.11012C2.58004 6.36012 2.54004 6.64012 2.54004 6.93012C2.54004 7.22012 2.58004 7.46012 2.70004 7.67012C2.74004 7.88012 2.86004 8.04012 2.99004 8.20012C3.15004 8.32012 3.32004 8.41012 3.57004 8.45012C3.73004 8.49012 3.98004 8.53012 4.22004 8.53012C4.38004 8.53012 4.59004 8.53012 4.79004 8.49012C4.95004 8.45012 5.16004 8.37012 5.32004 8.24012C5.49004 8.16012 5.65004 7.99012 5.73004 7.79012C5.85004 7.63012 5.90004 7.38012 5.90004 7.13012C5.90004 6.76012 5.78004 6.47012 5.57004 6.27012C5.32004 6.06012 5.00004 5.94012 4.54004 5.94012C4.34004 5.94012 4.13004 5.98012 3.97004 6.06012C3.93004 6.06012 3.93004 6.10012 3.89004 6.10012C3.93004 5.89012 4.01004 5.73012 4.10004 5.61012C4.22004 5.40012 4.39004 5.24012 4.55004 5.16012C4.76004 5.04012 5.00004 4.91012 5.29004 4.87012C5.33004 4.75012 5.33004 4.67012 5.29004 4.62012C5.29004 4.50012 5.25004 4.46012 5.21004 4.37012C5.05004 4.41012 4.84004 4.41012 4.68004 4.45012C4.48004 4.49012 4.31004 4.57012 4.11004 4.61012C3.90004 4.69012 3.70004 4.82012 3.54004 4.94012L3.52004 4.96012ZM3.77004 6.93012C3.77004 6.81012 3.77004 6.68012 3.81004 6.56012C3.85004 6.52012 3.89004 6.52012 3.93004 6.52012C4.01004 6.48012 4.05004 6.48012 4.10004 6.48012C4.26004 6.48012 4.39004 6.56012 4.51004 6.68012C4.59004 6.80012 4.63004 7.01012 4.67004 7.29012C4.67004 7.49012 4.63004 7.66012 4.55004 7.78012C4.51004 7.90012 4.39004 7.98012 4.26004 7.98012C4.13004 7.98012 4.01004 7.86012 3.89004 7.69012C3.81004 7.53012 3.77004 7.28012 3.77004 6.91012V6.93012Z" fill="#DB1A28"/>
<path d="M38.6499 62.9102L35.2899 57.9102L31.9299 62.9102L35.2899 67.8302L38.6499 62.9102Z" fill="#DB1A28"/>
<path d="M17.3401 62.9102L13.9801 57.9102L10.6201 62.9102L13.9801 67.8302L17.3401 62.9102Z" fill="#DB1A28"/>
<path d="M35.2899 42.5802L38.6499 37.6602L35.2899 32.7002L31.9299 37.6602L35.2899 42.6202V42.5802Z" fill="#DB1A28"/>
<path d="M13.9801 42.5802L17.3401 37.6602L13.9801 32.7002L10.6201 37.6602L13.9801 42.6202V42.5802Z" fill="#DB1A28"/>
<path d="M44.26 0.12C43.85 0.04 43.4 0 42.91 0H6.02C5.57 0 5.08 0.04 4.67 0.12C3.57 0.33 2.58 0.86 1.76 1.64C0.57 2.75 0 4.1 0 5.66V69.68C0 71.24 0.57 72.59 1.76 73.7C2.91 74.81 4.34 75.34 6.02 75.34H42.9C44.58 75.34 46.02 74.81 47.16 73.7C48.35 72.59 48.96 71.24 48.96 69.68V5.66C48.96 4.1 48.35 2.75 47.16 1.64C46.34 0.86 45.32 0.33 44.25 0.12H44.26ZM42.46 0.45C44.1 0.45 45.49 1.02 46.68 2.09C47.79 3.2 48.4 4.51 48.4 6.07V69.27C48.4 70.83 47.78 72.14 46.68 73.25C45.49 74.31 44.1 74.85 42.46 74.89H6.48C4.8 74.85 3.45 74.32 2.26 73.25C1.11 72.14 0.54 70.83 0.54 69.27V6.07C0.54 4.51 1.11 3.2 2.26 2.09C3.44 1.02 4.79 0.45 6.48 0.45H42.46Z" fill="#C1B8B3"/>
</g>
<defs>
<clipPath id="clip0_80_109">
<rect width="48.97" height="75.33" fill="white"/>
</clipPath>
</defs>
</svg>
