<svg width="49" height="76" viewBox="0 0 49 76" fill="none" xmlns="http://www.w3.org/2000/svg">
<g clip-path="url(#clip0_80_123)">
<path d="M48.98 5.7C48.98 4.1 48.36 2.79 47.18 1.64C46.36 0.86 45.34 0.37 44.27 0.12C43.86 0.04 43.41 0 42.92 0H6.03C5.58 0 5.09 0.04 4.68 0.12C3.57 0.37 2.59 0.86 1.77 1.64C0.57 2.79 0 4.1 0 5.7V69.71C0 71.27 0.57 72.58 1.76 73.73C2.91 74.79 4.34 75.37 6.02 75.37H42.9C44.58 75.37 46.02 74.8 47.16 73.73C48.35 72.58 48.96 71.27 48.96 69.71V5.7H48.98Z" fill="#F8F3F1"/>
<path d="M34.9601 7.5L31.6401 12.42L34.9601 17.38L38.3201 12.42L34.9601 7.5Z" fill="#DB1A28"/>
<path d="M35.2902 42.6202L38.6502 37.7002L35.2902 32.7402L31.9302 37.7002L35.2902 42.6202Z" fill="#DB1A28"/>
<path d="M38.6502 62.9102L35.2902 57.9502L31.9302 62.9102L35.2902 67.8702V67.8302L38.6502 62.9102Z" fill="#DB1A28"/>
<path d="M44.18 65.8201L45.57 63.7301L44.18 61.6401L42.75 63.7301L44.18 65.8201Z" fill="#DB1A28"/>
<path d="M5.66009 11.2702L4.27009 9.18018L2.84009 11.2702L4.27009 13.3602L5.66009 11.2702Z" fill="#DB1A28"/>
<path d="M13.9801 42.6202L17.3401 37.7002L13.9801 32.7402L10.6201 37.7002L13.9801 42.6202Z" fill="#DB1A28"/>
<path d="M17.3401 62.9102L13.9801 57.9502L10.6201 62.9102L13.9801 67.8702V67.8302L17.3401 62.9102Z" fill="#DB1A28"/>
<path d="M44.8002 67.8701C44.9202 67.5001 45.0002 67.1301 45.0002 66.7201C45.0002 66.6001 44.9602 66.4701 44.9202 66.3501C44.8802 66.3101 44.8402 66.3101 44.8002 66.3101C44.6402 66.3501 44.4702 66.4301 44.3102 66.5201C44.1102 66.5601 43.9002 66.6401 43.7002 66.7201V67.5801C43.7002 67.7801 43.6602 67.9901 43.6602 68.1501C43.5802 68.4401 43.5002 68.6401 43.4602 68.9301C43.3802 69.1401 43.2502 69.3401 43.1702 69.5401C43.0102 69.7901 42.8402 70.0701 42.6802 70.3201V70.6501C42.7202 70.7301 42.7202 70.7701 42.7602 70.7701C42.7602 70.8501 42.8002 70.8901 42.8002 70.8901H45.5002C45.5002 70.6001 45.5002 70.3201 45.5402 70.0701V69.5401C45.5402 69.5401 45.5402 69.4601 45.5002 69.4201C45.4202 69.3801 45.2502 69.3401 45.0102 69.3401C44.9302 69.3801 44.9302 69.4201 44.8902 69.5101C44.7702 69.5901 44.7302 69.6701 44.6802 69.6701L43.6102 69.7901C43.7302 69.6301 43.8602 69.4601 43.9802 69.2601C44.1002 69.1001 44.2302 68.8901 44.3102 68.6901C44.4302 68.5701 44.5202 68.4001 44.6002 68.2401C44.6402 68.1201 44.7202 67.9901 44.8102 67.8701H44.8002Z" fill="#DB1A28"/>
<path d="M3.12015 4.43018V5.25018C3.08015 5.41018 3.08015 5.58018 3.08015 5.78018C3.04015 5.82018 3.08015 5.86018 3.16015 5.86018C3.20015 5.90018 3.37015 5.94018 3.61015 5.98018C3.69015 5.90018 3.73015 5.86018 3.77015 5.82018C3.85015 5.70018 3.93015 5.66018 3.98015 5.61018L5.00015 5.49018C4.88015 5.65018 4.76015 5.86018 4.67015 6.06018C4.55015 6.22018 4.42015 6.39018 4.34015 6.59018C4.26015 6.71018 4.17015 6.88018 4.05015 7.04018C3.97015 7.16018 3.93015 7.29018 3.84015 7.45018C3.68015 7.78018 3.59015 8.15018 3.64015 8.56018C3.64015 8.72018 3.64015 8.81018 3.68015 8.93018C3.72015 8.97018 3.76015 8.97018 3.80015 8.97018C4.01015 8.93018 4.17015 8.85018 4.33015 8.77018C4.54015 8.73018 4.70015 8.65018 4.90015 8.57018C4.90015 8.32018 4.90015 8.00018 4.94015 7.71018C4.94015 7.51018 4.94015 7.30018 4.98015 7.14018C5.02015 6.89018 5.10015 6.65018 5.19015 6.40018C5.27015 6.19018 5.35015 5.99018 5.48015 5.78018C5.60015 5.49018 5.81015 5.25018 5.97015 4.96018C5.97015 4.84018 5.97015 4.76018 5.93015 4.63018C5.93015 4.59018 5.93015 4.55018 5.89015 4.51018C5.85015 4.47018 5.85015 4.43018 5.85015 4.43018H3.10015H3.12015Z" fill="#DB1A28"/>
<path d="M13.6501 7.5L10.3301 12.42L13.6501 17.38L17.0101 12.42L13.6501 7.5Z" fill="#DB1A28"/>
<path d="M21.1101 24.75L24.4701 29.71V29.67L27.8301 24.75L24.4701 19.79L21.1101 24.75Z" fill="#DB1A28"/>
<path d="M44.26 0.12C43.85 0.04 43.4 0 42.91 0H6.03C5.58 0 5.09 0.04 4.68 0.12C3.57 0.37 2.59 0.86 1.77 1.64C0.57 2.79 0 4.1 0 5.7V69.71C0 71.27 0.57 72.58 1.76 73.73C2.91 74.79 4.34 75.37 6.02 75.37H42.9C44.58 75.37 46.02 74.8 47.16 73.73C48.35 72.58 48.96 71.27 48.96 69.71V5.7C48.96 4.1 48.34 2.79 47.16 1.64C46.34 0.86 45.32 0.37 44.25 0.12H44.26ZM42.46 0.49C44.1 0.49 45.49 1.02 46.68 2.13C47.79 3.2 48.4 4.51 48.4 6.06V69.3C48.4 70.86 47.78 72.17 46.68 73.23C45.49 74.3 44.1 74.87 42.46 74.87H6.48C4.8 74.87 3.45 74.3 2.26 73.23C1.11 72.16 0.54 70.85 0.54 69.3V6.07C0.54 4.51 1.11 3.2 2.26 2.14C3.44 1.02 4.8 0.49 6.48 0.49H42.46Z" fill="#C1B8B3"/>
</g>
<defs>
<clipPath id="clip0_80_123">
<rect width="48.98" height="75.37" fill="white"/>
</clipPath>
</defs>
</svg>
