<svg width="56" height="85" viewBox="0 0 56 85" fill="none" xmlns="http://www.w3.org/2000/svg">
<g clip-path="url(#clip0_80_234)">
<path d="M53.25 1.85C52.28 0.97 51.17 0.42 49.92 0.14C49.46 0.05 48.95 0 48.39 0H6.8C6.29 0 5.74 0.05 5.28 0.14C4.03 0.42 2.92 0.97 2 1.85C0.65 3.14 0 4.62 0 6.43V78.63C0 80.39 0.65 81.87 1.99 83.16C3.28 84.36 4.9 85.01 6.79 85.01H48.39C50.28 85.01 51.9 84.36 53.24 83.16C54.54 81.87 55.23 80.39 55.23 78.63V6.43C55.23 4.63 54.53 3.15 53.24 1.85H53.25Z" fill="#F8F3F1"/>
<path d="M37.9901 8.4098C38.0801 8.2698 38.1801 8.1798 38.3101 8.1298H38.3501C38.4401 8.0798 38.5401 8.0398 38.6301 7.8998C40.2001 7.1098 41.1301 6.6998 41.3601 6.7398C41.3601 6.4598 40.4801 6.3698 38.5901 6.4198C38.9101 5.8198 39.2801 5.2698 39.5601 4.7998H32.0701C34.0101 6.3298 35.5801 7.7998 36.8301 9.4198C37.0601 9.3698 37.1601 9.2798 37.2001 8.9998C37.2901 8.9098 37.4301 8.8198 37.5701 8.7198C37.8001 8.7698 37.8901 8.6298 37.9401 8.3998H37.9801L37.9901 8.4098Z" fill="#EDAC27"/>
<path d="M31.15 4.8498C31.15 4.8498 31.1 4.8498 31.1 4.7998H26.06C26.06 4.7998 26.01 4.8498 25.97 4.8498C25.69 5.0298 25.41 5.2198 25.14 5.4498C24.4 5.9998 24.03 6.6498 24.03 7.3398C23.71 7.7598 23.57 8.2198 23.61 8.6798C23.57 9.0998 23.52 9.4698 23.38 9.7898C23.1 10.5798 22.87 11.3198 22.69 12.1498C22.46 12.8898 22.65 13.6798 23.24 14.4098C23.24 15.0098 23.15 15.6598 22.92 16.2098C22.64 16.8098 22.6 17.4598 22.78 18.0098C22.82 18.2898 22.96 18.5198 23.1 18.7998C23.1 18.7998 23.1 18.8498 23.15 18.8498C23.61 19.8698 23.38 20.5098 22.46 20.7398C22.78 20.9698 23.11 21.0598 23.48 21.0198C23.2 21.3398 23.25 21.6198 23.62 21.9398C23.44 22.1298 23.16 22.2598 22.74 22.3598C22.55 22.5898 22.42 22.6398 22.23 22.4998C22.23 22.8698 22.37 23.1898 22.69 23.4198C23.15 23.3298 23.61 23.0998 24.12 22.8198C24.63 22.5398 25.18 22.3098 25.78 22.2198C26.24 22.0798 26.7 22.0398 27.21 22.0798C27.21 21.6198 27.21 21.1598 27.25 20.6898V19.8598C26.28 19.6798 25.59 18.9398 25.08 17.6398C24.48 15.9798 24.15 14.6798 24.2 13.8498C24.2 13.0598 24.15 12.3298 24.06 11.6298C24.01 11.3098 24.01 10.9798 24.01 10.6098C24.47 10.1498 24.75 9.6898 24.84 9.1298C24.98 8.6198 24.98 8.0698 24.93 7.5098C24.98 7.4198 25.07 7.3698 25.16 7.2798C25.3 7.1398 25.48 7.0498 25.67 6.9598C25.85 6.9098 25.95 6.8198 26.04 6.7298C26.59 6.6798 26.96 6.4098 27.15 5.8998C27.34 6.4998 27.8 6.8198 28.44 6.8698C28.53 6.8698 28.67 6.8698 28.81 6.8198C29.04 7.1898 29.37 7.4698 29.92 7.6098C30.2 7.6998 30.38 7.6998 30.57 7.5598C30.38 8.1598 30.57 8.6198 31.12 8.8498C31.21 8.8998 31.31 8.9398 31.35 8.9398C31.9 9.4998 32.09 10.2298 31.86 11.1598C31.68 12.0898 31.96 12.7798 32.78 13.3798C33.52 13.8898 33.57 14.3998 32.92 14.9998C32.78 15.0898 32.74 15.3198 32.78 15.6498C32.83 16.2998 33.11 16.8998 33.52 17.4498C33.19 17.7298 33.06 17.9598 33.1 18.2398C33.19 19.1198 32.96 19.3498 32.36 18.9298C32.32 19.2098 32.4 19.4398 32.54 19.5798C32.59 19.6298 32.63 19.6698 32.63 19.6698L32.68 19.7198L32.77 19.7698C33.19 19.9998 33.6 20.0498 33.93 19.9098C33.79 20.4598 33.88 21.0198 34.25 21.5698C34.62 22.0798 35.13 22.3098 35.77 22.3598C36.56 22.3598 36.74 22.7298 36.42 23.3298C36.23 23.6098 36 23.7898 35.82 23.8898C36.33 23.8898 36.84 23.7498 37.35 23.5698C37.72 23.3798 37.9 23.1098 38 22.7798V22.4598C38.05 22.5498 38.05 22.6398 38.09 22.7398C38.09 23.0198 38 23.4298 37.77 23.9398C37.58 24.2598 37.54 24.6298 37.58 24.9598C37.63 25.0498 37.63 25.1398 37.67 25.2398C37.81 25.6098 38.09 25.8398 38.5 26.0698C38.36 24.8698 38.91 24.1298 40.25 23.8498C41.13 23.6598 41.64 23.1598 41.87 22.2798C41.92 21.9598 41.96 21.6298 42.05 21.2598V20.5698C42.1 19.9698 41.87 19.4098 41.36 18.9098C40.9 18.8198 40.62 18.5898 40.66 18.2198C40.66 17.5698 40.47 17.1098 40.01 16.7898C39.55 16.4198 39.27 15.9598 39.27 15.3098C39.22 15.1298 39.13 15.0298 38.95 14.9898C38.58 14.9398 38.35 14.7098 38.35 14.3398C38.35 13.7398 38.21 13.1798 38.03 12.6798C37.8 12.1698 37.57 11.6598 37.34 11.1998C37.15 10.8798 36.97 10.5498 36.83 10.1798C35.63 9.1198 34.89 8.3798 34.52 7.9598C34.15 7.5898 33.78 7.2198 33.37 6.8998C33 6.4798 32.58 6.1598 32.17 5.7898C31.8 5.5098 31.43 5.1898 31.11 4.8598L31.15 4.8498Z" fill="#EF8F30"/>
<path d="M28.24 17.01C28.38 16.87 28.61 16.73 28.79 16.59C28.61 16.68 28.33 16.54 28 16.26C27.68 15.94 27.35 15.94 27.03 16.26C26.8 15.98 26.52 16.03 26.24 16.26C26.01 16.54 25.83 16.63 25.73 16.63C25.92 16.68 26.01 16.77 26.1 16.91C26.1 16.96 26.14 17 26.19 17.05C26.47 17.47 26.88 17.6 27.44 17.47C27.72 17.42 27.99 17.24 28.23 17.01H28.24Z" fill="#B6220E"/>
<path d="M42.89 22.7397C42.8 22.9297 42.66 23.1597 42.52 23.3897C42.24 23.7097 41.92 23.9897 41.55 24.1797C41.46 24.2297 41.32 24.2697 41.23 24.3197C41.05 24.4097 40.81 24.4997 40.58 24.6397C40.12 24.8697 39.7 25.1897 39.38 25.6097V25.6597C39.8 26.3097 40.21 26.9997 40.72 27.6497C41.23 28.3897 41.55 29.1297 41.69 29.9597V30.1497C41.83 30.9397 41.83 31.6697 41.69 32.4597V32.6397C41.55 33.5197 41.23 34.2597 40.77 34.9497C40.54 35.3197 40.35 35.6397 40.17 36.0097C40.13 36.0997 40.08 36.1897 40.03 36.3297C39.89 36.6097 39.75 36.9297 39.66 37.2497C39.43 38.0397 39.38 38.9097 39.48 39.8797C39.62 40.8497 39.76 41.5897 39.94 42.2797V42.3297H36.01C36.01 42.3297 35.97 42.3797 36.01 42.4197H47.29V42.3297H47.8V42.4197H49.19V42.1397C49.28 40.7497 49.33 39.3197 49.37 37.8897C49.32 36.4597 49.23 35.0197 49 33.5397C48.82 32.1497 48.4 30.8097 47.85 29.4697C47.3 28.1797 46.65 26.8797 45.91 25.7297C45.12 24.4797 44.15 23.4597 42.91 22.7197L42.89 22.7397Z" fill="#1884B5"/>
<path d="M37.58 25.6099C37.4 25.8399 37.21 26.0199 37.03 26.2099C36.43 26.8099 35.83 27.3699 35.23 27.8699C34.77 28.3299 34.26 28.7999 33.7 29.2099C33.24 29.5799 32.78 29.9499 32.31 30.3199C31.76 30.7399 31.16 31.1499 30.51 31.5199C29.82 31.8899 29.13 31.8899 28.43 31.4299C27.74 31.0599 27.04 30.5499 26.44 29.9499C25.89 29.3999 25.38 28.8399 24.91 28.2899C24.4 27.5999 23.89 26.8999 23.43 26.1599C23.06 25.6099 22.69 24.9999 22.28 24.3999C21.35 24.9999 20.66 25.7899 20.15 26.7599C19.97 27.1299 19.83 27.5499 19.69 27.9199C19.55 28.2899 19.46 28.6599 19.36 29.0299C19.27 29.2599 19.22 29.4899 19.18 29.7199C19.08 30.1399 19.04 30.5499 18.95 30.9199C18.77 32.2599 18.86 33.5999 19.27 34.8899C19.64 35.9999 20.06 37.1599 20.56 38.2199C20.88 38.9099 21.02 39.6499 21.02 40.4399C21.02 40.8999 21.02 41.3199 20.97 41.7799C20.97 41.9599 20.92 42.1499 20.92 42.3399V42.4299H35.99C35.99 42.4299 35.95 42.3799 35.99 42.3399H38.67V42.1999C38.39 41.1399 38.25 40.1199 38.3 39.0599C38.3 38.3699 38.44 37.7699 38.81 37.1199C39.46 35.9199 40.06 34.6199 40.57 33.3299C40.85 32.5399 40.99 31.7599 41.03 30.8799C41.03 30.4599 40.98 30.0899 40.94 29.6799C40.85 29.3499 40.76 29.0299 40.57 28.7999C39.97 27.9199 39.51 26.9999 39.09 25.9799L38.81 26.7699C38.62 26.6799 38.53 26.5899 38.4 26.4899C38.26 26.3999 38.12 26.2599 37.98 26.1199C37.84 25.9399 37.7 25.7999 37.56 25.6099H37.58Z" fill="#E1593E"/>
<path d="M38.7302 42.3397C38.7302 42.3397 38.6802 42.2497 38.6802 42.1997V42.3397H38.7302Z" fill="#EE4A60"/>
<path d="M47.29 42.4298H47.8V42.3398H47.29V42.4298Z" fill="#497A4B"/>
<path d="M7.68017 42.3399H8.14017C9.25017 37.1599 10.7702 32.4499 12.6202 28.2399C12.4802 28.1499 12.3402 28.0599 12.2502 27.9199C10.3502 32.3599 8.78017 37.2099 7.67017 42.3399H7.68017Z" fill="#497A4B"/>
<path d="M8.14 42.3397H6.25V42.4297H16.6V42.3397H19.42C19.42 42.0597 19.42 41.7797 19.47 41.4597C19.47 41.0397 19.47 40.6297 19.51 40.2097V37.6197C19.47 37.1597 19.33 36.6897 19.05 36.3297C18.77 35.9597 18.59 35.5397 18.4 35.1697C18.26 34.7997 18.17 34.3797 18.17 33.9697C18.12 33.9197 18.12 33.8797 18.12 33.8297C18.12 33.2797 18.12 32.7697 18.08 32.2597C17.94 30.4997 18.31 28.8397 19.19 27.3097C19.98 25.9197 20.94 24.7197 22.05 23.6597C21.86 23.7997 21.63 23.9397 21.4 24.0797C20.2 24.8197 19.18 25.7397 18.3 26.8097C17.42 27.8697 16.77 28.9797 16.27 30.1797C15.81 31.3797 15.21 32.4897 14.51 33.6497C14.37 33.7897 14.28 33.9297 14.19 34.1097C14.1 34.2497 13.96 34.4297 13.87 34.6197C13.78 34.7997 13.64 34.9897 13.55 35.2697C13.5 35.4597 13.41 35.6897 13.41 35.9197C13.32 36.3397 13.32 36.7097 13.32 37.1697V38.3697C13.32 38.7897 13.32 39.1997 13.23 39.6197C13.19 40.0297 13.05 40.4497 12.91 40.8697C12.72 41.3297 12.54 41.8397 12.36 42.3497H8.15L8.14 42.3397Z" fill="#1884B5"/>
<path d="M16.6001 42.3398V42.4298H20.9401V42.3398H16.6001Z" fill="#EE4A60"/>
<path d="M33.88 22.6897C33.46 23.2897 33.05 23.7097 32.63 23.9797C32.17 24.2097 31.8 24.3997 31.47 24.5297C31.61 24.7097 31.7 24.9897 31.75 25.2697C32.17 24.9497 32.58 24.5697 33 24.1597C33.37 23.7897 33.69 23.2797 33.88 22.6797V22.6897Z" fill="#EDAC27"/>
<path d="M29.9102 23.71V23.76L28.4302 25.98L29.9102 28.2L31.3902 25.94L29.9102 23.72V23.71Z" fill="#DB1A28"/>
<path d="M28.2401 25.3797C28.1901 25.1497 28.2901 24.9197 28.4701 24.7297C28.0501 24.6397 27.6801 24.4497 27.4101 24.1297C26.9501 23.7097 26.6201 23.3397 26.3501 22.9297C26.5801 23.7597 27.0001 24.4497 27.6001 25.0097C27.7801 25.1897 28.0201 25.2897 28.2501 25.3797H28.2401Z" fill="#EDAC27"/>
<path d="M47.7501 49.5498C47.3801 49.1298 47.0601 48.5798 46.7801 47.7898C46.6401 49.2198 47.2001 50.2398 48.4401 50.8898C48.4901 49.2698 47.9301 48.0198 46.8701 47.2798C47.0601 48.1598 47.3301 48.9398 47.7501 49.5498Z" fill="#497A4B"/>
<path d="M47.47 42.5698H47.01C45.9 47.7898 44.38 52.5098 42.53 56.6698C42.67 56.7598 42.81 56.8998 42.9 57.0398C44.79 52.5998 46.37 47.7498 47.47 42.5698Z" fill="#497A4B"/>
<path d="M47.0101 42.5698H48.9101H35.7401V43.4898C35.6901 43.9098 35.6901 44.2798 35.6901 44.7398C35.6401 45.1598 35.6401 45.5698 35.6401 46.0298C35.6401 46.4498 35.6401 46.9098 35.6901 47.3198C35.6901 47.7798 35.8301 48.1998 36.1101 48.6098C36.3901 48.9798 36.5701 49.3498 36.7601 49.7598C36.9001 50.1298 36.9901 50.5498 37.0401 50.9598V51.0998C37.0401 51.6098 37.0401 52.1198 37.0801 52.6698C37.2201 54.3798 36.8501 56.0398 35.9701 57.6198C35.1801 59.0098 34.2101 60.2098 33.1001 61.2698C33.2901 61.1298 33.5201 60.9898 33.7501 60.8498C34.9501 60.1098 35.9701 59.1898 36.9001 58.1198C37.7301 57.0598 38.3801 55.9498 38.8901 54.7498C39.4001 53.5498 39.9501 52.3898 40.6501 51.2798C40.7901 51.1398 40.8801 50.9598 40.9701 50.8198C41.1101 50.6798 41.2001 50.4998 41.2901 50.3098C41.4301 50.1198 41.5201 49.8898 41.6101 49.6598C41.6601 49.4298 41.7501 49.2498 41.7501 49.0098C41.8401 48.5998 41.8401 48.1798 41.8401 47.7598V46.5598C41.8401 46.1398 41.8401 45.7298 41.9301 45.3098C41.9801 44.8898 42.1101 44.4798 42.2501 44.0598C42.4401 43.5498 42.6201 43.0398 42.8001 42.5298H47.0001L47.0101 42.5698Z" fill="#1884B5"/>
<path d="M34.1101 44.4696C34.1101 44.0496 34.1101 43.6396 34.1601 43.1796C34.1601 42.9996 34.2001 42.8096 34.2501 42.5796H16.4601V42.7196C16.7401 43.7796 16.8801 44.8496 16.8801 45.9096C16.8301 46.5596 16.6901 47.1996 16.3301 47.8096C15.6801 49.0596 15.0801 50.2996 14.5701 51.6496C14.2901 52.4396 14.1501 53.2196 14.1101 54.0996C14.1101 54.4696 14.1601 54.8896 14.2001 55.2496C14.2901 55.6196 14.3801 55.8996 14.5701 56.1696C15.1701 57.0496 15.6301 57.9696 16.0501 58.9396L16.3301 58.1996C16.5101 58.2896 16.6501 58.3796 16.7501 58.4796C16.9301 58.5696 17.0301 58.7096 17.1701 58.8496C17.3101 58.9896 17.4501 59.1796 17.5801 59.3096C17.7701 59.1296 17.9501 58.9396 18.1301 58.7096C18.7301 58.1496 19.3301 57.5996 19.9301 57.0396C20.3901 56.5796 20.9001 56.1596 21.4601 55.7496C21.9201 55.3796 22.3901 55.0096 22.8901 54.6396C23.4001 54.1796 24.0001 53.7596 24.6501 53.3896C25.3901 53.0696 26.0801 53.0696 26.7301 53.4796C27.4201 53.8896 28.1201 54.3996 28.7201 54.9996C29.2801 55.5096 29.7801 56.0596 30.2501 56.6196C30.8001 57.3196 31.2701 58.0496 31.7301 58.7496C32.1001 59.3496 32.4701 59.9496 32.8901 60.5096C33.8101 59.9096 34.5101 59.1696 35.0101 58.1996C35.2001 57.7796 35.3301 57.4096 35.5201 56.9996C35.6101 56.6296 35.7001 56.2596 35.8401 55.9396C35.8901 55.7096 35.9301 55.4796 35.9801 55.1996C36.0701 54.8296 36.1201 54.4096 36.2101 54.0396C36.4001 52.6496 36.3001 51.3096 35.8901 50.0696C35.5201 48.9096 35.1001 47.8096 34.6001 46.7396C34.2801 46.0496 34.1401 45.3096 34.1401 44.4796L34.1101 44.4696Z" fill="#E1593E"/>
<path d="M19.1901 42.5698H5.96007V42.7498C5.87007 44.1798 5.82007 45.6198 5.82007 47.0498C5.82007 48.4798 5.91007 49.9198 6.14007 51.3498C6.37007 52.7798 6.74007 54.1198 7.30007 55.4198C7.90007 56.7598 8.50007 58.0098 9.29007 59.2098C10.0301 60.4598 11.0001 61.4698 12.2501 62.2098C12.3401 61.9798 12.4801 61.7898 12.6201 61.5598C12.9001 61.1898 13.2201 60.9098 13.5901 60.7698C13.6801 60.6798 13.8201 60.6298 13.9601 60.5898C14.1501 60.4998 14.3301 60.4098 14.5601 60.3098C15.0201 60.0798 15.4401 59.7498 15.7601 59.3398V59.2898C15.3501 58.6398 14.9301 57.9498 14.4201 57.2598C13.9101 56.5698 13.5901 55.7798 13.5001 54.9498C13.4501 54.8998 13.4501 54.8598 13.4501 54.8098C13.3601 54.0198 13.3101 53.2398 13.4501 52.4998C13.4501 52.4498 13.4501 52.3598 13.5001 52.3198C13.5901 51.4398 13.9101 50.6598 14.3801 49.9598C14.6101 49.6398 14.8001 49.2698 14.9801 48.9398C15.0301 48.7998 15.0701 48.7098 15.1201 48.6198C15.2601 48.2998 15.4001 47.9698 15.4901 47.6498C15.7201 46.8598 15.8101 45.9898 15.6701 45.0598C15.5801 44.0898 15.3901 43.2998 15.2501 42.6598C15.2501 42.6598 15.2367 42.6298 15.2101 42.5698H19.1901Z" fill="#1884B5"/>
<path d="M43.6801 48.2098C44.3301 47.6998 44.9701 47.0098 45.5301 46.0898C44.0501 46.4998 42.9401 47.6098 42.3401 49.4598C43.9601 49.2798 44.9701 48.3498 45.4401 46.6898C44.7901 47.4298 44.2401 47.9398 43.6801 48.2098Z" fill="#497A4B"/>
<path d="M27.7802 60.7796C28.2002 61.1996 28.5202 61.6096 28.8002 62.0296C28.5702 61.1996 28.1502 60.4996 27.5502 59.9496C27.3702 59.7596 27.1302 59.6296 26.9002 59.5796C26.9402 59.8096 26.8502 59.9996 26.6702 60.2296C27.0902 60.3196 27.4602 60.5096 27.7802 60.7896V60.7796Z" fill="#EDAC27"/>
<path d="M27.9201 64.1996C27.8801 64.5696 27.8801 64.8496 27.9201 65.0296C28.8401 65.2096 29.5401 65.9496 30.0501 67.2896C30.6501 68.9496 30.9701 70.1996 30.9301 71.0396C30.9301 71.8696 30.9701 72.6096 31.0701 73.2596C31.1201 73.5796 31.1201 73.9496 31.1201 74.3196C30.6601 74.7396 30.3801 75.2396 30.2901 75.7996C30.1501 76.3096 30.1501 76.8596 30.2401 77.3696C30.1501 77.4596 30.0501 77.5496 30.0101 77.6496C29.8301 77.7396 29.6401 77.8796 29.4601 77.9696C29.2801 78.0196 29.1801 78.1096 29.0901 78.1996C28.5401 78.1996 28.1701 78.4796 28.0301 79.0296C27.8001 78.4296 27.3401 78.1096 26.7301 78.0596C26.5901 78.0096 26.4501 78.0596 26.3101 78.0596C26.0801 77.6896 25.7601 77.4096 25.2001 77.2696C24.9201 77.1796 24.7401 77.2196 24.6001 77.3196C24.7401 76.7196 24.5501 76.2996 24.0001 76.0696C23.9101 76.0196 23.8101 75.9796 23.7701 75.9796C23.2201 75.4296 23.0801 74.6396 23.2601 73.7196C23.4501 72.8396 23.1701 72.0996 22.3801 71.5496C21.5901 71.0396 21.5501 70.4896 22.1901 69.9296C22.3301 69.7896 22.3801 69.6096 22.3801 69.2796C22.2901 68.6296 22.0101 68.0296 21.6401 67.4296C21.9201 67.1996 22.0601 66.9196 22.0101 66.6896C21.9201 65.8096 22.1501 65.5796 22.8001 65.9496C22.8001 65.7196 22.7101 65.4896 22.5701 65.2996C22.5201 65.2996 22.4801 65.2496 22.4801 65.2096H22.4401C22.4401 65.2096 22.3901 65.2096 22.3501 65.1596C21.9301 64.8796 21.5601 64.8396 21.1901 65.0196C21.3801 64.4196 21.2401 63.8596 20.8701 63.3496C20.5001 62.8396 20.0401 62.5596 19.3401 62.5596C18.6001 62.5096 18.3701 62.1896 18.7401 61.5896C18.8801 61.3096 19.1101 61.0796 19.3401 61.0396C18.7901 61.0396 18.2801 61.1296 17.7701 61.3596C17.4001 61.5496 17.2101 61.8196 17.1201 62.1496V62.4296C17.1201 62.4296 17.0701 62.2896 17.0301 62.1996C17.0301 61.9196 17.1201 61.5096 17.4001 60.9996C17.5401 60.6296 17.5801 60.3096 17.5401 59.9796C17.4901 59.8396 17.4901 59.7496 17.4501 59.6596C17.3101 59.3396 17.0401 59.0596 16.6201 58.8696C16.7601 60.0696 16.2001 60.8096 14.9101 61.0396C13.9901 61.2196 13.4801 61.7796 13.2901 62.6096C13.2001 62.9796 13.1501 63.2996 13.1001 63.6696C13.0601 63.8996 13.0601 64.1296 13.0601 64.3696C13.0601 64.9696 13.2901 65.4796 13.7501 66.0296C14.2101 66.0796 14.4901 66.3096 14.4501 66.7196C14.4501 67.3196 14.6301 67.7796 15.1001 68.1496C15.5601 68.4696 15.8401 68.9796 15.8401 69.5796C15.8801 69.8096 15.9801 69.8996 16.1601 69.8996C16.5301 69.9896 16.7601 70.1796 16.7601 70.5896C16.7601 71.1896 16.9001 71.6996 17.0801 72.2496C17.3101 72.7596 17.5401 73.2196 17.7801 73.7296C17.9601 74.0596 18.1501 74.3796 18.3301 74.7496C19.4901 75.8096 20.2301 76.5496 20.6401 76.9196C20.9601 77.2896 21.3301 77.6596 21.7501 78.0296C22.1201 78.3996 22.5401 78.7696 23.0001 79.0896C23.3201 79.4096 23.6901 79.7396 24.0601 80.0596H29.1901C29.4701 79.8696 29.7401 79.6396 30.0201 79.4596C30.7601 78.8996 31.1301 78.2596 31.1301 77.5196C31.4501 77.1496 31.5901 76.6896 31.5901 76.2296C31.5901 75.8096 31.6401 75.4396 31.7701 75.0696C32.0501 74.3296 32.2801 73.5896 32.4601 72.7596C32.6901 72.0196 32.5101 71.2396 31.9501 70.4996C31.9001 69.8496 32.0001 69.2496 32.2701 68.6996C32.5001 68.0496 32.5501 67.4496 32.4101 66.8496C32.3201 66.6196 32.1801 66.3396 32.0401 66.1096V66.0196C31.5301 64.9996 31.7601 64.3996 32.6901 64.1696C32.3701 63.8896 32.0401 63.7996 31.6701 63.8896C31.9501 63.5696 31.9001 63.2396 31.5301 62.9696C31.7201 62.7396 31.9901 62.5996 32.4101 62.5096C32.5901 62.3296 32.7301 62.2796 32.9201 62.3696C32.9201 61.9996 32.7801 61.6796 32.5001 61.4896C32.0401 61.5796 31.5301 61.7696 31.0201 62.0896C30.5101 62.3696 29.9601 62.5496 29.3601 62.6896C28.9001 62.7796 28.4401 62.8296 27.9301 62.8296V64.1696L27.9201 64.1996Z" fill="#EF8F30"/>
<path d="M42.2502 56.8096C42.1102 56.7196 41.9702 56.6696 41.8302 56.6196C41.2302 56.9896 40.9502 57.3196 41.0902 57.6396C41.1802 57.9196 41.3202 58.2896 41.5102 58.6996C42.0602 58.7896 42.5702 58.7896 42.9902 58.5596C43.2202 58.0496 43.1302 57.6396 42.7602 57.3596C42.7102 57.3196 42.6702 57.2196 42.6702 57.1796C42.5302 57.0396 42.3902 56.8996 42.2602 56.8096H42.2502Z" fill="#E1593E"/>
<path d="M43.3601 59.1197C42.8501 59.0297 42.3001 59.0297 41.6501 59.1197C41.4601 59.9097 41.6501 60.5997 42.2501 61.2497C42.3901 61.2497 42.5301 61.1997 42.6201 61.1997C42.8501 61.1497 43.0401 61.0597 43.2701 60.9197C44.0601 60.3597 44.0601 59.7597 43.3601 59.1197Z" fill="#E1593E"/>
<path d="M38.3601 57.8196C38.5001 57.9096 38.5901 57.9096 38.7801 57.9596C39.4801 58.0096 40.2101 58.0496 40.9101 58.0996C40.4901 57.4996 40.5901 56.9896 41.1401 56.6196C40.1701 56.3896 39.3801 56.6196 38.6901 57.1796C38.4601 57.3596 38.3701 57.5996 38.3701 57.8296L38.3601 57.8196Z" fill="#E1593E"/>
<path d="M39.89 58.5197C39.75 58.5697 39.61 58.5697 39.48 58.5197C38.93 58.3797 38.69 58.5697 38.83 59.0297C38.6 59.5397 38.97 59.9997 39.85 60.3697C40.08 61.6197 40.54 61.8497 41.33 61.1597C40.82 60.5097 40.78 59.8197 41.24 59.0297C41.1 58.5697 40.64 58.4297 39.9 58.5197H39.89Z" fill="#E1593E"/>
<path d="M45.11 52.9696C44.51 54.5396 44.83 55.8796 46.08 56.9496C46.63 55.0996 46.4 53.5696 45.39 52.3696C45.34 53.4296 45.43 54.3996 45.71 55.1896C45.39 54.6796 45.2 53.8996 45.11 52.9696Z" fill="#497A4B"/>
<path d="M28.1001 68.68C28.3801 68.91 28.6101 68.91 28.8901 68.68C29.1201 68.4 29.3101 68.26 29.4001 68.26C29.2601 68.26 29.1201 68.17 29.0301 68.03C29.0301 67.98 28.9801 67.94 28.9801 67.89C28.6601 67.43 28.2401 67.29 27.7301 67.47C27.4101 67.52 27.1301 67.65 26.9001 67.93C26.7601 68.07 26.5801 68.21 26.3501 68.3C26.5401 68.25 26.8101 68.35 27.1401 68.67C27.4601 68.99 27.7901 68.99 28.1101 68.67L28.1001 68.68Z" fill="#B6220E"/>
<path d="M8.37011 37.1596C8.51011 35.6796 7.96011 34.6596 6.71011 34.0596C6.66011 35.6796 7.22011 36.8796 8.28011 37.6596C8.10011 36.7396 7.82011 35.9996 7.45011 35.3996C7.77011 35.7696 8.10011 36.3696 8.37011 37.1596Z" fill="#497A4B"/>
<path d="M15.3001 24.5396C15.1101 23.3396 14.6001 23.1096 13.8201 23.7996C14.3301 24.4496 14.3701 25.1396 13.9101 25.8796C14.0501 26.3396 14.5101 26.5296 15.2501 26.4296C15.3901 26.3796 15.5301 26.3796 15.6701 26.4296C16.2301 26.5696 16.4601 26.3796 16.3701 25.8796C16.5501 25.3696 16.2301 24.9596 15.3101 24.5396H15.3001Z" fill="#E1593E"/>
<path d="M12.9001 23.6597C12.7601 23.7097 12.6201 23.7097 12.5301 23.7497C12.3001 23.7997 12.1201 23.8897 11.8801 24.0297C11.0901 24.5797 11.0901 25.1797 11.7901 25.8297C12.3001 25.8797 12.8501 25.8797 13.5001 25.8297C13.6801 25.0397 13.5001 24.3097 12.9001 23.6597Z" fill="#E1593E"/>
<path d="M12.39 27.55C12.43 27.64 12.48 27.69 12.53 27.78C12.62 27.92 12.76 28.06 12.94 28.15C13.04 28.2 13.17 28.24 13.31 28.29C13.96 27.92 14.19 27.6 14.05 27.32C13.96 27 13.82 26.67 13.64 26.26C13.08 26.12 12.58 26.17 12.16 26.4C11.98 26.91 12.02 27.28 12.39 27.56V27.55Z" fill="#E1593E"/>
<path d="M16.78 27.0899C16.69 27.0399 16.55 26.9999 16.41 26.9999C15.67 26.9499 14.93 26.9099 14.24 26.8599C14.66 27.4599 14.57 27.9199 14.01 28.3399C14.98 28.5299 15.76 28.3399 16.46 27.7399C16.69 27.5499 16.78 27.3699 16.78 27.0899Z" fill="#E1593E"/>
<path d="M9.62012 38.8697C11.1001 38.4097 12.2101 37.3397 12.8101 35.4897C11.1901 35.6797 10.1801 36.5997 9.71012 38.2197C10.3601 37.4797 10.9601 36.9697 11.4701 36.7397C10.8201 37.1997 10.1801 37.9397 9.62012 38.8697Z" fill="#497A4B"/>
<path d="M9.43019 29.7698C9.75019 30.2798 9.94019 31.0198 10.0302 31.9898C10.6302 30.3698 10.3102 29.0298 9.06019 28.0098C8.51019 29.8098 8.78019 31.3398 9.75019 32.5398C9.84019 31.4798 9.70019 30.5498 9.43019 29.7698Z" fill="#497A4B"/>
<path d="M26.76 58.9798L25.28 56.7598L23.76 58.9798L25.28 61.1998L26.76 58.9798Z" fill="#DB1A28"/>
<path d="M22.14 60.7297C21.77 61.0997 21.44 61.6097 21.26 62.2597C21.68 61.6597 22.09 61.1997 22.51 60.9697C22.97 60.7397 23.34 60.5097 23.67 60.4197C23.53 60.1897 23.44 59.9597 23.39 59.6797C22.97 59.9597 22.56 60.3297 22.14 60.7397V60.7297Z" fill="#EDAC27"/>
<path d="M17.9401 75.89C17.8501 76.03 17.7101 76.12 17.5701 76.17C17.3401 76.17 17.2501 76.26 17.2001 76.54C17.0601 76.63 16.9701 76.72 16.8801 76.82H16.8301C16.6901 76.82 16.6001 76.91 16.5101 77.05C14.9401 77.84 14.0601 78.21 13.8301 78.21C13.7801 78.49 14.6601 78.58 16.5501 78.53C16.2301 79.13 15.8601 79.64 15.5801 80.1H23.1101C21.1201 78.62 19.5501 77.09 18.3001 75.52C18.0701 75.52 17.9801 75.66 17.9301 75.89H17.9401Z" fill="#EDAC27"/>
<path d="M11.9699 19.6398L16.4999 12.9798L11.9699 6.27979L7.43994 12.9798L11.9699 19.6398Z" fill="#DB1A28"/>
<path d="M3.69993 4.2998C3.37993 4.2998 3.09993 4.3898 2.81993 4.4898C2.53993 4.6298 2.30993 4.7698 2.07993 4.9498C1.88993 5.1798 1.75993 5.4098 1.61993 5.6898C1.52993 6.0098 1.42993 6.3398 1.42993 6.6598C1.42993 7.0298 1.47993 7.3098 1.61993 7.6298C1.70993 7.9098 1.84993 8.1398 2.02993 8.3698C2.25993 8.5498 2.48993 8.7398 2.76993 8.8798C3.04993 8.9698 3.31993 9.0698 3.68993 9.0698C3.82993 9.0698 3.96993 9.1198 4.05993 9.1598C4.19993 9.2098 4.28993 9.2498 4.37993 9.3398C4.42993 9.3898 4.51993 9.4798 4.60993 9.5698C4.65993 9.6598 4.74993 9.7498 4.79993 9.7998C4.88993 9.8898 4.98993 9.9898 5.07993 10.0298C5.16993 10.1198 5.30993 10.1698 5.49993 10.2098C5.68993 10.1198 5.81993 10.0698 5.95993 10.0298C6.04993 9.9798 6.18993 9.9398 6.37993 9.8898C6.37993 9.7998 6.41993 9.7498 6.41993 9.7098V9.5298C6.13993 9.5298 5.95993 9.5298 5.76993 9.4398C5.62993 9.3898 5.48993 9.3498 5.34993 9.2598C5.16993 9.1198 5.02993 9.0798 4.92993 9.0298C4.83993 8.9398 4.73993 8.8898 4.64993 8.8898C4.87993 8.7098 5.06993 8.5698 5.29993 8.3398C5.47993 8.1598 5.66993 7.8798 5.75993 7.6498C5.89993 7.3298 5.94993 7.0498 5.94993 6.6798C5.94993 6.3598 5.89993 6.0298 5.75993 5.7098C5.66993 5.4298 5.47993 5.1998 5.29993 4.9698C5.06993 4.7798 4.87993 4.6398 4.59993 4.5098C4.31993 4.4198 3.99993 4.3198 3.67993 4.3198L3.69993 4.2998ZM3.55993 4.7598C3.78993 4.7598 3.97993 4.8098 4.20993 4.8998C4.38993 5.0398 4.52993 5.1798 4.71993 5.3598C4.85993 5.5398 4.94993 5.7798 4.99993 6.0098C5.08993 6.2898 5.13993 6.5198 5.13993 6.8398C5.13993 7.0698 5.08993 7.2998 5.04993 7.5298C4.99993 7.7198 4.90993 7.8998 4.81993 8.0798C4.67993 8.2198 4.53993 8.3598 4.39993 8.4498C4.21993 8.5398 4.02993 8.5898 3.84993 8.5898C3.56993 8.5898 3.38993 8.4998 3.15993 8.3998C2.96993 8.2598 2.78993 8.1198 2.69993 7.9398C2.55993 7.7098 2.41993 7.5198 2.37993 7.2898C2.28993 7.0098 2.28993 6.7398 2.28993 6.4598C2.28993 6.2298 2.28993 5.9498 2.37993 5.7698C2.42993 5.5398 2.51993 5.3498 2.65993 5.2098C2.74993 5.0198 2.88993 4.9298 3.07993 4.8398C3.21993 4.7898 3.39993 4.7498 3.58993 4.7498L3.55993 4.7598Z" fill="#DB1A28"/>
<path d="M2.81982 12.11L3.87982 13.68L4.89982 12.11L3.87982 10.54L2.81982 12.11Z" fill="#DB1A28"/>
<path d="M19.1899 42.52V42.57H34.2499V42.52H19.1899Z" fill="#E1593E"/>
<path d="M19.1899 42.57V42.52H7.85986V42.57H19.1899Z" fill="#1884B5"/>
<path d="M7.39997 42.52H5.96997V42.57H7.35997C7.35997 42.57 7.35997 42.52 7.39997 42.52Z" fill="#1884B5"/>
<path d="M7.34985 42.57H7.85985V42.52H7.39985C7.39985 42.52 7.35985 42.52 7.35985 42.57H7.34985Z" fill="#497A4B"/>
<path d="M48.9001 42.57C48.9001 42.57 48.9001 42.52 48.9501 42.52H38.55V42.57H48.9001Z" fill="#1884B5"/>
<path d="M38.55 42.52H34.25V42.57H38.55V42.52Z" fill="#EE4A60"/>
<path d="M43.2199 65.31L38.6899 71.97L43.2199 78.67L47.6999 71.97L43.2199 65.27V65.32V65.31Z" fill="#DB1A28"/>
<path d="M50.34 75.1097C50.25 75.0197 50.15 74.9697 50.06 74.8797C49.97 74.8297 49.83 74.7397 49.64 74.7397C49.45 74.7897 49.32 74.8797 49.18 74.9197C49.09 74.9697 48.95 75.0097 48.76 75.0597C48.76 75.1097 48.71 75.1497 48.71 75.1997V75.4297C48.99 75.3797 49.17 75.4298 49.36 75.4798C49.5 75.5298 49.64 75.6197 49.78 75.7097C49.97 75.7997 50.1 75.8998 50.2 75.9398C50.34 76.0298 50.38 76.0798 50.52 76.0798C50.29 76.2198 50.06 76.3997 49.83 76.5897C49.64 76.8197 49.46 77.0498 49.37 77.3298C49.23 77.6098 49.19 77.9298 49.19 78.2598C49.19 78.6298 49.23 78.9498 49.37 79.2298C49.46 79.5498 49.65 79.7797 49.83 79.9697C50.06 80.1997 50.29 80.3397 50.52 80.4297C50.8 80.5697 51.12 80.6097 51.44 80.6097C51.76 80.6097 52.04 80.5597 52.32 80.4297C52.6 80.3397 52.83 80.1997 53.06 79.9697C53.24 79.7797 53.38 79.5098 53.52 79.2298C53.61 78.9498 53.71 78.6298 53.71 78.2598C53.71 77.9398 53.66 77.6098 53.52 77.3298C53.43 77.0498 53.29 76.7697 53.1 76.5897C52.87 76.3597 52.64 76.1698 52.36 76.0798C52.08 75.9398 51.81 75.8997 51.43 75.8997C51.29 75.8497 51.15 75.8497 51.06 75.8097C50.92 75.7597 50.83 75.6698 50.74 75.6198C50.69 75.5298 50.6 75.4397 50.51 75.3897C50.46 75.2997 50.37 75.2097 50.33 75.1097H50.34ZM51.31 76.3597C51.59 76.3597 51.77 76.4097 52.01 76.5397C52.19 76.6297 52.38 76.7697 52.47 76.9997C52.61 77.1797 52.75 77.3697 52.8 77.6497C52.89 77.8797 52.89 78.1598 52.89 78.4398C52.89 78.7198 52.89 78.9497 52.8 79.1797C52.75 79.3597 52.66 79.5498 52.52 79.7298C52.43 79.8698 52.29 80.0098 52.1 80.0498C51.96 80.1398 51.78 80.1898 51.59 80.1898C51.36 80.1898 51.17 80.1398 50.94 80.0098C50.75 79.9198 50.62 79.7797 50.43 79.5897C50.34 79.3997 50.2 79.1697 50.15 78.8997C50.06 78.6697 50.01 78.3897 50.01 78.1097C50.01 77.8297 50.06 77.5998 50.1 77.4098C50.14 77.2298 50.24 76.9997 50.33 76.8597C50.47 76.6797 50.61 76.5797 50.75 76.4897C50.94 76.3997 51.12 76.3497 51.3 76.3497L51.31 76.3597Z" fill="#DB1A28"/>
<path d="M51.3 74.4198L52.36 72.8498L51.3 71.2798L50.24 72.8498L51.3 74.4198Z" fill="#DB1A28"/>
<path d="M53.25 1.85C52.28 0.97 51.17 0.42 49.92 0.14C49.46 0.05 48.95 0 48.39 0H6.8C6.29 0 5.74 0.05 5.28 0.14C4.03 0.42 2.92 0.97 2 1.85C0.65 3.14 0 4.62 0 6.43V78.63C0 80.39 0.65 81.87 1.99 83.16C3.28 84.36 4.9 85.01 6.79 85.01H48.39C50.28 85.01 51.9 84.36 53.24 83.16C54.54 81.87 55.23 80.39 55.23 78.63V6.43C55.23 4.63 54.53 3.15 53.24 1.85H53.25ZM47.94 0.56C49.79 0.56 51.31 1.16 52.66 2.41C53.95 3.61 54.6 5.09 54.6 6.85V78.17C54.6 79.93 53.95 81.41 52.66 82.61C51.32 83.81 49.79 84.46 47.94 84.46H7.3C5.41 84.46 3.88 83.81 2.54 82.61C1.24 81.41 0.6 79.93 0.6 78.17V6.84C0.6 5.08 1.25 3.6 2.54 2.4C3.88 1.15 5.41 0.55 7.3 0.55H47.93L47.94 0.56Z" fill="#C1B8B3"/>
<path d="M51.17 4.98996V42.34H4.01999V14.19H3.73999V80.29H47.51V80.01H4.01999V42.62H51.16V70.81H51.44V4.70996H7.06999V4.98996H51.16H51.17Z" fill="black"/>
</g>
<defs>
<clipPath id="clip0_80_234">
<rect width="55.24" height="85" fill="white"/>
</clipPath>
</defs>
</svg>
