<svg width="56" height="85" viewBox="0 0 56 85" fill="none" xmlns="http://www.w3.org/2000/svg">
<g clip-path="url(#clip0_80_189)">
<path d="M53.28 1.85C52.31 0.97 51.2 0.37 49.95 0.14C49.49 0.05 48.98 0 48.42 0H6.8C6.29 0 5.74 0.05 5.28 0.14C4.03 0.37 2.92 0.97 1.99 1.85C0.65 3.1 0 4.63 0 6.38V78.62C0 79.54 0.19 80.38 0.51 81.16C0.88 81.9 1.34 82.55 1.99 83.15C3.29 84.4 4.9 85 6.8 85H48.42C50.32 85 51.93 84.4 53.28 83.15C54.57 81.9 55.27 80.38 55.27 78.62V6.38C55.27 4.62 54.57 3.1 53.28 1.85Z" fill="#F8F3F1"/>
<path d="M50.3201 15.4497C50.1301 15.3097 49.9001 15.2197 49.6701 15.1297C49.2101 14.8997 48.7401 14.7097 48.3301 14.4797C48.1401 14.3397 47.9601 14.2497 47.8201 14.1597C47.4501 14.4397 47.0801 14.7597 46.5701 15.0797L46.5301 14.7997C46.3901 14.6097 46.3001 14.6097 46.2101 14.7097C46.1701 14.0197 46.1201 13.4597 46.0701 13.0497L45.8401 12.9097L45.7501 12.8597C45.7001 12.8097 45.7001 12.7697 45.7501 12.7197C45.5601 12.5297 45.5201 12.2997 45.5601 12.0697C45.5601 11.7897 45.6001 11.6097 45.6501 11.5597C45.7001 11.5097 45.7501 11.4697 45.7901 11.4197C45.7901 11.3697 45.8401 11.3697 45.8801 11.3297C45.9201 11.2797 45.9701 11.1897 45.9201 11.0497C45.9201 10.9597 45.9201 10.8697 45.8801 10.7697C45.8801 10.6297 45.8301 10.5397 45.7901 10.3997C45.7901 10.3497 45.7501 10.2597 45.7001 10.1697C45.4701 9.88969 45.2401 9.74969 45.0001 9.74969C44.7201 9.74969 44.4901 9.88969 44.3101 10.2097V10.2597C44.1701 10.4897 44.0801 10.6797 44.0801 10.9497C44.0301 10.9997 44.0301 11.0397 44.0301 11.1297C44.0801 11.2197 44.0801 11.3197 44.1201 11.3597H44.1701C44.3101 11.4497 44.4501 11.6397 44.4501 11.9097C44.4901 12.2397 44.4501 12.4697 44.3601 12.5997V12.6897C44.3601 12.6897 44.3601 12.8297 44.4101 12.9197C42.0501 13.4297 40.9001 11.9497 40.9001 8.42969C37.3901 13.2397 37.2901 18.1897 40.6201 23.4097C40.6201 18.6497 41.7301 17.0297 44.1301 18.4597V22.0197H44.2701L44.3201 42.3197H45.8501C45.9001 35.5697 45.9001 28.8197 45.8001 22.0197H46.3501C46.3101 19.0597 46.2601 17.2597 46.2601 16.5597H46.3101C46.4001 16.5597 46.4901 16.5097 46.5401 16.4697L46.6301 16.1497L47.9301 16.7997C48.1101 16.6597 48.5301 16.4297 49.0901 16.1497C49.6401 15.8297 50.0601 15.5897 50.3401 15.4097L50.3201 15.4497ZM46.2001 18.3197C46.1601 18.4097 46.1601 18.5097 46.1601 18.6397C46.1601 18.4997 46.1601 18.4097 46.2001 18.3197Z" fill="#777777"/>
<path d="M34.69 6.46986L34.23 6.14986C33.4 5.68986 32.52 5.31986 31.59 5.03986C31.4 4.94986 31.22 4.89986 31.04 4.85986H22.72C22.03 6.56986 22.53 8.13986 24.29 9.61986C25.08 9.56986 25.91 9.56986 26.69 9.66986C27.02 9.66986 27.34 9.71986 27.66 9.75986C28.4 9.84986 29.1 9.98986 29.79 10.1799C30.62 10.4099 31.5 10.6399 32.33 10.9699C32.61 11.3399 32.93 11.7099 33.3 12.0299C33.67 12.3499 34.09 12.5399 34.59 12.5899H34.87C35.29 12.5899 35.66 12.3999 35.93 12.0799C36.39 11.5299 36.62 11.0199 36.67 10.4599C36.72 10.2299 36.72 10.0399 36.67 9.85986C36.58 8.69986 36.07 7.68986 35.24 6.94986C35.1 6.80986 34.87 6.62986 34.69 6.48986V6.46986Z" fill="#1884B5"/>
<path d="M34.92 13.3196C33.81 13.4596 32.98 13.0396 32.47 12.0296C32.15 11.7496 31.77 11.5196 31.41 11.2896C30.35 10.7396 29.24 10.4096 28.04 10.3696L28.32 10.5496C29.11 10.8296 29.29 11.4296 28.97 12.2096C29.39 12.0696 29.62 11.6596 29.71 11.0996C29.62 12.1196 29.85 12.8996 30.4 13.4096C30.54 13.4996 30.63 13.5896 30.73 13.6896C30.82 13.8796 31.01 14.0596 31.24 14.2496C31.24 14.2496 31.2534 14.2663 31.28 14.2996C31.88 15.0396 32.11 15.9196 31.98 16.7996C31.93 16.9396 31.89 17.0796 31.84 17.2596C31.7 18.0896 31.98 18.7896 32.72 19.2896C32.81 19.3796 32.91 19.4296 33 19.4696C33.19 19.6596 33.32 19.8896 33.46 20.1196C33.46 20.2096 33.51 20.2996 33.55 20.3496C33.83 21.0896 34.06 21.8796 34.2 22.7496C34.2 22.8896 34.25 23.0296 34.34 23.2096C34.39 23.3496 34.57 23.5796 34.94 23.8596C35.31 24.1896 36.05 24.0496 37.21 23.5396C37.95 23.7696 38.69 23.5896 39.52 23.0796C39.71 22.9896 39.84 22.8496 39.93 22.7596H39.61C39.19 22.6696 38.78 22.4796 38.45 22.2096C38.45 22.0696 38.45 21.9296 38.49 21.7896C38.58 21.2796 38.53 20.8196 38.3 20.4496C38.07 19.9396 37.65 19.6196 37.14 19.2896C36.59 18.9696 36.4 18.4596 36.54 17.8096C36.96 16.4696 36.68 15.2696 35.85 14.2496C35.8 14.1996 35.76 14.1596 35.71 14.1596L34.92 13.3296V13.3196Z" fill="#EF8F30"/>
<path d="M27.9301 18.9097C28.1601 19.1397 28.3501 19.3697 28.4901 19.6497C28.7701 20.0597 29.0901 20.1597 29.5101 19.8297C29.7901 19.6897 29.8401 19.4597 29.7401 19.1797C29.6001 19.6397 29.4201 19.7297 29.1901 19.4997C29.1901 19.4997 29.1401 19.4497 29.1401 19.4097C29.1001 19.2697 29.0501 19.0897 29.0501 18.8997C29.0001 18.6697 28.8201 18.3897 28.5901 18.0197C28.2201 17.5597 27.6601 17.4197 26.9301 17.5597C26.2801 17.4197 25.8701 17.5597 25.5401 18.0197C25.2601 18.4397 25.0801 18.7097 25.0801 18.8997C25.0401 19.1297 24.9901 19.2697 24.9401 19.4497C24.9001 19.4997 24.9001 19.5397 24.9001 19.5397C24.6701 19.7197 24.4801 19.6297 24.3401 19.2197C24.2501 19.4497 24.3001 19.6797 24.5701 19.8697C24.9901 20.1497 25.3601 20.0997 25.5901 19.6897C25.7701 19.4097 25.9601 19.1797 26.1501 18.8997C26.4301 18.5797 26.7501 18.4397 27.2101 18.4397C27.2101 18.4397 27.3001 18.4397 27.3501 18.4897C27.5801 18.5397 27.7701 18.6697 27.9501 18.9097H27.9301Z" fill="#EF8F30"/>
<path d="M38.5201 24.4596C38.0101 24.5996 37.5501 24.5496 37.2301 24.2796C35.9401 24.7896 34.9201 24.8296 34.1301 24.3296C33.1601 25.5796 32.3301 26.4096 31.6801 26.8696C30.9901 25.9496 30.2901 25.3896 29.6401 25.2096V37.7397C33.6201 33.6197 36.8101 29.0896 39.2601 24.1396C39.0301 24.2296 38.7501 24.3696 38.5201 24.4596Z" fill="#1884B5"/>
<path d="M43.8401 27.2397V26.2697L40.2801 23.9097C37.6501 29.4597 34.1301 34.4997 29.6401 38.9397V42.3597H33.1601C37.6001 37.9197 41.1601 32.8297 43.8401 27.2397Z" fill="#E1593E"/>
<path d="M32.93 21.0396C32.93 20.9496 32.88 20.8496 32.84 20.8096C32.75 20.5296 32.61 20.2996 32.38 20.1196C32.38 20.1696 32.33 20.1696 32.29 20.1696C31.55 21.8296 30.53 23.1796 29.24 24.2896C30.12 24.5696 30.86 25.1196 31.55 25.9496L33.73 23.8696C33.68 23.6896 33.63 23.5496 33.59 23.4096C33.45 22.5796 33.26 21.7896 32.94 21.0496L32.93 21.0396Z" fill="#1884B5"/>
<path d="M40.9299 34.0799L41.9499 42.3599H43.7099L43.8499 28.8999C42.9699 30.6999 41.9999 32.3699 40.9399 34.0799H40.9299Z" fill="#1884B5"/>
<path d="M40.2801 42.3597L40.8401 34.2197C38.9501 37.0897 36.8201 39.8197 34.3701 42.3597H40.2901H40.2801Z" fill="#1884B5"/>
<path d="M29.09 42.3596V25.0596C27.93 24.6896 26.92 24.6896 26.04 25.1096V42.3596H29.09ZM28.07 26.4096C28.25 26.5996 28.35 26.7796 28.35 27.0096C28.35 27.1996 28.26 27.3796 28.07 27.5696C27.93 27.7096 27.75 27.7996 27.52 27.7996C27.33 27.7996 27.1 27.7096 26.96 27.5696C26.78 27.3896 26.73 27.1996 26.73 26.9696C26.73 26.7896 26.78 26.5996 26.96 26.4096C27.1 26.2696 27.33 26.1796 27.52 26.1796C27.75 26.1796 27.93 26.2696 28.07 26.4096ZM28.35 39.9096C28.35 40.0896 28.26 40.2796 28.07 40.4696C27.93 40.6096 27.75 40.6996 27.52 40.6996C27.33 40.6996 27.1 40.6096 26.96 40.4696C26.78 40.2796 26.73 40.0996 26.73 39.8696C26.73 39.6896 26.78 39.4996 26.96 39.3096C27.1 39.1696 27.33 39.0796 27.52 39.0796C27.75 39.0796 27.93 39.1696 28.07 39.3096C28.25 39.4896 28.35 39.6796 28.35 39.9096ZM28.35 33.4396C28.35 33.6696 28.26 33.8596 28.07 33.9996C27.93 34.1796 27.75 34.2296 27.52 34.2296C27.33 34.2296 27.1 34.1796 26.96 33.9996C26.78 33.8596 26.73 33.6796 26.73 33.4396C26.73 33.1996 26.78 33.0196 26.96 32.8896C27.1 32.6996 27.33 32.6596 27.52 32.6596C27.75 32.6596 27.93 32.7096 28.07 32.8896C28.25 33.0296 28.35 33.2096 28.35 33.4396Z" fill="#1884B5"/>
<path d="M49.8999 42.3598C48.8799 35.8898 47.7299 31.2598 46.4299 28.5298V42.3598H49.8999Z" fill="#1884B5"/>
<path d="M46.48 52.4898C46.57 52.4398 46.71 52.3998 46.85 52.3498V52.2998C45.7 48.2298 44.08 44.9898 42.04 42.5898H31.91C30.48 46.3398 30.43 50.9098 31.77 56.3698C33.9 56.0498 35.56 56.6498 36.67 58.2698L43.56 56.4198C43.7 54.6198 44.67 53.2698 46.47 52.4898H46.48ZM36.17 44.2998L40.75 48.2798L38.76 54.0098V54.0598L34.18 50.0398L36.17 44.3098V44.2998Z" fill="#E1593E"/>
<path d="M46.9401 52.8601C46.8401 52.9101 46.7101 53.0001 46.5701 53.0401C45.0001 53.9201 44.1201 55.2101 43.9401 56.9701L36.6301 58.9601C35.4301 57.2501 33.7201 56.5601 31.4001 56.8801C30.0101 51.2801 30.0101 46.5201 31.4501 42.5901H30.2501C28.9101 46.9801 28.9601 52.2101 30.4801 58.3601C33.1101 57.9401 35.1001 58.7301 36.4901 60.6701L44.9101 58.4001C45.1401 56.0401 46.4801 54.3801 48.9801 53.3601C47.7301 49.0101 46.0201 45.4101 43.9401 42.5801H42.6001C44.6401 45.1201 46.3001 48.4501 47.4601 52.6201C47.3201 52.6701 47.1301 52.7601 46.9501 52.8501L46.9401 52.8601Z" fill="#777777"/>
<path d="M31.7701 62.8996L31.7201 62.9496C31.6301 62.9496 31.4901 63.0396 31.4001 63.1296C31.3601 63.1296 31.3101 63.1796 31.3101 63.2196C30.9901 63.5396 30.8501 63.8196 30.8501 64.0496C31.3601 64.8396 31.7301 65.5796 31.9101 66.4096C32.1401 67.1996 32.2301 68.0696 32.1901 69.0896C32.1901 70.0596 32.1901 70.9796 32.1001 71.7696C32.0101 72.5596 31.8201 73.1996 31.5401 73.7096C31.2201 74.2196 30.8901 74.6296 30.6201 75.0496C30.9401 75.0996 31.3101 74.9996 31.6801 74.7696C32.0501 74.4896 32.3801 74.1696 32.7401 73.7496C33.0601 73.2896 33.2001 72.6896 33.1101 71.9896C33.0201 71.2996 33.0601 70.6996 33.2001 70.1396C33.3801 69.5396 33.5201 69.0796 33.7101 68.7496C33.8901 68.3796 33.9401 68.0096 33.9401 67.6396C33.8901 67.1796 33.8501 66.7596 33.8501 66.3496C33.7501 65.5196 34.0301 64.8696 34.5901 64.3096C35.0101 64.1696 35.3301 64.2596 35.6501 64.5896C35.6501 64.4496 35.6501 64.3596 35.6101 64.2196C35.7001 64.1696 35.7501 64.0796 35.7901 64.0296C36.0701 63.5196 36.0201 63.1096 35.7901 62.6896H35.7501V62.6396H35.7901C36.0701 62.4096 36.3501 62.3596 36.6201 62.5496C36.6201 62.2696 36.5301 62.0896 36.2501 61.8996C36.0601 61.7596 35.8801 61.6696 35.6501 61.6696C35.5601 61.6196 35.5101 61.6196 35.4701 61.6196L32.6001 63.0096C32.2801 62.8696 32.0401 62.8196 31.7701 62.8696V62.8996Z" fill="#EF8F30"/>
<path d="M31.68 62.7996C31.77 62.7096 31.87 62.5696 32.01 62.4296C32.05 60.9496 31.87 59.6596 31.41 58.6396C30.53 59.8896 29.61 60.7196 28.73 61.0896L30.49 63.2596C30.72 63.2596 30.95 63.2096 31.18 63.1196C31.18 63.1196 31.27 63.0296 31.32 63.0296C31.41 62.8896 31.55 62.8396 31.69 62.7996H31.68Z" fill="#1884B5"/>
<path d="M32.7901 62.4298L35.8901 60.8098C34.9701 59.6498 33.7601 59.1898 32.3301 59.5098L32.7901 62.4198V62.4298Z" fill="#1884B5"/>
<path d="M29.09 59.8398V42.5898H26.04V59.8898C27.15 60.2598 28.17 60.2598 29.09 59.8398ZM28.12 50.9598C28.31 51.0998 28.35 51.2898 28.35 51.5198C28.35 51.7498 28.3 51.9398 28.12 52.0798C27.98 52.2598 27.75 52.3098 27.57 52.3098C27.34 52.3098 27.15 52.2598 27.02 52.0798C26.83 51.9398 26.74 51.7598 26.74 51.5198C26.74 51.2798 26.83 51.0998 27.02 50.9598C27.16 50.7798 27.34 50.7298 27.57 50.7298C27.76 50.7298 27.99 50.7798 28.12 50.9598ZM28.35 45.0898C28.35 45.2798 28.3 45.4598 28.12 45.6398C27.98 45.7798 27.75 45.8698 27.57 45.8698C27.34 45.8698 27.15 45.7798 27.02 45.6398C26.83 45.4598 26.74 45.2698 26.74 45.0398C26.74 44.8598 26.83 44.6698 27.02 44.4898C27.16 44.3498 27.34 44.2598 27.57 44.2598C27.76 44.2598 27.99 44.3498 28.12 44.4898C28.31 44.6798 28.35 44.8598 28.35 45.0898ZM28.12 57.3898C28.31 57.5698 28.35 57.7598 28.35 57.9898C28.35 58.1798 28.3 58.3598 28.12 58.5498C27.98 58.6898 27.75 58.7798 27.57 58.7798C27.34 58.7798 27.15 58.6898 27.02 58.5498C26.83 58.3598 26.74 58.1798 26.74 57.9498C26.74 57.7598 26.83 57.5798 27.02 57.3898C27.16 57.2498 27.34 57.1598 27.57 57.1598C27.76 57.1598 27.99 57.2498 28.12 57.3898Z" fill="#1884B5"/>
<path d="M30.0599 66.04C30.0599 65.81 30.1099 65.67 30.1499 65.53C30.1833 65.47 30.1999 65.4234 30.1999 65.39C30.4299 65.21 30.6199 65.3 30.7499 65.71C30.8399 65.48 30.7999 65.25 30.5699 65.11C30.1099 64.79 29.7399 64.83 29.4999 65.25C29.3199 65.53 29.1299 65.76 28.9899 66.04C28.6699 66.36 28.3399 66.5 27.9299 66.5H27.7899C27.5099 66.41 27.3299 66.27 27.1399 66.08C26.9499 65.8 26.7699 65.57 26.5899 65.29C26.3099 64.87 25.9899 64.83 25.5699 65.11C25.3399 65.25 25.2499 65.48 25.3799 65.76C25.4699 65.34 25.6599 65.21 25.8899 65.44C25.9399 65.44 25.9399 65.49 25.9399 65.53C25.9899 65.67 26.0299 65.85 26.0799 66.09C26.0799 66.27 26.2599 66.55 26.5399 66.97C26.8599 67.39 27.4199 67.52 28.1599 67.39C28.8099 67.53 29.2199 67.39 29.5499 66.93C29.8299 66.51 30.0099 66.24 30.0599 66.05V66.04Z" fill="#EF8F30"/>
<path d="M30.8001 75.3296C30.0101 75.3796 29.1801 75.3796 28.4001 75.3296C28.0801 75.2796 27.7501 75.2396 27.4301 75.1896C26.6901 75.0996 26.0401 74.9596 25.3001 74.7696C24.4701 74.5896 23.6401 74.3096 22.8001 74.0296C22.4801 73.6096 22.1501 73.2396 21.7801 72.9196C21.4101 72.5996 20.9901 72.4096 20.4901 72.3696H20.2101C19.7901 72.3696 19.4201 72.5596 19.1501 72.8796C18.6901 73.4396 18.4501 73.9896 18.4101 74.5396C18.3601 74.7196 18.3601 74.9096 18.4101 75.0996C18.5001 76.2496 19.0101 77.2696 19.8401 78.0096C20.0201 78.1496 20.2101 78.3296 20.3901 78.4696L20.8501 78.7896C21.6801 79.2496 22.5601 79.6196 23.4801 79.8996C23.6701 79.9896 23.8501 80.0396 24.0301 80.0796H32.3601C33.0501 78.3696 32.5401 76.7996 30.7901 75.3196L30.8001 75.3296Z" fill="#1884B5"/>
<path d="M24.47 9.8998C24.15 9.8498 23.78 9.9498 23.41 10.1798C23.09 10.4598 22.72 10.7798 22.35 11.2398C22.03 11.6598 21.89 12.2598 21.98 12.9498C22.07 13.6398 22.02 14.2498 21.89 14.7998C21.7 15.3998 21.57 15.8598 21.38 16.1898C21.19 16.5598 21.15 16.9298 21.15 17.2998C21.19 17.7598 21.24 18.1798 21.24 18.5898C21.33 19.4198 21.05 20.0698 20.5 20.6198C20.08 20.7598 19.76 20.6698 19.44 20.3898C19.44 20.4798 19.49 20.6198 19.49 20.7198C19.44 20.7698 19.35 20.8598 19.3 20.8998C19.02 21.4098 19.07 21.8198 19.3 22.2898L19.34 22.2398V22.2898C19.02 22.5198 18.74 22.5698 18.46 22.3798C18.46 22.6598 18.55 22.8398 18.83 23.0298C19.02 23.1698 19.2 23.2598 19.48 23.3098H19.66L22.48 21.9198C22.8 22.0598 23.08 22.1098 23.31 22.0598C23.45 22.0098 23.59 21.9698 23.68 21.8298C23.73 21.8298 23.77 21.7798 23.82 21.7398C24.1 21.4598 24.24 21.1398 24.24 20.9098C23.73 20.1198 23.36 19.3798 23.18 18.5998C22.99 17.7698 22.86 16.8898 22.9 15.9198C22.9 14.8998 22.94 13.9798 23.04 13.1898C23.08 12.3998 23.27 11.7598 23.59 11.2498C23.87 10.7398 24.19 10.3198 24.47 9.9098V9.8998Z" fill="#EF8F30"/>
<path d="M8.22998 32.6499C9.38998 36.7199 11.01 39.9599 13.09 42.3599H23.17C24.6 38.6099 24.7 34.0399 23.31 28.6299C21.18 28.9099 19.56 28.3099 18.41 26.6899L11.52 28.5899C11.38 30.3499 10.41 31.6899 8.60998 32.4699C8.51998 32.5199 8.37998 32.5599 8.23998 32.6599L8.22998 32.6499ZM16.32 30.9399L20.9 34.9199L18.91 40.6499L14.33 36.6699L16.32 30.9399Z" fill="#E1593E"/>
<path d="M7.63009 32.33C7.81009 32.28 7.95009 32.19 8.14009 32.1C8.28009 32.05 8.37009 32.01 8.51009 31.92C10.0801 31.04 10.9601 29.75 11.1401 27.99L18.4401 26.05C19.6401 27.71 21.3601 28.41 23.6701 28.08C25.0601 33.68 25.0601 38.44 23.6201 42.37H24.8201C26.1601 37.98 26.1201 32.75 24.5901 26.65C21.9601 27.02 19.9701 26.23 18.5801 24.29L10.1601 26.56C9.93009 28.92 8.59009 30.58 6.09009 31.6C7.38009 35.95 9.05009 39.55 11.1301 42.37H12.5201C10.4401 39.83 8.77009 36.5 7.62009 32.33H7.63009Z" fill="#777777"/>
<path d="M23.9101 21.8299L23.8201 21.9199L23.7801 21.9699C23.6401 22.0599 23.5501 22.1099 23.4501 22.1499H23.4101C23.3201 22.2399 23.2301 22.3799 23.0901 22.5199C23.0501 23.9999 23.2301 25.2899 23.6901 26.3099C24.5701 25.0599 25.4901 24.2299 26.3701 23.8599L24.6101 21.6899C24.3801 21.6899 24.1501 21.7399 23.9101 21.8299Z" fill="#1884B5"/>
<path d="M22.2899 22.52L19.1899 24.14C20.1199 25.3 21.3099 25.76 22.7499 25.43L22.2899 22.52Z" fill="#1884B5"/>
<path d="M25.44 46.0201V42.6001H21.93C17.49 47.0401 13.93 52.1301 11.25 57.7201V58.6901L14.81 61.0501C17.44 55.5001 20.96 50.4601 25.44 46.0201Z" fill="#E1593E"/>
<path d="M14.15 50.9201L13.13 42.6001H11.37L11.23 56.0601C12.11 54.3001 13.08 52.5901 14.14 50.9301L14.15 50.9201Z" fill="#1884B5"/>
<path d="M14.8 42.5898L14.25 50.7298C16.15 47.8598 18.27 45.1298 20.72 42.5898H14.8Z" fill="#1884B5"/>
<path d="M10.82 42.5898H9.25005C9.20005 49.3398 9.20005 56.1398 9.30005 62.8898H8.74005C8.79005 65.8498 8.83005 67.6498 8.83005 68.3498H8.78005C8.69005 68.3498 8.59005 68.3998 8.55005 68.4898L8.46005 68.7698L7.21005 68.1198C6.98005 68.2598 6.56005 68.4898 6.05005 68.8098C5.45005 69.0898 5.03005 69.3198 4.80005 69.5498C4.98005 69.6398 5.17005 69.7298 5.40005 69.8698C5.86005 70.0498 6.32005 70.2398 6.74005 70.5198C6.92005 70.6098 7.11005 70.7098 7.25005 70.7998C7.62005 70.5198 8.04005 70.2498 8.50005 69.8798L8.55005 70.1598C8.69005 70.3398 8.78005 70.3398 8.92005 70.2498C8.92005 70.9398 8.96005 71.4998 9.01005 71.9198L9.24005 72.0598C9.24005 72.0598 9.33005 72.1098 9.38005 72.1098V72.2898C9.52005 72.4298 9.56005 72.6598 9.56005 72.8898C9.52005 73.1698 9.47005 73.3498 9.42005 73.3998C9.37005 73.4498 9.33005 73.4898 9.33005 73.5398C9.29005 73.5898 9.24005 73.5898 9.24005 73.6298C9.15005 73.6798 9.10005 73.7698 9.15005 73.9098C9.15005 73.9998 9.15005 74.0898 9.20005 74.2298C9.20005 74.3198 9.25005 74.4098 9.29005 74.5498C9.29005 74.5998 9.33005 74.6898 9.43005 74.7798C9.61005 75.0598 9.84005 75.1998 10.08 75.1998C10.36 75.1998 10.59 75.0598 10.77 74.7398C10.77 74.7398 10.7867 74.7232 10.82 74.6898C10.96 74.4598 11.01 74.2698 11.05 74.0398V73.8498C11 73.7098 11 73.6198 10.96 73.6198C10.96 73.6198 10.9467 73.6032 10.92 73.5698C10.78 73.4798 10.64 73.2898 10.64 73.0198C10.59 72.6998 10.64 72.4598 10.73 72.3298V72.0098C13.04 71.4998 14.2 72.9798 14.2 76.4998C17.71 71.6898 17.81 66.7398 14.48 61.5598C14.48 66.2798 13.37 67.9398 10.96 66.4598L11.01 62.8998H10.87L10.82 42.5998V42.5898Z" fill="#777777"/>
<path d="M15.5902 61.8797C15.4102 61.9697 15.2702 62.1097 15.1702 62.1997H15.5002C15.9102 62.2897 16.3302 62.4797 16.6502 62.7497C16.6502 62.8897 16.6502 63.0297 16.6002 63.1697C16.5102 63.6797 16.5502 64.1397 16.7802 64.5097C17.0102 65.0197 17.4302 65.3397 17.9402 65.6697C18.4902 65.9897 18.6802 66.4997 18.5402 67.1497C18.1202 68.4897 18.4002 69.6897 19.2802 70.7097C19.2802 70.7597 19.3202 70.7997 19.3702 70.7997L20.1602 71.6297C21.2702 71.4897 22.1102 71.9097 22.6102 72.9197C22.9802 73.1997 23.3002 73.4297 23.6702 73.6597C24.7302 74.2197 25.8502 74.5397 27.0502 74.5797L26.7702 74.3997C26.0302 74.1197 25.8002 73.5197 26.1202 72.7397C25.7002 72.8797 25.4702 73.2997 25.3802 73.8497C25.4702 72.8297 25.2402 72.0497 24.6902 71.5397C24.6002 71.4497 24.4602 71.3597 24.3702 71.3097C24.2802 71.0797 24.0902 70.8897 23.8602 70.7097L23.8102 70.6597C23.2102 69.9197 22.9802 69.0397 23.1202 68.1597C23.1702 68.0197 23.2102 67.8797 23.2602 67.6997C23.4002 66.8697 23.1202 66.1697 22.3802 65.6697C22.2902 65.5797 22.1902 65.5297 22.1002 65.4897C21.9102 65.2997 21.7702 65.0697 21.6402 64.8397C21.6402 64.7497 21.6002 64.6997 21.5502 64.6097C21.2702 63.8697 21.0402 63.0797 20.9002 62.2097C20.9002 62.0697 20.8502 61.9297 20.8102 61.7497C20.7202 61.6097 20.5302 61.3797 20.1602 61.0997C19.7902 60.7797 19.0502 60.9097 17.8902 61.4197C17.1502 61.1897 16.4102 61.3697 15.5802 61.8797H15.5902Z" fill="#EF8F30"/>
<path d="M15.8201 60.8098C16.0501 60.7198 16.3301 60.5798 16.5601 60.4898C17.0701 60.3498 17.5301 60.3998 17.8601 60.6698C19.1501 60.1598 20.1701 60.1098 20.9601 60.6198C21.9301 59.3698 22.7601 58.5398 23.4101 58.0798C24.1101 58.9998 24.8001 59.5598 25.4401 59.7498V47.2598C21.4601 51.3298 18.2701 55.8598 15.8201 60.8098Z" fill="#1884B5"/>
<path d="M21.3701 61.1398C21.4101 61.2798 21.4601 61.4198 21.5101 61.5598C21.6501 62.3898 21.8301 63.1798 22.1601 63.9698C22.1601 64.0198 22.2001 64.1098 22.2501 64.1498C22.3401 64.4298 22.4801 64.6598 22.7101 64.8398C22.7101 64.7898 22.7601 64.7898 22.8001 64.7898C23.5401 63.1298 24.5601 61.7798 25.8501 60.6698C25.0201 60.3898 24.2301 59.8398 23.5401 59.0098L21.3701 61.1398Z" fill="#1884B5"/>
<path d="M8.64993 56.4198V42.5898H5.17993C6.19993 49.0598 7.34993 53.6898 8.64993 56.4198Z" fill="#1884B5"/>
<path d="M16.51 12.95L11.98 6.25L7.44995 13L11.98 19.66L16.51 12.95Z" fill="#DB1A28"/>
<path d="M3.52012 4.76004C3.52012 4.76004 3.56012 4.94004 3.56012 5.13004V8.14004C3.56012 8.33004 3.56012 8.51004 3.52012 8.65004C3.52012 8.79004 3.47012 8.93004 3.38012 9.02004C3.33012 9.16004 3.29012 9.25004 3.19012 9.34004C3.10012 9.43004 3.01012 9.52004 2.87012 9.66004C2.92012 9.75004 2.96012 9.85004 3.06012 9.89004C3.34012 9.71004 3.52012 9.57004 3.71012 9.43004C3.85012 9.29004 3.99012 9.11004 4.03012 8.92004C4.12012 8.78004 4.17012 8.55004 4.22012 8.36004C4.22012 8.13004 4.27012 7.85004 4.27012 7.62004V5.12004C4.27012 4.89004 4.27012 4.80004 4.31012 4.75004C4.40012 4.66004 4.49012 4.66004 4.63012 4.66004C4.68012 4.57004 4.68012 4.48004 4.68012 4.29004H3.15012C3.15012 4.47004 3.15012 4.57004 3.19012 4.66004C3.33012 4.66004 3.47012 4.66004 3.51012 4.75004L3.52012 4.76004Z" fill="#DB1A28"/>
<path d="M2.82007 12.07L3.88007 13.64L4.90007 12.07L3.88007 10.5L2.82007 12.07Z" fill="#DB1A28"/>
<path d="M43.1501 65.3498L38.6201 72.0098L43.1501 78.7198L47.6401 72.0098L43.1501 65.2998V65.3498Z" fill="#DB1A28"/>
<path d="M51.5701 76.3098C51.5701 76.1698 51.6101 76.0298 51.7101 75.9398C51.7501 75.7998 51.8001 75.7098 51.8901 75.6198C51.9801 75.5298 52.0801 75.4398 52.2101 75.2998C52.1601 75.2098 52.1201 75.1198 52.0301 75.0698C51.7501 75.2498 51.5701 75.3898 51.3801 75.5298C51.2401 75.6698 51.1001 75.8498 51.0601 76.0398C50.9701 76.1798 50.9201 76.4098 50.8701 76.5898C50.8701 76.8198 50.8201 77.0998 50.8201 77.3798V79.8298C50.8201 80.0598 50.8201 80.1498 50.7801 80.1998C50.6901 80.2898 50.5901 80.2898 50.4501 80.2898C50.4001 80.3798 50.4001 80.4698 50.4001 80.6598H51.9301C51.9301 80.4698 51.9301 80.3798 51.8801 80.2898C51.7401 80.2898 51.6001 80.2898 51.5601 80.1998C51.5101 80.1498 51.5101 80.0098 51.5101 79.8298V76.8198C51.5101 76.6398 51.5101 76.4498 51.5601 76.3098H51.5701Z" fill="#DB1A28"/>
<path d="M51.2402 74.4598L52.3002 72.8898L51.2402 71.3198L50.1802 72.8898L51.2402 74.4598Z" fill="#DB1A28"/>
<path d="M53.28 1.85C52.31 0.97 51.2 0.37 49.95 0.14C49.49 0.05 48.98 0 48.42 0H6.8C6.29 0 5.74 0.05 5.28 0.14C4.03 0.37 2.92 0.97 1.99 1.85C0.65 3.1 0 4.63 0 6.38V78.62C0 80.38 0.65 81.9 1.99 83.15C3.29 84.4 4.9 85 6.8 85H48.42C50.32 85 51.93 84.4 53.28 83.15C54.57 81.9 55.27 80.38 55.27 78.62V6.38C55.27 4.62 54.57 3.1 53.28 1.85ZM47.96 0.51C49.81 0.51 51.34 1.16 52.68 2.36C53.97 3.61 54.62 5.09 54.62 6.85V78.16C54.62 79.92 53.97 81.4 52.68 82.65C51.34 83.85 49.81 84.45 47.96 84.5H7.31C5.42 84.45 3.89 83.85 2.55 82.65C1.25 81.4 0.61 79.92 0.61 78.16V6.84C0.61 5.08 1.26 3.6 2.55 2.35C3.89 1.15 5.42 0.5 7.31 0.5H47.96V0.51Z" fill="#C1B8B3"/>
<path d="M51.2 4.94992V42.3599H4.03V14.1999H3.75V80.2799H49.67V79.9999H4.03V42.6299H51.2V70.7899H51.48V4.66992H5.6V4.94992H51.2Z" fill="black"/>
</g>
<defs>
<clipPath id="clip0_80_189">
<rect width="55.27" height="85" fill="white"/>
</clipPath>
</defs>
</svg>
