<svg width="56" height="85" viewBox="0 0 56 85" fill="none" xmlns="http://www.w3.org/2000/svg">
<g clip-path="url(#clip0_80_325)">
<path d="M53.28 1.85C52.31 0.97 51.2 0.37 50 0.14C49.49 0.05 48.98 0 48.47 0H6.84C6.29 0 5.78 0.05 5.27 0.14C4.07 0.37 2.96 0.97 1.99 1.85C0.69 3.1 0 4.62 0 6.38V78.62C0 80.38 0.69 81.9 1.99 83.15C3.33 84.4 4.9 85 6.85 85H48.47C50.36 85 51.94 84.4 53.28 83.15C54.62 81.9 55.27 80.38 55.27 78.62V6.38C55.27 4.62 54.62 3.1 53.28 1.85Z" fill="#DF6060"/>
<path d="M49.99 0.14C49.48 0.05 48.97 0 48.46 0H6.84C6.29 0 5.78 0.05 5.27 0.14C4.07 0.37 2.96 0.97 1.99 1.85C0.69 3.1 0 4.62 0 6.38V78.62C0 80.38 0.69 81.9 1.99 83.15C3.33 84.4 4.9 85 6.85 85H48.47C50.36 85 51.94 84.4 53.28 83.15C54.62 81.9 55.27 80.38 55.27 78.62V6.38C55.27 4.62 54.62 3.1 53.28 1.85C52.31 0.97 51.2 0.37 50 0.14H49.99ZM48.83 4.58C48.83 4.58 48.97 4.72 49.06 4.81C49.48 5.23 49.85 5.73 50.08 6.24L49.29 7.07L47.81 5.59L48.83 4.57V4.58ZM48.32 4.16L47.35 5.09L45.87 3.66L46.29 3.2C47.03 3.39 47.68 3.71 48.32 4.17V4.16ZM49.76 7.54L50.36 6.94C50.55 7.4 50.64 7.91 50.68 8.47L49.76 7.55V7.54ZM47.35 6.06L48.83 7.54L47.35 9.02L45.87 7.54L47.35 6.06ZM50.73 9.44V9.53L49.3 10.92L47.82 9.49L49.3 8.01L50.73 9.44ZM49.3 11.89L50.41 13.05L48.98 14.48L47.82 13.37L49.3 11.89ZM50.73 12.4L49.76 11.43L50.73 10.46V12.4ZM47.35 9.95L48.83 11.43L47.35 12.91L45.87 11.43L47.35 9.95ZM49.43 18.88L50.72 17.59V20.18L49.43 18.89V18.88ZM47.02 17.4L48.46 18.88L47.02 20.36L45.54 18.88L47.02 17.4ZM48.46 15L47.02 16.48L45.86 15.32L47.34 13.84L48.45 15H48.46ZM50.72 16.3L49.43 15L50.72 13.71V16.3ZM48.96 15.47L50.39 16.95L48.96 18.43L47.48 16.95L48.96 15.47ZM41.05 3.68L39.57 5.11L38.09 3.68L38.65 3.08H40.45L41.05 3.68ZM41.47 3.17L41.38 3.08H41.57L41.48 3.17H41.47ZM37.63 3.17L37.54 3.08H37.73L37.64 3.17H37.63ZM39.07 5.62L37.63 7.1L36.15 5.62L37.63 4.14L39.07 5.62ZM41.52 7.1L40.04 5.62L41.52 4.14L43 5.62L41.52 7.1ZM39.58 6.08L41.06 7.56L39.58 9.04L38.1 7.56L39.58 6.08ZM45.41 3.17L45.32 3.08C45.32 3.08 45.41 3.08 45.51 3.13L45.42 3.18L45.41 3.17ZM44.35 3.08L44.9 3.68L43.47 5.11L41.99 3.68L42.54 3.08H44.34H44.35ZM41.99 7.57L43.47 6.09L44.9 7.57L43.47 9.05L41.99 7.57ZM45.41 7.11L43.93 5.63L45.41 4.15L46.89 5.63L45.41 7.11ZM30.33 3.69L30.88 3.09H32.64L33.24 3.69L31.8 5.12L30.32 3.69H30.33ZM29.36 3.69L28.25 4.75L26.77 3.32L27 3.09H28.8L29.35 3.69H29.36ZM29.73 3.09H29.91L29.82 3.18L29.73 3.09ZM28.76 5.26L29.82 4.15L31.3 5.63L30.19 6.74L28.75 5.26H28.76ZM28.25 5.72L29.73 7.2L28.25 8.68L26.77 7.2L28.25 5.72ZM30.7 7.2L31.81 6.09L33.25 7.57L32.19 8.68L30.71 7.2H30.7ZM34.77 3.08H36.57L37.12 3.68L35.64 5.11L34.21 3.68L34.76 3.08H34.77ZM33.75 3.17L33.66 3.08H33.8L33.76 3.17H33.75ZM33.7 4.14L35.18 5.62L33.7 7.1L32.22 5.62L33.7 4.14ZM34.21 7.56L35.64 6.08L37.12 7.56L35.64 9.04L34.21 7.56ZM35.23 9.5L34.07 10.61L32.59 9.13L33.75 8.02L35.23 9.5ZM34.07 11.54L35.55 13.02L34.07 14.5L32.59 13.02L34.07 11.54ZM36.01 12.56L34.58 11.08L35.69 9.97L37.17 11.45L36.01 12.56ZM30.18 11.54L31.66 13.02L30.18 14.5L28.74 13.02L30.18 11.54ZM28.24 9.6L29.72 11.08L28.24 12.56L26.76 11.08L28.24 9.6ZM30.69 11.08L32.17 9.6L33.6 11.08L32.17 12.56L30.69 11.08ZM31.66 9.14L30.18 10.62L28.74 9.14L30.18 7.66L31.66 9.14ZM30.69 18.85L32.17 17.37L33.6 18.85L32.17 20.33L30.69 18.85ZM28.24 17.37L29.72 18.85L28.24 20.33L26.76 18.85L28.24 17.37ZM29.72 14.97L28.24 16.45L26.76 14.97L28.24 13.54L29.72 14.97ZM30.18 15.43L31.66 16.91L30.18 18.39L28.74 16.91L30.18 15.43ZM32.17 16.45L30.69 14.97L32.17 13.54L33.6 14.97L32.17 16.45ZM34.57 18.85L36 17.37L37.48 18.85L36 20.33L34.57 18.85ZM36 16.45L34.57 14.97L36 13.54L37.48 14.97L36 16.45ZM32.58 16.91L34.06 15.43L35.54 16.91L34.06 18.39L32.58 16.91ZM45.39 10.94L43.91 9.51L45.39 8.03L46.87 9.51L45.39 10.94ZM44.88 11.45L43.45 12.93L41.97 11.45L43.45 9.97L44.88 11.45ZM43.91 13.39L45.39 11.91L46.87 13.39L45.39 14.87L43.91 13.39ZM41.04 11.45L39.56 12.93L38.08 11.45L39.56 9.97L41.04 11.45ZM40.02 13.39L41.45 11.91L42.93 13.39L41.45 14.87L40.02 13.39ZM37.61 11.91L39.05 13.39L37.99 14.5L36.51 13.02L37.62 11.91H37.61ZM39.05 9.5L37.61 10.93L36.13 9.5L37.61 8.02L39.05 9.5ZM41.5 10.93L40.02 9.5L41.45 8.02L42.98 9.5L41.5 10.93ZM37.98 15.42L39.41 16.9L37.98 18.38L36.5 16.9L37.98 15.42ZM39.92 17.36L41.36 18.84L39.92 20.32L38.44 18.84L39.92 17.36ZM41.03 15.32L39.92 16.43L38.44 14.95L39.55 13.84L41.03 15.32ZM40.38 16.89L41.49 15.78L42.97 17.26L41.81 18.37L40.38 16.89ZM45 18.42L43.89 17.26L45.37 15.78L46.48 16.94L45 18.42ZM42.32 18.84L43.43 17.73L44.54 18.89L43.48 20L42.32 18.84ZM43.43 16.81L41.95 15.33L43.43 13.85L44.86 15.33L43.43 16.81ZM45.37 21.94L43.94 20.46L45.05 19.35L46.53 20.83L45.38 21.94H45.37ZM43.47 23.88L41.99 22.4L43.47 20.92L44.9 22.4L43.47 23.88ZM43.93 24.34L45.36 22.86L46.84 24.34L45.36 25.82L43.93 24.34ZM39.4 20.78L37.97 22.26L36.49 20.78L37.97 19.35L39.4 20.78ZM40.05 24.34L41.48 22.86L42.96 24.34L41.48 25.82L40.05 24.34ZM37.97 23.18L39.08 24.34L37.64 25.82L36.48 24.66L37.96 23.18H37.97ZM41.49 21.93L40.38 20.77L41.81 19.34L42.97 20.45L41.49 21.93ZM39.87 21.28L41.03 22.39L39.55 23.87L38.39 22.76L39.87 21.28ZM39.55 28.73L41.03 30.16L39.55 31.64L38.12 30.16L39.55 28.73ZM37.65 26.74L39.09 28.22L37.65 29.7L36.17 28.22L37.65 26.74ZM41.03 26.28L39.55 27.76L38.12 26.28L39.55 24.85L41.03 26.28ZM40.06 28.22L41.49 26.74L42.97 28.22L41.49 29.7L40.06 28.22ZM42 30.16L43.48 28.73L44.91 30.16L43.48 31.64L42 30.16ZM43.48 27.76L42 26.28L43.48 24.85L44.91 26.28L43.48 27.76ZM43.94 28.22L45.37 26.74L46.85 28.27L45.37 29.7L43.94 28.22ZM35.52 20.77L34.04 22.25L32.56 20.77L34.04 19.34L35.52 20.77ZM34.04 23.17L35.52 24.65L34.04 26.13L32.56 24.65L34.04 23.17ZM34.55 22.75L35.98 21.27L37.46 22.75L35.98 24.18L34.55 22.75ZM32.15 24.18L30.67 22.75L32.15 21.27L33.58 22.75L32.15 24.18ZM30.16 23.16L31.64 24.64L30.16 26.12L28.72 24.64L30.16 23.16ZM29.7 22.74L28.22 24.17L26.74 22.74L28.22 21.26L29.7 22.74ZM31.64 20.75L30.16 22.23L28.72 20.75L30.16 19.32L31.64 20.75ZM30.67 30.46L32.15 28.98L33.26 30.14L31.78 31.62L30.67 30.46ZM31.64 28.56L30.16 29.99L28.72 28.56L30.16 27.08L31.64 28.56ZM28.22 29.02L29.7 30.5L28.22 31.93L26.74 30.5L28.22 29.02ZM29.7 26.57L28.22 28.05L26.74 26.57L28.22 25.14L29.7 26.57ZM32.15 28.05L30.67 26.57L32.15 25.14L33.58 26.57L32.15 28.05ZM34.23 30.13L35.66 28.7L37.14 30.13L35.66 31.61L34.23 30.13ZM35.66 27.73L34.55 26.57L35.98 25.14L37.14 26.25L35.66 27.73ZM33.72 29.67L32.56 28.56L34.04 27.08L35.2 28.19L33.72 29.67ZM35.2 32.07L33.72 33.55L32.24 32.07L33.72 30.64L35.2 32.07ZM33.72 34.52L35.2 35.95L33.72 37.43L32.24 35.95L33.72 34.52ZM34.23 34.06L35.66 32.58L37.14 34.06L35.66 35.49L34.23 34.06ZM31.78 35.49L30.3 34.06L31.78 32.58L33.26 34.06L31.78 35.49ZM29.38 34.06L27.9 35.49L26.75 34.38L28.23 32.9L29.39 34.06H29.38ZM28.41 35.96L29.84 34.53L31.32 35.96L29.84 37.44L28.41 35.96ZM29.84 33.56L28.73 32.4L30.17 30.97L31.33 32.08L29.85 33.56H29.84ZM30.3 41.79L31.78 40.36L33.26 41.84L31.83 43.27L30.3 41.79ZM29.84 41.33L28.41 39.9L29.84 38.42L31.32 39.9L29.84 41.33ZM27.9 40.36L29.38 41.84L27.9 43.27L26.42 41.84L27.9 40.36ZM29.38 37.91L27.9 39.39L26.42 37.91L27.9 36.48L29.38 37.91ZM31.78 39.39L30.3 37.91L31.78 36.48L33.26 37.91L31.78 39.39ZM34.23 41.84L35.66 40.36L37.14 41.84L35.66 43.27L34.23 41.84ZM35.66 39.39L34.23 37.91L35.66 36.48L37.14 37.91L35.66 39.39ZM33.72 41.33L32.24 39.9L33.72 38.42L35.2 39.9L33.72 41.33ZM45.37 33.56L43.94 32.08L45.37 30.65L46.85 32.08L45.37 33.56ZM44.91 34.07L43.48 35.5L42 34.07L43.48 32.59L44.91 34.07ZM43.94 35.97L45.37 34.54L46.85 35.97L45.37 37.45L43.94 35.97ZM40.06 35.97L41.49 34.54L42.97 35.97L41.49 37.45L40.06 35.97ZM41.03 34.07L39.55 35.5L38.12 34.07L39.55 32.59L41.03 34.07ZM37.65 34.53L39.09 35.96L37.65 37.44L36.17 35.96L37.65 34.53ZM39.09 32.08L37.65 33.56L36.17 32.08L37.65 30.65L39.09 32.08ZM41.49 33.56L40.06 32.08L41.49 30.65L42.97 32.08L41.49 33.56ZM41.49 41.33L40.06 39.9L41.49 38.42L42.97 39.9L41.49 41.33ZM39.55 40.36L41.03 41.84L39.55 43.27L38.12 41.84L39.55 40.36ZM39.09 39.9L37.65 41.33L36.17 39.9L37.65 38.42L39.09 39.9ZM41.03 37.91L39.55 39.39L38.12 37.91L39.55 36.48L41.03 37.91ZM45.38 41.33L43.95 39.9L45.38 38.42L46.86 39.9L45.38 41.33ZM42 41.79L43.48 40.36L44.91 41.84L43.48 43.27L42 41.79ZM43.48 39.39L42 37.91L43.48 36.48L44.91 37.91L43.48 39.39ZM50.37 20.8L48.94 22.28L47.46 20.8L48.94 19.32L50.37 20.8ZM48.47 22.74L47.31 23.85L45.88 22.37L46.99 21.26L48.47 22.74ZM48.93 23.2L50.36 24.68L49.3 25.79L47.82 24.31L48.93 23.2ZM50.69 24.03L49.4 22.73L50.69 21.44V24.03ZM49.3 26.71L50.69 28.14V28.28L49.3 29.67L47.82 28.19L49.3 26.71ZM50.69 27.17L49.77 26.25L50.69 25.32V27.17ZM49.77 30.13L50.69 29.21V31.06L49.77 30.14V30.13ZM48.8 26.24L47.32 27.72L45.89 26.24L47.32 24.81L48.8 26.24ZM47.32 28.69L48.8 30.12L47.32 31.6L45.89 30.12L47.32 28.69ZM50.7 32.02V32.16L49.31 33.55L47.83 32.07L49.31 30.64L50.7 32.03V32.02ZM50.7 35.9V36.04L49.31 37.43L47.83 35.95L49.31 34.52L50.7 35.91V35.9ZM50.7 34.93L49.78 34.05L50.7 33.08V34.93ZM47.32 32.57L48.8 34.05L47.32 35.48L45.89 34.05L47.32 32.57ZM49.77 37.89L50.69 37.01V38.81L49.77 37.88V37.89ZM50.69 39.92L49.3 41.31L47.82 39.88L49.3 38.4L50.69 39.79V39.93V39.92ZM49.77 41.82L50.69 40.9V42.7L49.77 41.82ZM47.32 40.34L48.8 41.82L47.32 43.25L45.89 41.82L47.32 40.34ZM48.8 37.89L47.32 39.37L45.89 37.89L47.32 36.46L48.8 37.89ZM20.95 5.23L22.43 3.75L23.91 5.23L22.43 6.71L20.95 5.23ZM21.74 3.06L21.97 3.29L20.49 4.77L19.01 3.29L19.24 3.06H21.74ZM18.55 3.75L20.03 5.23L18.55 6.71L17.07 5.23L18.55 3.75ZM19.01 7.17L20.49 5.69L21.97 7.17L20.49 8.65L19.01 7.17ZM24.38 5.69L25.86 7.17L24.38 8.65L22.95 7.17L24.38 5.69ZM26.32 6.71L24.89 5.23L26.32 3.75L27.8 5.23L26.32 6.71ZM25.67 3.06L25.86 3.29L24.38 4.72L22.95 3.29L23.13 3.06H25.67ZM13.09 5.1L11.61 3.67L12.16 3.07H13.96L14.51 3.67L13.08 5.1H13.09ZM10.08 3.06L10.68 3.66L9.2 5.09L7.72 3.66C8.41 3.29 9.25 3.11 10.08 3.06ZM11.05 3.06H11.24L11.15 3.15L11.06 3.06H11.05ZM11.14 7.08L9.66 5.6L11.1 4.12L12.63 5.6L11.15 7.08H11.14ZM9.2 6.06L10.68 7.54L9.2 9.02L7.72 7.54L9.2 6.06ZM11.6 7.54L13.08 6.06L14.14 7.17L12.7 8.65L11.59 7.54H11.6ZM18.07 3.28L16.59 4.71L15.48 3.65L16.03 3.05H17.83L18.06 3.28H18.07ZM15.02 3.14L14.88 3.05H15.11L15.02 3.14ZM16.59 5.68L18.07 7.16L16.59 8.64L15.11 7.16L16.59 5.68ZM15.02 4.11L16.13 5.22L14.65 6.7L13.54 5.59L15.02 4.11ZM14.65 11.51L16.13 12.99L14.65 14.47L13.17 12.99L14.65 11.51ZM15.11 11.05L16.59 9.57L18.07 11.05L16.59 12.53L15.11 11.05ZM16.13 9.11L14.65 10.59L13.17 9.11L14.65 7.63L16.13 9.11ZM12.71 12.53L11.23 11.05L12.71 9.57L14.19 11.05L12.71 12.53ZM9.29 12.99L10.77 11.51L12.25 12.99L10.77 14.47L9.29 12.99ZM9.2 9.94L10.31 11.05L8.83 12.53L7.72 11.42L9.2 9.94ZM10.77 10.59L9.66 9.48L11.14 8L12.25 9.11L10.77 10.59ZM11.23 18.82L12.71 17.34L14.15 18.82L12.71 20.3L11.23 18.82ZM12.71 16.42L11.23 14.94L12.71 13.51L14.15 14.94L12.71 16.42ZM9.29 16.88L10.77 15.4L12.25 16.88L10.77 18.36L9.29 16.88ZM16.14 16.88L14.66 18.36L13.18 16.88L14.66 15.4L16.14 16.88ZM16.6 17.34L18.08 18.82L16.6 20.3L15.12 18.82L16.6 17.34ZM18.08 14.94L16.6 16.42L15.12 14.94L16.6 13.51L18.08 14.94ZM26.31 10.59L24.88 9.11L26.31 7.63L27.79 9.11L26.31 10.59ZM25.85 11.05L24.37 12.53L22.94 11.05L24.37 9.57L25.85 11.05ZM24.88 12.99L26.31 11.51L27.79 12.99L26.31 14.47L24.88 12.99ZM20.95 12.99L22.43 11.51L23.91 12.99L22.43 14.47L20.95 12.99ZM18.54 11.51L20.02 12.99L18.54 14.47L17.06 12.99L18.54 11.51ZM20.02 9.11L18.54 10.59L17.06 9.11L18.54 7.63L20.02 9.11ZM19 11.05L20.48 9.57L21.96 11.05L20.48 12.53L19 11.05ZM22.42 10.59L20.94 9.11L22.42 7.63L23.9 9.11L22.42 10.59ZM19 18.82L20.48 17.34L21.96 18.82L20.48 20.3L19 18.82ZM18.54 15.4L20.02 16.88L18.54 18.36L17.06 16.88L18.54 15.4ZM20.48 16.42L19 14.94L20.48 13.51L21.96 14.94L20.48 16.42ZM20.94 16.88L22.42 15.4L23.9 16.88L22.42 18.36L20.94 16.88ZM24.87 16.88L26.3 15.4L27.78 16.88L26.3 18.36L24.87 16.88ZM24.36 17.34L25.84 18.82L24.36 20.3L22.93 18.82L24.36 17.34ZM25.84 14.94L24.36 16.42L22.93 14.94L24.36 13.51L25.84 14.94ZM8.69 5.6L7.26 7.08L5.78 5.6L7.26 4.12L8.69 5.6ZM5.27 6.06L6.75 7.54L5.27 9.02L4.58 8.28C4.67 7.49 4.9 6.8 5.23 6.11L5.27 6.06ZM8.69 9.48L7.26 10.91L5.78 9.48L7.26 8L8.69 9.48ZM4.57 10.68L5.26 9.94L6.74 11.42L5.26 12.9L4.57 12.11V10.68ZM4.57 9.76V9.2L4.85 9.48L4.57 9.76ZM4.57 13.65V13.09L4.85 13.37L4.57 13.65ZM7.25 11.89L8.31 13L6.88 14.48L5.77 13.37L7.25 11.89ZM8.82 16.42L7.34 14.94L8.82 13.51L10.3 14.94L8.82 16.42ZM6.88 15.4L8.31 16.88L6.88 18.36L5.4 16.88L6.88 15.4ZM4.94 16.42L4.57 16.05V14.57L5.26 13.83L6.42 14.94L4.94 16.42ZM4.94 17.34L6.42 18.82L4.94 20.3L4.57 19.88V17.75L4.94 17.33V17.34ZM7.35 18.82L8.83 17.34L10.31 18.82L8.83 20.3L7.35 18.82ZM8.32 20.76L6.89 22.24L5.41 20.76L6.89 19.33L8.32 20.76ZM4.57 21.64L4.89 21.27L6.37 22.75L5.26 23.86L4.57 23.12V21.64ZM4.57 24.55V24.09L4.8 24.32L4.57 24.55ZM6.88 23.16L8.31 24.64L7.2 25.8L5.72 24.32L6.88 23.16ZM8.82 24.18L7.34 22.75L8.82 21.27L10.3 22.75L8.82 24.18ZM7.2 26.72L8.68 28.2L7.2 29.68L5.72 28.2L7.2 26.72ZM4.56 27.97L4.79 28.2L4.56 28.48V27.97ZM5.25 27.74L4.56 27V25.52L5.25 24.83L6.73 26.26L5.25 27.74ZM4.56 30.93V29.4L5.25 28.71L6.73 30.14L5.25 31.62L4.56 30.93ZM7.66 26.26L8.82 25.15L10.3 26.58L9.14 27.74L7.66 26.26ZM8.63 32.09L7.2 33.57L5.72 32.09L7.2 30.66L8.63 32.09ZM4.56 33.29L5.25 32.6L6.73 34.08L5.25 35.51L4.56 34.82V33.29ZM4.56 32.37V31.86L4.79 32.09L4.56 32.37ZM4.56 36.25V35.74L4.79 35.97L4.56 36.25ZM7.2 34.54L8.63 35.97L7.2 37.45L5.72 35.97L7.2 34.54ZM5.26 39.4L4.57 38.66V37.18L5.26 36.49L6.74 37.92L5.26 39.4ZM4.8 39.91L4.57 40.14V39.63L4.8 39.91ZM4.57 41.07L5.26 40.38L6.74 41.86L5.26 43.29L4.57 42.6V41.07ZM8.69 39.91L7.21 41.34L5.73 39.91L7.21 38.43L8.69 39.91ZM24.37 21.27L25.85 22.75L24.37 24.18L22.94 22.75L24.37 21.27ZM24.88 24.65L26.31 23.17L27.79 24.65L26.31 26.13L24.88 24.65ZM26.31 22.24L24.88 20.76L26.31 19.33L27.79 20.76L26.31 22.24ZM20.94 24.65L22.42 23.17L23.9 24.65L22.42 26.13L20.94 24.65ZM20.48 24.19L19 22.76L20.48 21.28L21.96 22.76L20.48 24.19ZM18.54 23.17L20.02 24.65L18.54 26.13L17.06 24.65L18.54 23.17ZM20.02 20.77L18.54 22.25L17.06 20.77L18.54 19.34L20.02 20.77ZM22.42 22.25L20.94 20.77L22.42 19.34L23.9 20.77L22.42 22.25ZM22.42 30.02L20.94 28.59L22.42 27.11L23.9 28.59L22.42 30.02ZM19 30.48L20.48 29L21.96 30.53L20.48 31.96L19 30.48ZM20.02 28.58L18.54 30.01L17.06 28.58L18.54 27.1L20.02 28.58ZM20.48 28.07L19 26.59L20.48 25.16L21.96 26.59L20.48 28.07ZM25.85 26.59L24.37 28.07L22.94 26.59L24.37 25.16L25.85 26.59ZM26.31 30.01L24.88 28.58L26.31 27.1L27.79 28.58L26.31 30.01ZM24.37 29.04L25.85 30.52L24.37 31.95L22.94 30.52L24.37 29.04ZM16.14 20.76L14.66 22.24L13.18 20.76L14.66 19.33L16.14 20.76ZM16.6 21.27L18.08 22.75L16.6 24.18L15.12 22.75L16.6 21.27ZM14.66 23.17L16.14 24.65L14.66 26.13L13.18 24.65L14.66 23.17ZM12.72 24.19L11.24 22.76L12.72 21.28L14.2 22.76L12.72 24.19ZM9.3 24.65L10.78 23.17L12.26 24.65L10.78 26.13L9.3 24.65ZM10.78 22.24L9.3 20.76L10.78 19.33L12.26 20.76L10.78 22.24ZM12.72 28.07L11.24 26.59L12.72 25.16L14.16 26.59L12.72 28.07ZM11.57 30.15L12.72 29.04L14.16 30.52L13.05 31.63L11.57 30.15ZM9.16 28.72L10.64 30.15L9.16 31.63L7.68 30.15L9.16 28.72ZM9.62 28.21L10.78 27.1L12.26 28.58L11.1 29.69L9.62 28.21ZM16.14 28.58L14.66 30.01L13.18 28.58L14.66 27.1L16.14 28.58ZM16.6 29.04L18.08 30.52L16.6 31.95L15.12 30.52L16.6 29.04ZM18.08 26.59L16.6 28.07L15.12 26.59L16.6 25.16L18.08 26.59ZM16.14 32.42L14.98 33.58L13.55 32.1L14.66 30.99L16.14 32.42ZM16.6 32.93L18.08 34.41L16.92 35.52L15.44 34.09L16.6 32.93ZM14.98 34.55L16.46 35.98L14.98 37.46L13.55 35.98L14.98 34.55ZM13.04 35.52L11.56 34.09L13.04 32.61L14.52 34.09L13.04 35.52ZM9.62 35.98L11.1 34.55L12.58 35.98L11.1 37.46L9.62 35.98ZM10.64 34.08L9.16 35.51L7.68 34.08L9.16 32.6L10.64 34.08ZM11.1 33.57L9.62 32.09L11.1 30.66L12.58 32.09L11.1 33.57ZM11.56 41.85L13.04 40.37L14.52 41.85L13.04 43.28L11.56 41.85ZM11.1 41.34L9.62 39.91L11.1 38.43L12.58 39.91L11.1 41.34ZM9.16 40.37L10.64 41.85L9.16 43.28L7.68 41.8L9.16 40.37ZM10.64 37.92L9.16 39.4L7.68 37.92L9.16 36.49L10.64 37.92ZM13.04 39.4L11.56 37.92L13.04 36.49L14.52 37.92L13.04 39.4ZM15.44 41.85L16.92 40.37L18.4 41.85L16.92 43.28L15.44 41.85ZM16.46 39.91L14.98 41.34L13.55 39.91L14.98 38.43L16.46 39.91ZM16.92 39.4L15.44 37.92L16.92 36.49L18.4 37.92L16.92 39.4ZM24.88 36.3L26.31 34.87L27.46 35.98L25.98 37.46L24.87 36.3H24.88ZM26.31 33.9L24.88 32.42L26.31 30.99L27.79 32.42L26.31 33.9ZM24.37 32.93L25.85 34.41L24.37 35.84L22.94 34.41L24.37 32.93ZM20.95 36.35L22.43 34.87L23.91 36.35L22.43 37.83L20.95 36.35ZM20.49 35.84L19.01 34.41L20.49 32.93L21.97 34.41L20.49 35.84ZM18.55 34.87L20.03 36.35L18.87 37.46L17.39 35.98L18.54 34.87H18.55ZM20.03 32.42L18.55 33.9L17.07 32.42L18.55 30.99L20.03 32.42ZM22.43 33.9L20.95 32.42L22.43 30.99L23.91 32.42L22.43 33.9ZM22.43 41.02L21.27 39.91L22.43 38.75L23.59 39.91L22.43 41.02ZM20.81 40.37L21.97 41.48L20.49 42.96L19.38 41.8L20.81 40.37ZM20.35 39.91L18.87 41.34L17.39 39.91L18.87 38.43L20.35 39.91ZM21.97 38.24L20.81 39.4L19.38 37.92L20.49 36.81L21.97 38.24ZM25.53 37.92L24.05 39.4L22.94 38.24L24.37 36.81L25.53 37.92ZM24.05 40.37L25.53 41.85L24.37 42.96L22.94 41.48L24.05 40.37ZM27.47 39.91L25.99 41.34L24.51 39.91L25.99 38.43L27.47 39.91ZM26.32 44.9L24.89 43.47L26 42.31L27.48 43.79L26.33 44.9H26.32ZM24.89 47.31L26.32 45.88L27.8 47.31L26.32 48.79L24.89 47.31ZM25.86 45.41L24.38 46.89L22.95 45.41L24.38 43.93L25.86 45.41ZM20.96 47.31L22.44 45.88L23.92 47.31L22.44 48.79L20.96 47.31ZM20.5 46.89L19.02 45.41L20.5 43.93L21.98 45.41L20.5 46.89ZM18.56 45.87L20.04 47.3L18.56 48.78L17.08 47.3L18.56 45.87ZM20.04 43.47L18.56 44.9L17.41 43.79L18.89 42.31L20.05 43.47H20.04ZM22.44 44.9L20.96 43.47L22.44 41.99L23.92 43.47L22.44 44.9ZM22.44 52.72L20.96 51.24L22.44 49.76L23.92 51.24L22.44 52.72ZM20.04 51.24L18.56 52.72L17.08 51.24L18.56 49.76L20.04 51.24ZM19.02 53.14L20.5 51.71L21.98 53.19L20.5 54.67L19.02 53.14ZM20.5 50.74L19.02 49.31L20.5 47.83L21.98 49.31L20.5 50.74ZM25.87 49.31L24.39 50.74L22.96 49.31L24.39 47.83L25.87 49.31ZM24.9 51.25L26.33 49.77L27.81 51.25L26.33 52.73L24.9 51.25ZM24.39 51.71L25.87 53.19L24.39 54.67L22.96 53.19L24.39 51.71ZM15 46.21L16.16 47.32L14.68 48.8L13.57 47.64L15 46.21ZM16.94 44.27L18.1 45.43L16.62 46.91L15.46 45.75L16.94 44.27ZM16.48 43.81L15 45.24L13.57 43.81L15 42.33L16.48 43.81ZM13.06 47.19L11.58 45.76L13.06 44.28L14.54 45.76L13.06 47.19ZM9.64 47.7L11.12 46.22L12.6 47.7L11.12 49.18L9.64 47.7ZM10.66 45.76L9.18 47.19L7.7 45.76L9.18 44.28L10.66 45.76ZM11.12 45.25L9.64 43.82L11.12 42.34L12.6 43.82L11.12 45.25ZM11.26 53.2L12.74 51.72L14.18 53.2L12.74 54.68L11.26 53.2ZM10.66 49.64L9.18 51.07L7.7 49.64L9.18 48.16L10.66 49.64ZM9.18 52.04L10.34 53.15L8.86 54.68L7.7 53.52L9.18 52.04ZM10.8 52.73L9.64 51.57L11.12 50.09L12.28 51.25L10.8 52.73ZM12.74 50.74L11.59 49.63L13.07 48.15L14.18 49.31L12.74 50.74ZM14.68 49.77L16.16 51.25L14.68 52.73L13.2 51.25L14.68 49.77ZM16.62 51.71L18.1 53.19L16.62 54.67L15.14 53.19L16.62 51.71ZM18.1 49.31L16.62 50.74L15.14 49.31L16.62 47.83L18.1 49.31ZM14.68 57.54L16.16 59.02L14.68 60.5L13.2 59.02L14.68 57.54ZM16.62 55.6L18.1 57.08L16.62 58.56L15.14 57.08L16.62 55.6ZM16.16 55.14L14.68 56.57L13.2 55.14L14.68 53.66L16.16 55.14ZM12.74 58.56L11.26 57.08L12.74 55.6L14.22 57.08L12.74 58.56ZM9.32 59.02L10.8 57.54L12.28 59.02L10.8 60.5L9.32 59.02ZM10.8 56.57L9.32 55.14L10.8 53.66L12.28 55.14L10.8 56.57ZM12.74 62.4L11.26 60.97L12.74 59.49L14.22 60.97L12.74 62.4ZM11.26 64.85L12.74 63.37L14.18 64.85L12.74 66.33L11.26 64.85ZM10.8 64.39L9.32 62.91L10.8 61.43L12.28 62.91L10.8 64.39ZM14.68 61.43L16.16 62.91L14.68 64.39L13.2 62.91L14.68 61.43ZM18.1 60.97L16.62 62.4L15.14 60.97L16.62 59.49L18.1 60.97ZM16.62 63.38L18.1 64.86L16.62 66.34L15.14 64.86L16.62 63.38ZM24.9 59.03L26.33 57.55L27.81 59.03L26.33 60.51L24.9 59.03ZM24.39 55.61L25.87 57.09L24.39 58.57L22.96 57.09L24.39 55.61ZM26.33 56.58L24.9 55.15L26.33 53.67L27.81 55.15L26.33 56.58ZM20.96 59.03L22.44 57.55L23.92 59.03L22.44 60.51L20.96 59.03ZM20.5 58.57L19.02 57.09L20.5 55.61L21.98 57.09L20.5 58.57ZM18.56 57.55L20.04 59.03L18.56 60.51L17.08 59.03L18.56 57.55ZM20.04 55.15L18.56 56.58L17.08 55.15L18.56 53.67L20.04 55.15ZM22.44 56.58L20.96 55.15L22.44 53.67L23.92 55.15L22.44 56.58ZM20.5 62.41L19.02 60.98L20.5 59.5L21.98 60.98L20.5 62.41ZM22.44 64.4L20.96 62.92L22.44 61.44L23.92 62.92L22.44 64.4ZM19.02 64.86L20.5 63.38L21.98 64.86L20.5 66.34L19.02 64.86ZM20.04 62.92L18.56 64.4L17.08 62.92L18.56 61.44L20.04 62.92ZM24.9 62.92L26.33 61.44L27.81 62.92L26.33 64.4L24.9 62.92ZM24.39 63.38L25.87 64.86L24.39 66.34L22.96 64.86L24.39 63.38ZM25.87 60.97L24.39 62.4L22.96 60.97L24.39 59.49L25.87 60.97ZM8.71 43.81L7.23 45.24L5.75 43.81L7.23 42.33L8.71 43.81ZM4.59 44.97L5.28 44.28L6.76 45.76L5.28 47.19L4.59 46.5V44.97ZM4.59 43.58L4.82 43.81L4.59 44.04V43.58ZM4.59 47.93V47.42L4.82 47.7L4.59 47.93ZM7.23 46.22L8.66 47.7L7.23 49.18L5.75 47.7L7.23 46.22ZM4.59 50.38V48.86L5.28 48.17L6.76 49.65L5.28 51.08L4.59 50.39V50.38ZM4.82 51.58L4.59 51.81V51.35L4.82 51.58ZM5.28 52.04L6.76 53.52L5.28 55L4.59 54.26V52.78L5.28 52.04ZM8.7 51.58L7.22 53.06L5.74 51.58L7.22 50.1L8.7 51.58ZM7.22 53.98L8.33 55.14L6.9 56.57L5.74 55.46L7.22 53.98ZM4.81 55.46L4.58 55.69V55.23L4.81 55.46ZM4.58 56.62L5.27 55.93L6.38 57.09L4.9 58.57L4.58 58.15V56.62ZM8.83 58.56L7.35 57.08L8.83 55.6L10.31 57.08L8.83 58.56ZM6.89 57.54L8.32 59.02L6.89 60.5L5.41 59.02L6.89 57.54ZM4.58 62.07V59.85L4.95 59.48L6.43 60.96L4.9 62.39L4.58 62.07ZM4.95 63.37L6.43 64.85L5.27 65.96L4.58 65.22V63.79L4.95 63.37ZM8.33 62.91L6.9 64.39L5.42 62.91L6.9 61.43L8.33 62.91ZM7.36 64.85L8.84 63.37L10.32 64.85L8.84 66.33L7.36 64.85ZM8.84 62.4L7.36 60.97L8.84 59.49L10.32 60.97L8.84 62.4ZM6.9 65.31L8.33 66.79L7.27 67.9L5.79 66.42L6.9 65.31ZM4.59 67.67L5.28 66.93L6.76 68.36L5.28 69.84L4.59 69.1V67.67ZM4.59 66.7V66.15L4.87 66.43L4.59 66.71V66.7ZM4.59 70.59V70.03L4.87 70.31L4.59 70.59ZM7.27 68.83L8.7 70.31L7.27 71.79L5.79 70.31L7.27 68.83ZM7.73 68.37L8.84 67.26L10.32 68.74L9.21 69.85L7.73 68.37ZM5.28 73.73L4.59 72.99V71.51L5.28 70.82L6.76 72.25L5.28 73.73ZM4.86 74.24L4.58 74.47V73.96L4.86 74.24ZM4.58 75.44L5.27 74.65L6.75 76.13L5.27 77.61L4.62 76.92C4.57 76.64 4.53 76.32 4.57 75.99V75.43L4.58 75.44ZM8.7 74.24L7.27 75.67L5.79 74.24L7.27 72.76L8.7 74.24ZM7.27 76.64L8.7 78.07L7.27 79.55L5.79 78.07L7.27 76.64ZM5.14 78.72L5.28 78.58L6.76 80.06L6.44 80.38C6.35 80.33 6.3 80.29 6.21 80.19C5.79 79.73 5.42 79.22 5.15 78.71L5.14 78.72ZM8.33 81.63C7.82 81.4 7.36 81.17 6.94 80.84L7.26 80.52L8.32 81.63H8.33ZM26.32 68.27L24.89 66.79L26.32 65.31L27.8 66.79L26.32 68.27ZM24.38 67.25L25.86 68.73L24.38 70.21L22.95 68.73L24.38 67.25ZM24.84 70.67L26.32 69.19L27.8 70.67L26.32 72.15L24.84 70.67ZM20.96 66.78L22.44 65.3L23.92 66.78L22.44 68.26L20.96 66.78ZM18.55 65.3L20.03 66.78L18.55 68.26L17.07 66.78L18.55 65.3ZM18.55 69.19L20.03 70.67L18.55 72.15L17.07 70.67L18.55 69.19ZM20.49 70.21L19.01 68.73L20.49 67.25L21.97 68.73L20.49 70.21ZM20.95 70.67L22.43 69.19L23.91 70.67L22.43 72.15L20.95 70.67ZM19.01 72.61L20.49 71.18L21.97 72.61L20.49 74.09L19.01 72.61ZM19.01 76.49L20.49 75.01L21.97 76.49L20.49 77.97L19.01 76.49ZM20.03 74.55L18.55 76.03L17.07 74.55L18.55 73.07L20.03 74.55ZM22.43 76.03L20.95 74.55L22.43 73.07L23.91 74.55L22.43 76.03ZM24.88 74.55L26.31 73.07L27.79 74.55L26.31 76.03L24.88 74.55ZM25.85 72.61L24.37 74.09L22.94 72.61L24.37 71.18L25.85 72.61ZM24.37 75.01L25.85 76.49L24.37 77.97L22.94 76.49L24.37 75.01ZM16.14 66.78L14.66 68.26L13.18 66.78L14.66 65.3L16.14 66.78ZM16.6 67.24L18.08 68.72L16.6 70.2L15.12 68.72L16.6 67.24ZM14.66 69.18L16.14 70.66L14.66 72.14L13.18 70.66L14.66 69.18ZM9.29 66.77L10.77 65.29L12.25 66.77L10.77 68.25L9.29 66.77ZM9.66 70.28L10.77 69.17L12.25 70.65L11.14 71.76L9.66 70.28ZM11.23 68.71L12.71 67.23L14.19 68.71L12.71 70.19L11.23 68.71ZM11.6 72.22L12.71 71.16L14.19 72.59L13.08 73.7L11.6 72.22ZM10.67 72.22L9.19 73.7L7.71 72.22L9.19 70.79L10.67 72.22ZM9.19 74.62L10.67 76.1L9.19 77.58L7.71 76.1L9.19 74.62ZM11.13 75.64L9.65 74.21L11.09 72.73L12.62 74.21L11.14 75.64H11.13ZM11.59 76.1L13.07 74.62L14.5 76.1L13.07 77.58L11.59 76.1ZM14.64 73.05L16.12 74.53L15.01 75.64L13.53 74.21L14.64 73.05ZM16.58 74.99L18.06 76.47L16.95 77.58L15.47 76.1L16.58 74.99ZM16.58 71.15L18.06 72.58L16.58 74.06L15.1 72.58L16.58 71.15ZM15.47 80.03L16.95 78.55L18.43 80.03L16.95 81.46L15.47 80.03ZM15.01 80.45L16.44 81.93H13.57L15 80.45H15.01ZM16.49 78.05L15.01 79.53L13.53 78.05L15.01 76.62L16.49 78.05ZM9.64 78.05L11.12 76.62L12.6 78.05L11.12 79.53L9.64 78.05ZM10.66 80.04L9.18 81.47L7.7 80.04L9.18 78.56L10.66 80.04ZM9.73 81.89L11.12 80.5L12.55 81.93H10.24C10.06 81.93 9.87 81.93 9.73 81.88V81.89ZM13.06 81.47L11.58 80.04L13.06 78.56L14.49 80.04L13.06 81.47ZM26.29 76.98L27.4 78.04L25.97 79.52L24.86 78.41L26.29 76.98ZM25.97 80.45L27.36 81.93H24.54L25.98 80.45H25.97ZM24.35 78.92L25.46 80.03L23.98 81.46L22.92 80.35L24.35 78.92ZM20.93 78.41L22.41 76.98L23.89 78.41L22.41 79.89L20.93 78.41ZM18.52 76.98L20 78.41L18.89 79.52L17.41 78.04L18.52 76.98ZM18.89 80.49L20.28 81.92H17.46L18.9 80.49H18.89ZM21.34 81.92L22.4 80.81L23.46 81.92H21.33H21.34ZM21.94 80.35L20.83 81.46L19.35 80.03L20.46 78.92L21.94 80.35ZM50.7 43.68V43.82L49.31 45.21L47.83 43.78L49.31 42.3L50.7 43.69V43.68ZM50.7 47.56V47.7L49.31 49.13L47.83 47.6L49.31 46.17L50.7 47.56ZM50.7 46.63L49.78 45.71L50.7 44.74V46.64V46.63ZM48.81 45.71L47.33 47.14L45.9 45.71L47.33 44.23L48.81 45.71ZM49.78 49.6L50.7 48.68V50.48L49.78 49.6ZM50.7 51.59L49.31 53.02L47.83 51.54L49.31 50.06L50.7 51.45V51.59ZM49.78 53.49L50.7 52.57V54.42L49.78 53.5V53.49ZM48.81 49.61L47.33 51.04L45.9 49.61L47.33 48.13L48.81 49.61ZM47.33 52.01L48.81 53.49L47.33 54.97L45.9 53.49L47.33 52.01ZM50.38 55.06L48.95 56.54L47.84 55.43L49.32 53.95L50.38 55.06ZM48.48 57L47 58.48L45.89 57.37L47.32 55.89L48.48 57ZM50.7 58.29L49.41 57L50.7 55.7V58.29ZM48.94 57.46L50.37 58.94L48.94 60.42L47.46 58.94L48.94 57.46ZM49.4 60.88L50.69 59.59V62.18L49.4 60.88ZM46.99 63.28L48.43 64.76L47.32 65.92L45.84 64.44L47 63.28H46.99ZM50.37 62.82L48.94 64.3L47.46 62.82L48.94 61.39L50.37 62.82ZM49.4 64.76L50.69 63.47V66.06L49.4 64.76ZM48.43 60.88L46.99 62.36L45.51 60.88L46.99 59.4L48.43 60.88ZM45.38 45.2L43.95 43.77L45.38 42.29L46.86 43.77L45.38 45.2ZM44.92 45.71L43.49 47.14L42.01 45.71L43.49 44.23L44.92 45.71ZM43.95 47.65L45.38 46.17L46.86 47.65L45.38 49.13L43.95 47.65ZM41.04 45.71L39.56 47.14L38.13 45.71L39.56 44.23L41.04 45.71ZM40.07 47.65L41.5 46.17L42.98 47.65L41.5 49.13L40.07 47.65ZM37.66 46.17L39.1 47.65L37.66 49.13L36.18 47.6L37.66 46.17ZM39.1 43.77L37.66 45.2L36.18 43.77L37.66 42.29L39.1 43.77ZM41.5 45.2L40.07 43.77L41.5 42.29L42.98 43.77L41.5 45.2ZM41.04 49.59L39.56 51.02L38.13 49.59L39.56 48.11L41.04 49.59ZM39.56 51.99L41.04 53.47L39.56 54.95L38.13 53.47L39.56 51.99ZM41.5 53.01L40.07 51.53L41.5 50.05L42.98 51.53L41.5 53.01ZM39.1 51.53L37.66 53.01L36.18 51.53L37.66 50.05L39.1 51.53ZM44.93 49.59L43.5 51.02L42.02 49.59L43.5 48.11L44.93 49.59ZM45.39 53.01L43.96 51.53L45.39 50.05L46.87 51.53L45.39 53.01ZM42.01 53.47L43.49 51.99L44.92 53.47L43.49 54.95L42.01 53.47ZM35.21 43.76L33.73 45.19L32.25 43.76L33.73 42.28L35.21 43.76ZM33.73 46.16L35.21 47.64L33.73 49.12L32.25 47.64L33.73 46.16ZM34.24 45.7L35.67 44.22L37.15 45.7L35.67 47.13L34.24 45.7ZM31.79 47.13L30.31 45.7L31.79 44.22L33.27 45.7L31.79 47.13ZM28.74 47.27L29.85 46.16L31.33 47.64L30.17 48.75L28.73 47.27H28.74ZM29.39 45.7L28.23 46.86L26.75 45.38L27.9 44.22L29.38 45.7H29.39ZM29.85 45.19L28.42 43.76L29.85 42.28L31.33 43.76L29.85 45.19ZM31.65 51.2L30.17 52.68L28.73 51.2L30.17 49.72L31.65 51.2ZM30.68 53.1L32.16 51.67L33.59 53.15L32.16 54.63L30.68 53.1ZM28.23 51.67L29.71 53.15L28.23 54.63L26.75 53.15L28.23 51.67ZM29.71 49.27L28.23 50.7L26.75 49.27L28.23 47.79L29.71 49.27ZM32.16 50.7L30.68 49.27L31.79 48.11L33.27 49.59L32.16 50.7ZM34.56 53.15L35.67 51.99L37.15 53.47L35.99 54.63L34.56 53.15ZM35.67 51.02L34.24 49.59L35.67 48.11L37.15 49.59L35.67 51.02ZM34.05 52.69L32.57 51.21L33.73 50.05L35.21 51.53L34.05 52.69ZM35.53 55.09L34.05 56.52L32.57 55.09L34.05 53.61L35.53 55.09ZM34.05 57.49L35.53 58.97L34.05 60.45L32.57 58.97L34.05 57.49ZM35.99 58.51L34.56 57.03L35.99 55.55L37.47 57.03L35.99 58.51ZM30.16 57.49L31.64 58.97L30.16 60.45L28.72 58.97L30.16 57.49ZM32.15 58.51L30.67 57.03L32.15 55.55L33.58 57.03L32.15 58.51ZM29.7 57.03L28.22 58.51L26.74 57.03L28.22 55.55L29.7 57.03ZM31.64 55.09L30.16 56.52L28.72 55.09L30.16 53.61L31.64 55.09ZM32.15 62.35L30.67 60.92L32.15 59.44L33.58 60.92L32.15 62.35ZM29.7 60.92L28.22 62.35L26.74 60.92L28.22 59.44L29.7 60.92ZM30.67 64.8L32.15 63.32L33.58 64.8L32.15 66.28L30.67 64.8ZM31.64 62.86L30.16 64.34L28.72 62.86L30.16 61.38L31.64 62.86ZM28.22 63.32L29.7 64.8L28.22 66.28L26.74 64.8L28.22 63.32ZM34.56 64.8L35.99 63.32L37.47 64.8L35.99 66.28L34.56 64.8ZM35.99 62.35L34.56 60.92L35.99 59.44L37.47 60.92L35.99 62.35ZM34.05 64.34L32.57 62.86L34.05 61.38L35.53 62.86L34.05 64.34ZM45.38 56.85L43.95 55.42L45.38 53.94L46.86 55.42L45.38 56.85ZM44.92 57.36L43.49 58.84L42.01 57.36L43.49 55.88L44.92 57.36ZM43.95 59.3L45.38 57.82L46.53 58.93L45.05 60.41L43.94 59.3H43.95ZM40.07 55.41L41.5 53.93L42.98 55.41L41.5 56.89L40.07 55.41ZM39.1 55.41L37.99 56.52L36.51 55.09L37.67 53.93L39.11 55.41H39.1ZM40.39 58.97L41.5 57.81L42.98 59.29L41.82 60.45L40.39 58.97ZM41.04 57.35L39.93 58.51L38.4 57.03L39.56 55.87L41.04 57.35ZM37.99 57.49L39.42 58.97L37.99 60.45L36.51 58.97L37.99 57.49ZM39.93 62.35L38.45 60.92L39.93 59.44L41.37 60.92L39.93 62.35ZM39.42 62.86L37.99 64.34L36.51 62.86L37.99 61.38L39.42 62.86ZM39.93 63.32L41.04 64.43L39.56 65.91L38.45 64.8L39.93 63.32ZM41.5 63.97L40.39 62.86L41.82 61.38L42.98 62.49L41.5 63.97ZM43.44 62.03L42.33 60.92L43.49 59.76L44.55 60.87L43.44 62.03ZM41.96 64.43L43.44 62.95L44.87 64.43L43.44 65.91L41.96 64.43ZM45.38 63.97L43.9 62.49L45.01 61.38L46.49 62.81L45.38 63.97ZM45.38 67.85L43.9 66.37L45.38 64.94L46.86 66.37L45.38 67.85ZM44.87 68.31L43.44 69.79L41.96 68.31L43.44 66.88L44.87 68.31ZM43.9 70.25L45.38 68.77L46.86 70.25L45.38 71.73L43.9 70.25ZM41.45 67.85L40.02 66.37L41.45 64.94L42.93 66.37L41.45 67.85ZM39.05 66.37L37.61 67.85L36.5 66.74L37.98 65.26L39.04 66.37H39.05ZM37.61 68.77L39.05 70.25L37.61 71.73L36.13 70.25L37.61 68.77ZM41.03 68.31L39.55 69.79L38.07 68.31L39.55 66.88L41.03 68.31ZM40.01 70.25L41.44 68.77L42.92 70.25L41.44 71.73L40.01 70.25ZM41.49 75.62L40.01 74.19L41.49 72.71L42.97 74.19L41.49 75.62ZM39.55 74.6L41.03 76.08L39.55 77.56L38.07 76.08L39.55 74.6ZM39.04 74.18L37.6 75.61L36.12 74.18L37.6 72.7L39.04 74.18ZM41.03 72.19L39.55 73.67L38.07 72.19L39.55 70.76L41.03 72.19ZM45.38 75.61L43.9 74.18L45.38 72.7L46.86 74.18L45.38 75.61ZM41.96 76.07L43.44 74.59L44.87 76.07L43.44 77.55L41.96 76.07ZM43.44 73.66L41.96 72.18L43.44 70.75L44.87 72.18L43.44 73.66ZM34.56 68.67L35.99 67.19L37.15 68.3L35.67 69.78L34.56 68.67ZM34.05 68.21L32.57 66.73L34.05 65.25L35.53 66.73L34.05 68.21ZM34.05 69.14L35.21 70.25L33.73 71.73L32.57 70.62L34.05 69.14ZM30.17 65.25L31.65 66.73L30.17 68.21L28.73 66.73L30.17 65.25ZM29.71 68.67L28.23 70.15L26.75 68.67L28.23 67.19L29.71 68.67ZM32.16 70.15L30.68 68.67L32.16 67.19L33.59 68.67L32.16 70.15ZM30.17 69.13L31.65 70.61L30.17 72.09L28.73 70.61L30.17 69.13ZM30.68 72.55L32.16 71.12L33.22 72.18L31.78 73.66L30.67 72.55H30.68ZM28.23 71.12L29.71 72.55L28.23 74.03L26.75 72.55L28.23 71.12ZM28.23 74.96L29.34 76.07L27.91 77.55L26.76 76.44L28.24 74.96H28.23ZM29.8 75.61L28.74 74.5L30.18 73.02L31.29 74.18L29.81 75.61H29.8ZM30.31 76.07L31.79 74.59L33.23 76.07L31.79 77.55L30.31 76.07ZM33.69 72.69L35.17 74.17L33.69 75.6L32.21 74.17L33.69 72.69ZM34.2 76.07L35.63 74.59L37.11 76.07L35.63 77.55L34.2 76.07ZM35.63 73.66L34.2 72.18L35.63 70.75L37.11 72.18L35.63 73.66ZM35.17 81.89H32.3L33.73 80.46L35.16 81.89H35.17ZM34.2 79.99L35.68 78.51L37.16 79.99L35.63 81.42L34.2 79.99ZM33.74 76.57L35.22 78L33.69 79.48L32.21 78L33.74 76.57ZM28.37 78L29.8 76.57L31.28 78L29.8 79.48L28.37 78ZM29.34 79.99L27.86 81.42L26.38 79.99L27.86 78.51L29.34 79.99ZM28.42 81.89L29.81 80.46L31.24 81.89H28.42ZM31.8 81.43L30.32 80L31.8 78.52L33.24 80L31.8 81.43ZM45.4 79.49L43.92 78.01L45.4 76.58L46.88 78.01L45.4 79.49ZM44.89 80L43.46 81.43L41.98 80L43.46 78.52L44.89 80ZM43.97 81.9L45.4 80.47L46.6 81.67C46.09 81.81 45.58 81.9 44.98 81.9H43.96H43.97ZM40.04 78.02L41.47 76.59L43 78.02L41.52 79.5L40.04 78.02ZM37.63 76.59L39.07 78.02L37.63 79.5L36.15 78.02L37.63 76.59ZM37.63 80.43L39.02 81.91H36.2L37.63 80.43ZM40.08 81.91L41.47 80.48L42.9 81.91H40.08ZM41.05 80.01L39.57 81.44L38.09 80.01L39.57 78.53L41.05 80.01ZM50.39 66.69L49.28 67.85L47.8 66.37L48.96 65.21L50.39 66.69ZM50.71 69.28L49.74 68.31L50.71 67.39V69.29V69.28ZM50.71 70.21V70.3L49.28 71.73L47.8 70.25L49.28 68.77L50.71 70.2V70.21ZM48.82 68.31L47.34 69.79L45.86 68.31L47.34 66.88L48.82 68.31ZM49.75 72.19L50.72 71.26V73.16L49.75 72.19ZM50.72 75.15V75.94C50.72 76.31 50.68 76.63 50.63 76.96L49.75 76.08L50.72 75.15ZM50.72 74.18L49.29 75.61L47.81 74.18L49.29 72.7L50.72 74.13V74.18ZM48.83 72.19L47.35 73.67L45.87 72.19L47.35 70.76L48.83 72.19ZM47.35 74.59L48.83 76.07L47.35 77.55L45.87 76.07L47.35 74.59ZM47.44 81.34C47.44 81.34 47.35 81.39 47.3 81.39L45.87 80L47.35 78.52L48.83 80L47.44 81.34ZM49.29 76.58L50.45 77.74C50.36 78.06 50.26 78.39 50.08 78.71L49.29 79.5L47.81 78.02L49.29 76.59V76.58Z" fill="#F8F3F1"/>
<path d="M53.28 1.85C52.31 0.97 51.2 0.37 50 0.14C49.49 0.05 48.98 0 48.47 0H6.84C6.29 0 5.78 0.05 5.27 0.14C4.07 0.37 2.96 0.97 1.99 1.85C0.69 3.1 0 4.62 0 6.38V78.62C0 80.38 0.69 81.9 1.99 83.15C3.33 84.4 4.9 85 6.85 85H48.47C50.36 85 51.94 84.4 53.28 83.15C54.62 81.9 55.27 80.38 55.27 78.62V6.38C55.27 4.62 54.62 3.1 53.28 1.85ZM52.68 2.36C53.98 3.61 54.62 5.09 54.62 6.85V78.16C54.62 79.92 53.97 81.4 52.68 82.65C51.39 83.85 49.81 84.45 47.96 84.5H7.31C5.46 84.45 3.89 83.85 2.59 82.65C1.29 81.4 0.65 79.92 0.65 78.16V6.84C0.65 5.08 1.3 3.6 2.59 2.35C3.88 1.15 5.46 0.5 7.31 0.5H47.96C49.81 0.5 51.38 1.15 52.68 2.35V2.36Z" fill="#C1B8B3"/>
</g>
<defs>
<clipPath id="clip0_80_325">
<rect width="55.26" height="85" fill="white"/>
</clipPath>
</defs>
</svg>
